<svg xmlns="http://www.w3.org/2000/svg" width="140" height="120" viewBox="0 0 140 120">
  <g fill="none" fill-rule="evenodd">
    <rect width="140" height="120" fill="#FFF" fill-opacity=".5" rx="3"/>
    <rect width="96" height="96" x="22" y="12" fill="#93ACC8" rx="3"/>
    <path fill="#FFF" fill-rule="nonzero" d="M42.119,25.6666667 C41.9888333,21.8295 41.4626667,18.2343333 40.6046667,15.015 C42.2803333,14.1038333 43.8588333,13.002 45.3328333,11.7406667 C48.6731667,15.5173333 50.8328333,20.3445 51.2398333,25.6666667 L42.119,25.6666667 Z M40.6046667,39.985 C41.4626667,36.7656667 41.9888333,33.1705 42.119,29.3333333 L51.2398333,29.3333333 C50.8328333,34.6555 48.6731667,39.4826667 45.3328333,43.2575 C43.8588333,41.998 42.2803333,40.8961667 40.6046667,39.985 L40.6046667,39.985 Z M39.4606667,43.571 C40.5955,44.2328333 41.69,44.9735 42.713,45.8278333 C40.799,47.4191667 38.6265,48.7025 36.278,49.6375 C37.5026667,47.9416667 38.577,45.9011667 39.4606667,43.571 L39.4606667,43.571 Z M15.5411667,43.571 C16.423,45.9011667 17.4973333,47.9416667 18.7238333,49.6375 C16.3735,48.7025 14.201,47.4191667 12.287,45.8278333 C13.31,44.9735 14.4045,44.2328333 15.5411667,43.571 L15.5411667,43.571 Z M12.881,29.3333333 C13.0111667,33.1705 13.5373333,36.7656667 14.3953333,39.985 C12.7196667,40.8961667 11.1411667,41.998 9.66716667,43.2575 C6.32866667,39.4826667 4.16716667,34.6555 3.76016667,29.3333333 L12.881,29.3333333 Z M14.3953333,15.015 C13.5373333,18.2343333 13.0111667,21.8295 12.881,25.6666667 L3.76016667,25.6666667 C4.16716667,20.3445 6.32683333,15.5173333 9.66716667,11.7406667 C11.1411667,13.002 12.7196667,14.1038333 14.3953333,15.015 L14.3953333,15.015 Z M15.5411667,11.429 C14.4045,10.7671667 13.31,10.0246667 12.287,9.17216667 C14.201,7.58083333 16.3735,6.2975 18.7238333,5.3625 C17.4973333,7.05833333 16.423,9.09883333 15.5411667,11.429 L15.5411667,11.429 Z M36.2761667,5.3625 C38.6265,6.2975 40.799,7.58083333 42.7148333,9.17216667 C41.69,10.0246667 40.5955,10.7671667 39.4606667,11.429 C38.577,9.09883333 37.5026667,7.05833333 36.2761667,5.3625 L36.2761667,5.3625 Z M29.3333333,14.5768333 L29.3333333,4.05166667 C31.9256667,5.09116667 34.4318333,8.27383333 36.1698333,13.0276667 C33.9991667,13.8746667 31.702,14.3971667 29.3333333,14.5768333 L29.3333333,14.5768333 Z M29.3333333,25.6666667 L29.3333333,18.2435 C32.0686667,18.0638333 34.7215,17.4881667 37.2331667,16.5385 C37.9023333,19.2481667 38.3368333,22.3116667 38.4541667,25.6666667 L29.3333333,25.6666667 Z M29.3333333,36.7565 L29.3333333,29.3333333 L38.4541667,29.3333333 C38.3368333,32.6883333 37.9023333,35.7518333 37.2331667,38.4615 C34.7215,37.5118333 32.0686667,36.9361667 29.3333333,36.7565 L29.3333333,36.7565 Z M29.3333333,40.4231667 C31.702,40.6028333 33.9991667,41.1253333 36.1698333,41.9723333 C34.4318333,46.7261667 31.9256667,49.9088333 29.3333333,50.9483333 L29.3333333,40.4231667 Z M25.6666667,40.4231667 L25.6666667,50.9483333 C23.0761667,49.9088333 20.5681667,46.7261667 18.8301667,41.9723333 C21.0008333,41.1253333 23.298,40.6028333 25.6666667,40.4231667 L25.6666667,40.4231667 Z M25.6666667,29.3333333 L25.6666667,36.7565 C22.9313333,36.9361667 20.2803333,37.5118333 17.7668333,38.4615 C17.0976667,35.7518333 16.6631667,32.6883333 16.5458333,29.3333333 L25.6666667,29.3333333 Z M25.6666667,18.2435 L25.6666667,25.6666667 L16.5458333,25.6666667 C16.6631667,22.3116667 17.0976667,19.2481667 17.7668333,16.5385 C20.2803333,17.4881667 22.9313333,18.0638333 25.6666667,18.2435 L25.6666667,18.2435 Z M25.6666667,14.5768333 C23.298,14.3971667 21.0008333,13.8746667 18.8301667,13.0276667 C20.5681667,8.27383333 23.0761667,5.09116667 25.6666667,4.05166667 L25.6666667,14.5768333 Z M27.5,0 C12.3365,0 0,12.3365 0,27.5 C0,42.6635 12.3365,55 27.5,55 C42.6653333,55 55,42.6635 55,27.5 C55,12.3365 42.6653333,0 27.5,0 L27.5,0 Z" transform="translate(42 32)"/>
  </g>
</svg>
