<svg xmlns="http://www.w3.org/2000/svg" width="36" height="36" viewBox="0 0 36 36">
  <g fill-rule="evenodd">
    <path d="M18,31 C10.832,31 5,25.168 5,18 C5,10.832 10.832,5 18,5 C25.168,5 31,10.832 31,18 C31,25.168 25.168,31 18,31 M18,3 C9.729,3 3,9.729 3,18 C3,26.271 9.729,33 18,33 C26.271,33 33,26.271 33,18 C33,9.729 26.271,3 18,3"/>
    <path d="M18,9 C18.552,9 19,9.449 19,10 C19,10.551 18.552,11 18,11 C17.448,11 17,10.551 17,10 C17,9.449 17.448,9 18,9 M18,13 C19.654,13 21,11.654 21,10 C21,8.346 19.654,7 18,7 C16.346,7 15,8.346 15,10 C15,11.654 16.346,13 18,13"/>
    <polygon points="25.142 14.99 24.859 13.011 18 13.99 11.142 13.011 10.859 14.99 17 15.868 17 18.838 14.052 27.684 15.949 28.317 18 22.162 20.052 28.317 21.949 27.684 19 18.838 19 15.868"/>
  </g>
</svg>
