<svg xmlns="http://www.w3.org/2000/svg" width="36" height="36" viewBox="0 0 36 36">
  <g fill="none" fill-rule="evenodd">
    <path fill="#000" d="M4.8774,28 L23.1324,28 C22.3064,26.614 20.0084,25.548 19.0924,25.232 C15.4554,24.373 15.0454,22.379 15.0114,22.154 L15.0004,22.003 L15.0004,18.895 L15.6304,18.645 C16.8514,18.158 16.7644,17.393 16.7634,17.386 L16.6384,16.607 L17.3654,16.304 C17.4044,16.268 17.5774,16.064 17.9134,15.315 C17.8684,15.255 17.7984,15.185 17.7704,15.163 L17.1894,14.725 L17.8304,12.881 C18.1344,11.639 18.0094,10.353 17.4614,9.651 C17.1974,9.314 16.8544,9 16.5174,9 L15.9664,9 L15.6724,8.655 C15.6704,8.653 15.0354,7.766 14.0284,7.766 C13.5514,7.769 12.1334,7.916 11.3624,8.421 C10.4574,9.013 9.5174,10.292 10.1784,12.953 L10.7744,14.773 L10.1364,15.196 C10.0934,15.228 10.0314,15.292 9.9984,15.339 C10.1754,15.816 10.5154,16.233 10.6504,16.308 L11.4284,16.632 L11.2414,17.388 C11.2324,17.494 11.2244,18.188 12.3694,18.644 L13.0004,18.894 L12.9884,22.151 C12.9554,22.376 12.5524,24.373 8.8194,25.259 C7.9814,25.553 5.7004,26.615 4.8774,28 L4.8774,28 Z M25.0004,30 L3.0004,30 L3.0004,29 C3.0004,25.39 7.8954,23.539 8.4774,23.34 C10.5884,22.834 10.8954,22.057 11.0004,21.847 L11.0004,20.199 C9.8114,19.515 9.3684,18.523 9.2664,17.76 C8.7184,17.278 8.2894,16.536 8.0804,15.916 C7.8304,15.176 8.0854,14.536 8.4414,14.083 L8.2574,13.521 C7.2064,9.3 9.3144,7.401 10.2674,6.777 C11.6724,5.858 13.7894,5.827 14.0254,5.826 C15.5324,5.826 16.5564,6.734 17.0414,7.29 C17.8034,7.429 18.5104,7.867 19.0364,8.54 C19.5834,9.239 20.4024,10.807 19.7454,13.45 L19.5164,14.114 C19.9054,14.644 20.0924,15.325 19.7984,15.997 C19.5254,16.62 19.2044,17.289 18.7404,17.739 C18.6424,18.505 18.2004,19.509 17.0004,20.199 L17.0004,21.87 C17.0754,22.01 17.3384,22.816 19.4304,23.313 C20.1054,23.539 25.0004,25.389 25.0004,29 L25.0004,30 Z"/>
    <polygon fill="#000" points="29 5 27 5 27 9 23 9 23 11 27 11 27 15 29 15 29 11 33 11 33 9 29 9"/>
  </g>
</svg>
