<svg xmlns="http://www.w3.org/2000/svg" width="36" height="36" viewBox="0 0 36 36">
  <g fill-rule="evenodd">
    <polygon points="17 17 13 17 13 19 19 19 19 11 17 11"/>
    <path d="M27.5464,12.5518 C27.5464,12.5508 27.5454,12.5508 27.5454,12.5498 C27.3274,12.1698 27.0814,11.8088 26.8214,11.4588 C26.7584,11.3738 26.6944,11.2908 26.6294,11.2078 C26.0914,10.5258 25.4764,9.9108 24.7944,9.3728 C24.7094,9.3058 24.6234,9.2408 24.5364,9.1758 C24.1894,8.9188 23.8324,8.6738 23.4554,8.4578 C23.4534,8.4568 23.4504,8.4548 23.4484,8.4528 C23.9814,7.5708 24.9444,6.9998 26.0004,6.9998 C27.6544,6.9998 29.0004,8.3458 29.0004,9.9998 C29.0004,11.0558 28.4294,12.0188 27.5464,12.5518 M18.0004,26.9998 C13.0374,26.9998 9.0004,22.9628 9.0004,17.9998 C9.0004,16.7048 9.2784,15.4448 9.8264,14.2508 C10.7254,12.2958 12.2964,10.7248 14.2504,9.8258 L14.2514,9.8258 L14.2514,9.8258 C16.6354,8.7308 19.3644,8.7308 21.7494,9.8258 L21.7494,9.8258 L21.7494,9.8258 C23.7034,10.7248 25.2754,12.2958 26.1734,14.2508 C26.7214,15.4448 27.0004,16.7048 27.0004,17.9998 C27.0004,22.9628 22.9624,26.9998 18.0004,26.9998 M10.0004,6.9998 C11.0554,6.9998 12.0194,7.5708 12.5514,8.4528 C12.5494,8.4548 12.5474,8.4568 12.5444,8.4578 C12.1674,8.6738 11.8104,8.9188 11.4634,9.1758 C11.3764,9.2408 11.2904,9.3058 11.2054,9.3728 C10.5234,9.9108 9.9084,10.5258 9.3704,11.2078 C9.3054,11.2908 9.2414,11.3738 9.1794,11.4588 C8.9194,11.8088 8.6724,12.1698 8.4544,12.5498 C8.4544,12.5508 8.4544,12.5508 8.4534,12.5518 C7.5704,12.0188 7.0004,11.0558 7.0004,9.9998 C7.0004,8.3458 8.3454,6.9998 10.0004,6.9998 M31.0004,9.9998 C31.0004,7.2428 28.7564,4.9998 26.0004,4.9998 C24.1544,4.9998 22.4914,6.0468 21.6324,7.6328 C20.7754,7.3318 19.8924,7.1408 19.0004,7.0588 L19.0004,4.9998 L21.0004,4.9998 L21.0004,2.9998 L15.0004,2.9998 L15.0004,4.9998 L17.0004,4.9998 L17.0004,7.0588 C16.1084,7.1408 15.2254,7.3318 14.3684,7.6328 C13.5084,6.0468 11.8454,4.9998 10.0004,4.9998 C7.2434,4.9998 5.0004,7.2428 5.0004,9.9998 C5.0004,11.8448 6.0464,13.5068 7.6314,14.3668 C7.2174,15.5388 7.0004,16.7548 7.0004,17.9998 C7.0004,20.9968 8.2074,23.7148 10.1584,25.7008 L7.2194,29.3748 L8.7804,30.6248 L11.6864,26.9928 C13.4754,28.2528 15.6504,28.9998 18.0004,28.9998 C20.3494,28.9998 22.5244,28.2528 24.3134,26.9928 L27.2194,30.6248 L28.7804,29.3748 L25.8414,25.7008 C27.7924,23.7148 29.0004,20.9968 29.0004,17.9998 C29.0004,16.7548 28.7834,15.5388 28.3684,14.3668 C29.9534,13.5068 31.0004,11.8448 31.0004,9.9998"/>
  </g>
</svg>
