<svg xmlns="http://www.w3.org/2000/svg" width="36" height="36" viewBox="0 0 36 36">
  <g fill-rule="evenodd">
    <path d="M6 10L10 10 10 6 6 6 6 10zM4 12L12 12 12 4 4 4 4 12zM16 10L20 10 20 6 16 6 16 10zM14 12L22 12 22 4 14 4 14 12zM26 10L30 10 30 6 26 6 26 10zM24 12L32 12 32 4 24 4 24 12zM6 20L10 20 10 16 6 16 6 20zM4 22L12 22 12 14 4 14 4 22zM16 20L20 20 20 16 16 16 16 20zM14 22L22 22 22 14 14 14 14 22zM26 20L30 20 30 16 26 16 26 20zM24 22L32 22 32 14 24 14 24 22zM6 30L10 30 10 26 6 26 6 30zM4 32L12 32 12 24 4 24 4 32zM16 30L20 30 20 26 16 26 16 30zM14 32L22 32 22 24 14 24 14 32zM26 30L30 30 30 26 26 26 26 30zM24 32L32 32 32 24 24 24 24 32z"/>
  </g>
</svg>
