<svg xmlns="http://www.w3.org/2000/svg" width="36" height="36" viewBox="0 0 36 36">
  <path fill-rule="evenodd" d="M18,3 C14.14,3 11,6.14 11,10 L11,14 L11,18 L11,28 C11,30.757 13.243,33 16,33 C18.757,33 21,30.757 21,28 L21,25 L21,14 L21,12 C21,10.346 19.654,9 18,9 C16.346,9 15,10.346 15,12 L15,25 L17,25 L17,12 C17,11.449 17.449,11 18,11 C18.551,11 19,11.449 19,12 L19,14 L19,25 L19,28 C19,29.654 17.654,31 16,31 C14.346,31 13,29.654 13,28 L13,18 L13,14 L13,10 C13,7.243 15.243,5 18,5 C20.757,5 23,7.243 23,10 L23,25 L25,25 L25,10 C25,6.14 21.86,3 18,3"/>
</svg>
