<svg xmlns="http://www.w3.org/2000/svg" width="36" height="36" viewBox="0 0 36 36">
  <g fill-rule="evenodd">
    <polygon points="29 23 29 21 21 21 21 29 23 29 23 24.414 29.293 30.707 30.707 29.293 24.414 23"/>
    <polygon points="13 11.586 6.707 5.293 5.293 6.707 11.586 13 7 13 7 15 15 15 15 7 13 7"/>
    <polygon points="29 13 24.414 13 30.707 6.707 29.293 5.293 23 11.586 23 7 21 7 21 15 29 15"/>
    <polygon points="7 23 11.586 23 5.293 29.293 6.707 30.707 13 24.414 13 29 15 29 15 21 7 21"/>
  </g>
</svg>
