<svg xmlns="http://www.w3.org/2000/svg" width="36" height="36" viewBox="0 0 36 36">
  <g fill-rule="evenodd">
    <path d="M27,30 C27,30.552 26.551,31 26,31 L9,31 L9,27 L10.278,27 C10.625,27.595 11.263,28 12,28 C13.103,28 14,27.103 14,26 C14,24.897 13.103,24 12,24 C11.263,24 10.625,24.405 10.278,25 L9,25 L9,19 L10.278,19 C10.625,19.595 11.263,20 12,20 C13.103,20 14,19.103 14,18 C14,16.897 13.103,16 12,16 C11.263,16 10.625,16.405 10.278,17 L9,17 L9,11 L10.278,11 C10.625,11.595 11.263,12 12,12 C13.103,12 14,11.103 14,10 C14,8.897 13.103,8 12,8 C11.263,8 10.625,8.405 10.278,9 L9,9 L9,5 L26,5 C26.551,5 27,5.448 27,6 L27,13 L29,13 L29,6 C29,4.346 27.654,3 26,3 L7,3 L7,33 L26,33 C27.654,33 29,31.654 29,30 L29,25 L27,25 L27,30 Z"/>
    <path d="M20.5396,26.167 L19.4706,26.485 L19.8176,25.475 L28.0856,17.206 L28.7936,17.913 L20.5396,26.167 Z M30.5606,16.853 L29.1466,15.438 C28.5806,14.872 27.5916,14.872 27.0256,15.438 L18.0766,24.389 L16.3176,29.515 L21.5966,27.938 L30.5606,18.975 C31.1456,18.39 31.1456,17.438 30.5606,16.853 L30.5606,16.853 Z"/>
  </g>
</svg>
