<svg xmlns="http://www.w3.org/2000/svg" width="36" height="36" viewBox="0 0 36 36">
  <path fill-rule="evenodd" d="M14,28 L14,18 L21,18 C23.757,18 26,20.243 26,23 C26,25.757 23.757,28 21,28 L14,28 Z M20,8 C22,8 23.5,9.57 23.5,11.5 C23.5,13.43 22,15 20,15 L14,15 L14,8 L20,8 Z M29,23 C29,19.981 27.318,17.348 24.843,15.987 C25.907,14.819 26.5,13.24 26.5,11.5 C26.5,8.226 24.41,5.517 21,5.072 L21,5 L14,5 L11,5 L9,5 L9,8 L11,8 L11,28 L9,28 L9,31 L22,31 L22,30.931 C25.94,30.436 29,27.072 29,23 L29,23 Z"/>
</svg>
