<svg xmlns="http://www.w3.org/2000/svg" width="36" height="36" viewBox="0 0 36 36">
  <g fill-rule="evenodd">
    <path d="M18 16.5C17.172 16.5 16.5 17.172 16.5 18 16.5 18.828 17.172 19.5 18 19.5 18.828 19.5 19.5 18.828 19.5 18 19.5 17.172 18.828 16.5 18 16.5L18 16.5zM13 16.5C12.172 16.5 11.5 17.172 11.5 18 11.5 18.828 12.172 19.5 13 19.5 13.828 19.5 14.5 18.828 14.5 18 14.5 17.172 13.828 16.5 13 16.5M23 16.5C22.172 16.5 21.5 17.172 21.5 18 21.5 18.828 22.172 19.5 23 19.5 23.828 19.5 24.5 18.828 24.5 18 24.5 17.172 23.828 16.5 23 16.5"/>
    <path d="M5.4141,18 L18.0001,5.414 L30.5861,18 L18.0001,30.586 L5.4141,18 Z M18.0001,2.586 L2.5861,18 L18.0001,33.414 L33.4141,18 L18.0001,2.586 Z"/>
  </g>
</svg>
