<svg xmlns="http://www.w3.org/2000/svg" width="36" height="36" viewBox="0 0 36 36">
  <path fill-rule="evenodd" d="M18,31 C16.591,31 15.238,30.768 13.966,30.352 L17.051,22.904 C17.359,22.964 17.675,23 18,23 C20.757,23 23,20.757 23,18 C23,16.983 22.691,16.038 22.167,15.247 L27.861,9.553 C29.813,11.827 31,14.775 31,18 C31,25.168 25.168,31 18,31 L18,31 Z M18,5 C19.409,5 20.762,5.232 22.034,5.648 L18.949,13.096 C18.641,13.036 18.325,13 18,13 C15.243,13 13,15.243 13,18 C13,19.017 13.309,19.962 13.833,20.753 L8.139,26.447 C6.187,24.173 5,21.225 5,18 C5,10.832 10.832,5 18,5 L18,5 Z M20.847,13.739 L23.879,6.42 C24.804,6.892 25.666,7.468 26.447,8.139 L20.847,13.739 Z M15,18 C15,16.346 16.346,15 18,15 C19.654,15 21,16.346 21,18 C21,19.654 19.654,21 18,21 C16.346,21 15,19.654 15,18 L15,18 Z M15.153,22.261 L12.121,29.58 C11.196,29.108 10.334,28.532 9.553,27.861 L15.153,22.261 Z M18,3 C9.729,3 3,9.729 3,18 C3,26.271 9.729,33 18,33 C26.271,33 33,26.271 33,18 C33,9.729 26.271,3 18,3 L18,3 Z"/>
</svg>
