<svg xmlns="http://www.w3.org/2000/svg" width="36" height="36" viewBox="0 0 36 36">
  <g fill-rule="evenodd">
    <polygon points="29 31 31 31 31 29 29 29"/>
    <path d="M25,31 L27,31 L27,29 L25,29 L25,31 Z M21,31 L23,31 L23,29 L21,29 L21,31 Z M17,31 L19.001,31 L19.001,29 L17,29 L17,31 Z M13,31 L15,31 L15,29 L13,29 L13,31 Z M9,31 L11.001,31 L11.001,29 L9,29 L9,31 Z"/>
    <polygon points="5 31 7 31 7 29 5 29"/>
    <path d="M5,11 L7,11 L7,9 L5,9 L5,11 Z M5,15 L7,15 L7,13 L5,13 L5,15 Z M5,19 L7,19 L7,16.999 L5,16.999 L5,19 Z M5,23 L7,23 L7,21 L5,21 L5,23 Z M5,27 L7,27 L7,24.999 L5,24.999 L5,27 Z"/>
    <polygon points="5 7 7 7 7 5 5 5"/>
    <path d="M25,7 L27,7 L27,5 L25,5 L25,7 Z M21,7 L23,7 L23,5 L21,5 L21,7 Z M17,7 L19.001,7 L19.001,5 L17,5 L17,7 Z M13,7 L15,7 L15,5 L13,5 L13,7 Z M9,7 L11.001,7 L11.001,5 L9,5 L9,7 Z"/>
    <polygon points="29 7 31 7 31 5 29 5"/>
    <path d="M29,11 L31,11 L31,9 L29,9 L29,11 Z M29,15 L31,15 L31,13 L29,13 L29,15 Z M29,19 L31,19 L31,16.999 L29,16.999 L29,19 Z M29,23 L31,23 L31,21 L29,21 L29,23 Z M29,27 L31,27 L31,24.999 L29,24.999 L29,27 Z"/>
  </g>
</svg>
