<svg xmlns="http://www.w3.org/2000/svg" width="36" height="36" viewBox="0 0 36 36">
  <path fill-rule="evenodd" d="M25,31 L25,29 L23,29 L23,31 L21,31 L21,27 L19,27 L19,31 L17,31 L17,29 L15,29 L15,31 L13,31 L13,29 L11,29 L11,31 L9,31 L9,25 L27,25 L27,31 L25,31 Z M9.553,20.342 L17,16.618 L17,6 C17,5.449 17.448,5 18,5 C18.552,5 19,5.449 19,6 L19.002,16.618 L26.447,20.342 C26.788,20.512 27,20.855 27,21.236 L27,23 L9,23 L9,21.236 C9,20.855 9.212,20.512 9.553,20.342 L9.553,20.342 Z M27.342,18.553 L21.002,15.382 L21,6 C21,4.346 19.654,3 18,3 C16.346,3 15,4.346 15,6 L15,15.382 L8.658,18.553 C7.636,19.064 7,20.092 7,21.236 L7,33 L29,33 L29,21.236 C29,20.092 28.364,19.064 27.342,18.553 L27.342,18.553 Z"/>
</svg>
