<svg xmlns="http://www.w3.org/2000/svg" width="36" height="36" viewBox="0 0 36 36">
  <path fill-rule="evenodd" d="M12,13 C10.346,13 9,14.346 9,16 L9.098,17.025 L8.362,17.28 C6.352,17.979 5,19.876 5,22 C5,24.757 7.243,27 10,27 L26,27 C28.757,27 31,24.757 31,22 C31,19.837 29.618,17.93 27.562,17.253 L26.729,16.979 L26.892,16.116 C26.964,15.736 27,15.36 27,15 C27,11.691 24.309,9 21,9 C18.415,9 16.129,10.649 15.311,13.104 L14.876,14.408 L13.769,13.592 C13.243,13.205 12.632,13 12,13 M26,29 L10,29 C6.141,29 3,25.859 3,22 C3,19.277 4.584,16.822 7.011,15.676 C7.178,13.069 9.352,11 12,11 C12.647,11 13.28,11.126 13.873,11.371 C15.222,8.715 17.956,7 21,7 C25.411,7 29,10.589 29,15 C29,15.219 28.99,15.44 28.971,15.664 C31.411,16.804 33,19.255 33,22 C33,25.859 29.859,29 26,29"/>
</svg>
