<svg xmlns="http://www.w3.org/2000/svg" width="36" height="36" viewBox="0 0 36 36">
  <g fill-rule="evenodd">
    <path d="M7,11 L29,11 L29,7 L7,7 L7,11 Z M9,29 L27,29 L27,13 L9,13 L9,29 Z M31,5 L5,5 L5,13 L7,13 L7,31 L29,31 L29,13 L31,13 L31,5 Z"/>
    <path d="M14,17 L22,17 C22.551,17 23,17.449 23,18 C23,18.551 22.551,19 22,19 L14,19 C13.449,19 13,18.551 13,18 C13,17.449 13.449,17 14,17 M14,21 L22,21 C23.654,21 25,19.654 25,18 C25,16.346 23.654,15 22,15 L14,15 C12.346,15 11,16.346 11,18 C11,19.654 12.346,21 14,21"/>
  </g>
</svg>
