<svg xmlns="http://www.w3.org/2000/svg" width="36" height="36" viewBox="0 0 36 36">
  <g fill-rule="evenodd">
    <path d="M15.6943 16.1094L10.0003 10.6094 4.3053 16.1094 5.6943 17.5474 9.0003 14.3554 9.0003 20.0004C9.0003 24.9624 13.0373 29.0004 18.0003 29.0004 22.9633 29.0004 27.0003 25.0004 27.0003 20.0004L25.0003 20.0004C25.0003 24.0004 21.8593 27.0004 18.0003 27.0004 14.1403 27.0004 11.0003 23.8594 11.0003 20.0004L11.0003 14.3554 14.3053 17.5474 15.6943 16.1094zM26 15C27.654 15 29 13.654 29 12 29 10.346 27.654 9 26 9 24.346 9 23 10.346 23 12 23 13.654 24.346 15 26 15M26 7C28.757 7 31 9.243 31 12 31 14.757 28.757 17 26 17 23.243 17 21 14.757 21 12 21 9.243 23.243 7 26 7"/>
  </g>
</svg>
