<svg xmlns="http://www.w3.org/2000/svg" width="36" height="36" viewBox="0 0 36 36">
  <g fill-rule="evenodd">
    <path d="M20.3057 19.8906L25.9997 25.3906 31.6947 19.8906 30.3057 18.4526 26.9997 21.6446 26.9997 15.9996C26.9997 11.0376 22.9627 6.9996 17.9997 6.9996 13.0367 6.9996 8.9997 11.0376 8.9997 15.9996L10.9997 15.9996C10.9997 12.1406 14.1407 8.9996 17.9997 8.9996 21.8597 8.9996 24.9997 12.1406 24.9997 15.9996L24.9997 21.6446 21.6947 18.4526 20.3057 19.8906zM10 21C8.346 21 7 22.346 7 24 7 25.654 8.346 27 10 27 11.654 27 13 25.654 13 24 13 22.346 11.654 21 10 21M10 29C7.243 29 5 26.757 5 24 5 21.243 7.243 19 10 19 12.757 19 15 21.243 15 24 15 26.757 12.757 29 10 29"/>
  </g>
</svg>
