<svg xmlns="http://www.w3.org/2000/svg" width="36" height="36" viewBox="0 0 36 36">
  <g fill-rule="evenodd">
    <path d="M27 24L25 24C25 28 21.859 31 18 31 14.141 31 11 27.86 11 24L11 18.527 14.306 21.719 15.694 20.281 10 14.781 4.306 20.281 5.694 21.719 9 18.527 9 24C9 28.962 13.037 33 18 33 22.963 33 27 29 27 24M20.3057 15.8906L25.9997 21.3906 31.6947 15.8906 30.3057 14.4526 26.9997 17.6446 26.9997 11.9996C26.9997 7.0376 22.9627 2.9996 17.9997 2.9996 13.0367 2.9996 8.9997 7.0376 8.9997 11.9996L10.9997 11.9996C10.9997 8.1406 14.1407 4.9996 17.9997 4.9996 21.8597 4.9996 24.9997 8.1406 24.9997 11.9996L24.9997 17.6446 21.6947 14.4526 20.3057 15.8906z"/>
  </g>
</svg>
