<svg xmlns="http://www.w3.org/2000/svg" width="36" height="36" viewBox="0 0 36 36">
  <g fill-rule="evenodd">
    <path d="M5,25 L31,25 L31,15 L5,15 L5,25 Z M19.184,13 C19.598,11.839 20.698,11 22,11 C24.757,11 27,8.757 27,6 L25,6 C25,7.654 23.654,9 22,9 C19.586,9 17.566,10.721 17.101,13 L3,13 L3,27 L33,27 L33,13 L19.184,13 Z"/>
    <polygon points="9 23 11 23 11 21 13 21 13 19 11 19 11 17 9 17 9 19 7 19 7 21 9 21"/>
    <path d="M28 21.5C28.828 21.5 29.5 20.828 29.5 20 29.5 19.172 28.828 18.5 28 18.5 27.172 18.5 26.5 19.172 26.5 20 26.5 20.828 27.172 21.5 28 21.5M24 21.5C24.828 21.5 25.5 20.828 25.5 20 25.5 19.172 24.828 18.5 24 18.5 23.172 18.5 22.5 19.172 22.5 20 22.5 20.828 23.172 21.5 24 21.5"/>
  </g>
</svg>
