<svg xmlns="http://www.w3.org/2000/svg" width="36" height="36" viewBox="0 0 36 36">
  <g fill-rule="evenodd">
    <path d="M7,24.5859 L7,22.9999 L6,22.9999 C5.449,22.9999 5,22.5519 5,21.9999 L5,9.9999 C5,9.4479 5.449,8.9999 6,8.9999 L26,8.9999 C26.551,8.9999 27,9.4479 27,9.9999 L27,14.9999 L29,14.9999 L29,9.9999 C29,8.3459 27.654,6.9999 26,6.9999 L6,6.9999 C4.346,6.9999 3,8.3459 3,9.9999 L3,21.9999 C3,23.3039 3.836,24.4159 5,24.8289 L5,29.4139 L9.414,24.9999 L17,24.9999 L17,22.9999 L8.586,22.9999 L7,24.5859 Z"/>
    <path d="M31,24 C31,24.552 30.551,25 30,25 L29,25 L29,26.586 L27.414,25 L22,25 C21.449,25 21,24.552 21,24 L21,20 C21,19.448 21.449,19 22,19 L30,19 C30.551,19 31,19.448 31,20 L31,24 Z M30,17 L22,17 C20.346,17 19,18.346 19,20 L19,24 C19,25.654 20.346,27 22,27 L26.586,27 L31,31.414 L31,26.829 C32.164,26.416 33,25.304 33,24 L33,20 C33,18.346 31.654,17 30,17 L30,17 Z"/>
  </g>
</svg>
