<svg xmlns="http://www.w3.org/2000/svg" width="36" height="36" viewBox="0 0 36 36">
  <g fill-rule="evenodd">
    <path d="M18,31 C10.832,31 5,25.168 5,18 C5,10.832 10.832,5 18,5 C25.168,5 31,10.832 31,18 C31,25.168 25.168,31 18,31 M18,3 C9.729,3 3,9.729 3,18 C3,26.271 9.729,33 18,33 C26.271,33 33,26.271 33,18 C33,9.729 26.271,3 18,3"/>
    <polygon points="14.153 17 9 17 9 19 13.82 19 13.014 23.836 14.986 24.164 16.986 12.164 15.014 11.836"/>
    <polygon points="22.986 12.164 21.013 11.836 19.013 23.836 20.986 24.164 21.847 19 27 19 27 17 22.18 17"/>
  </g>
</svg>
