<svg xmlns="http://www.w3.org/2000/svg" width="36" height="36" viewBox="0 0 36 36">
  <path fill-rule="evenodd" d="M9,16 C7.897,16 7,16.897 7,18 C7,19.103 7.897,20 9,20 C10.103,20 11,19.103 11,18 C11,16.897 10.103,16 9,16 Z M9,22 C6.794,22 5,20.206 5,18 C5,15.794 6.794,14 9,14 C11.206,14 13,15.794 13,18 C13,20.206 11.206,22 9,22 Z M27,22 C24.794,22 23,20.206 23,18 C23,15.794 24.794,14 27,14 C29.206,14 31,15.794 31,18 C31,20.206 29.206,22 27,22 Z M27,16 C25.897,16 25,16.897 25,18 C25,19.103 25.897,20 27,20 C28.103,20 29,19.103 29,18 C29,16.897 28.103,16 27,16 Z M17,29 L17,7 L19,7 L19,29 L17,29 Z"/>
</svg>
