<svg xmlns="http://www.w3.org/2000/svg" width="36" height="36" viewBox="0 0 36 36">
  <g fill-rule="evenodd">
    <path d="M28.9707,15.6641 C28.9907,15.4401 28.9997,15.2191 28.9997,15.0001 C28.9997,10.5891 25.4107,7.0001 20.9997,7.0001 C17.9547,7.0001 15.2217,8.7151 13.8727,11.3711 C13.2807,11.1261 12.6477,11.0001 11.9997,11.0001 C9.3517,11.0001 7.1777,13.0691 7.0107,15.6761 C4.5837,16.8221 2.9997,19.2771 2.9997,22.0001 C2.9997,25.8591 6.1407,29.0001 9.9997,29.0001 L11.9997,29.0001 L11.9997,27.0001 L9.9997,27.0001 C7.2427,27.0001 4.9997,24.7571 4.9997,22.0001 C4.9997,19.8761 6.3517,17.9791 8.3627,17.2801 L9.0977,17.0251 L8.9997,16.0001 C8.9997,14.3461 10.3457,13.0001 11.9997,13.0001 C12.6307,13.0001 13.2427,13.2051 13.7697,13.5931 L14.8757,14.4071 L15.3107,13.1031 C16.1287,10.6491 18.4147,9.0001 20.9997,9.0001 C24.3087,9.0001 26.9997,11.6911 26.9997,15.0001 C26.9997,15.3601 26.9637,15.7361 26.8917,16.1161 L26.7287,16.9781 L27.5617,17.2531 C29.6177,17.9301 30.9997,19.8371 30.9997,22.0001 C30.9997,24.7531 28.7637,26.9931 26.0127,27.0001 C25.6057,26.9681 24.9807,26.9801 23.9807,27.0001 L24.0197,29.0001 C24.4497,28.9911 24.9307,28.9841 25.2997,28.9821 L25.9997,29.0001 C29.8597,29.0001 32.9997,25.8591 32.9997,22.0001 C32.9997,19.2551 31.4107,16.8041 28.9707,15.6641"/>
    <polygon points="19 27.586 19 17 17 17 17 27.586 13.707 24.293 12.293 25.707 18 31.414 23.707 25.707 22.293 24.293"/>
  </g>
</svg>
