<svg xmlns="http://www.w3.org/2000/svg" width="36" height="36" viewBox="0 0 36 36">
  <g fill-rule="evenodd">
    <path d="M13 16C11.897 16 11 16.897 11 18 11 19.103 11.897 20 13 20 14.103 20 15 19.103 15 18 15 16.897 14.103 16 13 16M13 22C10.794 22 9 20.206 9 18 9 15.794 10.794 14 13 14 15.206 14 17 15.794 17 18 17 20.206 15.206 22 13 22M23 16C21.897 16 21 16.897 21 18 21 19.103 21.897 20 23 20 24.103 20 25 19.103 25 18 25 16.897 24.103 16 23 16M23 22C20.794 22 19 20.206 19 18 19 15.794 20.794 14 23 14 25.206 14 27 15.794 27 18 27 20.206 25.206 22 23 22M13 26C11.897 26 11 26.897 11 28 11 29.103 11.897 30 13 30 14.103 30 15 29.103 15 28 15 26.897 14.103 26 13 26M13 32C10.794 32 9 30.206 9 28 9 25.794 10.794 24 13 24 15.206 24 17 25.794 17 28 17 30.206 15.206 32 13 32M23 26C21.897 26 21 26.897 21 28 21 29.103 21.897 30 23 30 24.103 30 25 29.103 25 28 25 26.897 24.103 26 23 26M23 32C20.794 32 19 30.206 19 28 19 25.794 20.794 24 23 24 25.206 24 27 25.794 27 28 27 30.206 25.206 32 23 32M13 6C11.897 6 11 6.897 11 8 11 9.103 11.897 10 13 10 14.103 10 15 9.103 15 8 15 6.897 14.103 6 13 6M13 12C10.794 12 9 10.206 9 8 9 5.794 10.794 4 13 4 15.206 4 17 5.794 17 8 17 10.206 15.206 12 13 12M23 6C21.897 6 21 6.897 21 8 21 9.103 21.897 10 23 10 24.103 10 25 9.103 25 8 25 6.897 24.103 6 23 6M23 12C20.794 12 19 10.206 19 8 19 5.794 20.794 4 23 4 25.206 4 27 5.794 27 8 27 10.206 25.206 12 23 12"/>
  </g>
</svg>
