<svg xmlns="http://www.w3.org/2000/svg" width="36" height="36" viewBox="0 0 36 36">
  <g fill-rule="evenodd">
    <path d="M29.082,8.8701 L27.946,10.0061 L26.178,8.2381 L27.314,7.1021 L29.082,8.8701 Z M15.91,21.7981 L14.111,22.3351 L13.771,21.9951 L14.368,20.2551 L15.91,21.7981 Z M23.928,10.4881 L24.764,9.6521 L26.532,11.4201 L25.696,12.2561 L23.928,10.4881 Z M24.282,13.6701 L17.447,20.5061 L15.678,18.7371 L22.514,11.9021 L24.282,13.6701 Z M10.45,25.5141 L17.316,23.4651 L30.673,10.1071 C31.355,9.4251 31.355,8.3151 30.673,7.6331 L28.552,5.5121 C27.891,4.8501 26.738,4.8491 26.077,5.5121 L12.735,18.8531 L10.45,25.5141 Z"/>
    <polygon points="29 29 7 29 7 7 22 7 22 5 5 5 5 31 31 31 31 14 29 14"/>
  </g>
</svg>
