<svg xmlns="http://www.w3.org/2000/svg" width="36" height="36" viewBox="0 0 36 36">
  <g fill-rule="evenodd">
    <path d="M30.918,15.1719 L26.752,19.3379 L18.266,10.8519 L22.433,6.6859 C22.808,6.3119 23.472,6.3109 23.847,6.6859 L30.918,13.7569 C31.308,14.1479 31.308,14.7819 30.918,15.1719 L30.918,15.1719 Z M21.09,24.9999 L11.048,24.9999 L8.291,22.2429 C7.901,21.8529 7.901,21.2179 8.291,20.8279 L16.852,12.2659 L25.338,20.7519 L21.09,24.9999 Z M32.332,12.3429 L25.261,5.2719 C24.132,4.1429 22.149,4.1429 21.019,5.2719 L6.876,19.4139 C5.707,20.5839 5.707,22.4869 6.876,23.6569 L10.22,26.9999 L21.918,26.9999 L32.333,16.5859 C33.501,15.4159 33.501,13.5129 32.332,12.3429 L32.332,12.3429 Z"/>
    <polygon points="3 31 22 31 22 29 3 29"/>
  </g>
</svg>
