<svg xmlns="http://www.w3.org/2000/svg" width="36" height="36" viewBox="0 0 36 36">
  <path fill-rule="evenodd" d="M21,3.0003 L21,7.0003 L15,7.0003 L15,3.0003 L9,3.0003 L9,7.0003 L5,7.0003 L5,13.0003 L5,15.0003 L5,31.0003 L31,31.0003 L31,15.0003 L31,13.0003 L31,7.0003 L27,7.0003 L27,3.0003 L21,3.0003 Z M23,7.9993 L23,5.0003 L25,5.0003 L25,7.9993 L25,8.9993 L23,8.9993 L23,7.9993 Z M11,7.9993 L11,5.0003 L13,5.0003 L13,7.9993 L13,8.9993 L11,8.9993 L11,7.9993 Z M27,11.0003 L27,8.9993 L29,8.9993 L29,13.0003 L7,13.0003 L7,8.9993 L9,8.9993 L9,11.0003 L15,11.0003 L15,8.9993 L21,8.9993 L21,11.0003 L27,11.0003 Z M7,29.0003 L29.001,29.0003 L29.001,15.0003 L7,15.0003 L7,29.0003 Z"/>
</svg>
