<svg xmlns="http://www.w3.org/2000/svg" width="36" height="36" viewBox="0 0 36 36">
  <g fill-rule="evenodd">
    <path d="M18,13 C21.86,13 25,16.141 25,20 L27,20 C27,15.037 22.962,11 18,11 C13.038,11 9,15.037 9,20 C9,24.541 10.769,28.81 13.979,32.021 L15.394,30.606 C12.561,27.773 11,24.007 11,20 C11,16.141 14.14,13 18,13"/>
    <path d="M15,20 C15,18.346 16.346,17 18,17 C19.654,17 21,18.346 21,20 C21,22.757 23.243,25 26,25 C28.757,25 31,22.757 31,20 C31,12.832 25.168,7 18,7 C10.832,7 5,12.832 5,20 C5,23.508 5.884,26.981 7.556,30.046 L9.312,29.087 C7.799,26.316 7,23.175 7,20 C7,13.935 11.935,9 18,9 C24.065,9 29,13.935 29,20 C29,21.654 27.654,23 26,23 C24.346,23 23,21.654 23,20 C23,17.243 20.757,15 18,15 C15.243,15 13,17.243 13,20 C13,27.168 18.832,33 26,33 L26,31 C19.935,31 15,26.065 15,20"/>
    <path d="M26 27C22.14 27 19 23.859 19 20L17 20C17 24.963 21.038 29 26 29 28.404 29 30.664 28.064 32.364 26.364L30.95 24.95C29.627 26.271 27.87 27 26 27M18 5C23.875 5 29.238 8.469 31.664 13.837L33.486 13.013C30.738 6.931 24.659 3 18 3 13.756 3 9.685 4.588 6.535 7.473L7.885 8.947C10.666 6.402 14.258 5 18 5"/>
  </g>
</svg>
