<svg xmlns="http://www.w3.org/2000/svg" width="36" height="36" viewBox="0 0 36 36">
  <g fill-rule="evenodd">
    <path d="M31,27 L5,27 L5,10 C5,9.448 5.449,9 6,9 L11,9 L25,9 L30,9 C30.551,9 31,9.448 31,10 L31,27 Z M13,6 C13,5.448 13.449,5 14,5 L22,5 C22.551,5 23,5.448 23,6 L23,7 L13,7 L13,6 Z M30,7 L25,7 L25,6 C25,4.346 23.654,3 22,3 L14,3 C12.346,3 11,4.346 11,6 L11,7 L6,7 C4.346,7 3,8.346 3,10 L3,29 L33,29 L33,10 C33,8.346 31.654,7 30,7 L30,7 Z"/>
    <polygon points="19 13 17 13 17 17 13 17 13 19 17 19 17 23 19 23 19 19 23 19 23 17 19 17"/>
  </g>
</svg>
