<svg xmlns="http://www.w3.org/2000/svg" width="36" height="36" viewBox="0 0 36 36">
  <g fill-rule="evenodd">
    <polygon points="7 33 9.001 33 9.001 3 7 3"/>
    <path d="M16,14 C18.094,14 20.334,15.052 20.429,15.097 C20.467,15.115 22.251,16 24,16 C25.163,16 26.336,15.611 27,15.347 L27,6.464 C26.17,6.734 25.08,7 24,7 C21.766,7 19.638,5.937 19.549,5.893 C19.543,5.89 17.692,5 16,5 C14.827,5 13.659,5.388 13,5.651 L13,14.532 C13.824,14.263 14.908,14 16,14 M24,18 C21.766,18 19.638,16.938 19.549,16.893 C19.548,16.893 17.636,16 16,16 C14.565,16 12.947,16.646 12.444,16.896 L11,17.612 L11,4.391 L11.542,4.111 C11.63,4.065 13.725,3 16,3 C18.163,3 20.348,4.057 20.439,4.102 C20.467,4.115 22.251,5 24,5 C25.407,5 27.048,4.351 27.563,4.101 L29,3.401 L29,16.614 L28.452,16.892 C28.363,16.938 26.242,18 24,18"/>
  </g>
</svg>
