<svg xmlns="http://www.w3.org/2000/svg" width="36" height="36" viewBox="0 0 36 36">
  <path fill-rule="evenodd" d="M5,23 L13,23 L13,13 L5,13 L5,23 Z M15,23 L31,23 L31,13 L15,13 L15,23 Z M33,25 L33,11 L15,11 L15,9 C15,7.897 15.897,7 17,7 L17,5 C15.8,5 14.734,5.542 14,6.382 C13.266,5.542 12.2,5 11,5 L11,7 C12.103,7 13,7.897 13,9 L13,11 L3,11 L3,25 L13,25 L13,27 C13,28.103 12.103,29 11,29 L11,31 C12.2,31 13.266,30.458 14,29.618 C14.734,30.458 15.8,31 17,31 L17,29 C15.897,29 15,28.103 15,27 L15,25 L33,25 Z"/>
</svg>
