<svg xmlns="http://www.w3.org/2000/svg" width="36" height="36" viewBox="0 0 36 36">
  <g fill-rule="evenodd">
    <path d="M7.9401,15.4617 L3.0001,16.1787 L6.5741,19.6637 L5.7311,24.5837 L10.1491,22.2607 L14.5681,24.5837 L13.7231,19.6637 L17.2981,16.1787 L12.3581,15.4617 L10.1491,10.9847 L7.9401,15.4617 Z M8.7241,18.9657 L7.2971,17.5757 L9.2681,17.2897 L10.1491,15.5037 L11.0301,17.2897 L13.0001,17.5757 L11.5741,18.9657 L11.9111,20.9277 L10.1491,20.0017 L8.3861,20.9277 L8.7241,18.9657 Z"/>
    <polygon points="17.149 21 31.149 21 31.149 19 17.149 19"/>
    <polygon points="19.149 17 33.149 17 33.149 15 19.149 15"/>
    <polygon points="19.149 25 29.149 25 29.149 23 19.149 23"/>
    <polygon points="17.149 13 31.149 13 31.149 11 17.149 11"/>
  </g>
</svg>
