<svg xmlns="http://www.w3.org/2000/svg" width="36" height="36" viewBox="0 0 36 36">
  <path fill-rule="evenodd" d="M25.9739,17 C25.9029,14.907 25.6159,12.946 25.1479,11.19 C26.0619,10.693 26.9229,10.092 27.7269,9.404 C29.5489,11.464 30.7269,14.097 30.9489,17 L25.9739,17 Z M25.1479,24.81 C25.6159,23.054 25.9029,21.093 25.9739,19 L30.9489,19 C30.7269,21.903 29.5489,24.536 27.7269,26.595 C26.9229,25.908 26.0619,25.307 25.1479,24.81 L25.1479,24.81 Z M24.5239,26.766 C25.1429,27.127 25.7399,27.531 26.2979,27.997 C25.2539,28.865 24.0689,29.565 22.7879,30.075 C23.4559,29.15 24.0419,28.037 24.5239,26.766 L24.5239,26.766 Z M11.4769,26.766 C11.9579,28.037 12.5439,29.15 13.2129,30.075 C11.9309,29.565 10.7459,28.865 9.7019,27.997 C10.2599,27.531 10.8569,27.127 11.4769,26.766 L11.4769,26.766 Z M10.0259,19 C10.0969,21.093 10.3839,23.054 10.8519,24.81 C9.9379,25.307 9.0769,25.908 8.2729,26.595 C6.4519,24.536 5.2729,21.903 5.0509,19 L10.0259,19 Z M10.8519,11.19 C10.3839,12.946 10.0969,14.907 10.0259,17 L5.0509,17 C5.2729,14.097 6.4509,11.464 8.2729,9.404 C9.0769,10.092 9.9379,10.693 10.8519,11.19 L10.8519,11.19 Z M11.4769,9.234 C10.8569,8.873 10.2599,8.468 9.7019,8.003 C10.7459,7.135 11.9309,6.435 13.2129,5.925 C12.5439,6.85 11.9579,7.963 11.4769,9.234 L11.4769,9.234 Z M22.7869,5.925 C24.0689,6.435 25.2539,7.135 26.2989,8.003 C25.7399,8.468 25.1429,8.873 24.5239,9.234 C24.0419,7.963 23.4559,6.85 22.7869,5.925 L22.7869,5.925 Z M18.9999,10.951 L18.9999,5.21 C20.4139,5.777 21.7809,7.513 22.7289,10.106 C21.5449,10.568 20.2919,10.853 18.9999,10.951 L18.9999,10.951 Z M18.9999,17 L18.9999,12.951 C20.4919,12.853 21.9389,12.539 23.3089,12.021 C23.6739,13.499 23.9109,15.17 23.9749,17 L18.9999,17 Z M18.9999,23.049 L18.9999,19 L23.9749,19 C23.9109,20.83 23.6739,22.501 23.3089,23.979 C21.9389,23.461 20.4919,23.147 18.9999,23.049 L18.9999,23.049 Z M18.9999,25.049 C20.2919,25.147 21.5449,25.432 22.7289,25.894 C21.7809,28.487 20.4139,30.223 18.9999,30.79 L18.9999,25.049 Z M16.9999,25.049 L16.9999,30.79 C15.5869,30.223 14.2189,28.487 13.2709,25.894 C14.4549,25.432 15.7079,25.147 16.9999,25.049 L16.9999,25.049 Z M16.9999,19 L16.9999,23.049 C15.5079,23.147 14.0619,23.461 12.6909,23.979 C12.3259,22.501 12.0889,20.83 12.0249,19 L16.9999,19 Z M16.9999,12.951 L16.9999,17 L12.0249,17 C12.0889,15.17 12.3259,13.499 12.6909,12.021 C14.0619,12.539 15.5079,12.853 16.9999,12.951 L16.9999,12.951 Z M16.9999,10.951 C15.7079,10.853 14.4549,10.568 13.2709,10.106 C14.2189,7.513 15.5869,5.777 16.9999,5.21 L16.9999,10.951 Z M17.9999,3 C9.7289,3 2.9999,9.729 2.9999,18 C2.9999,26.271 9.7289,33 17.9999,33 C26.2719,33 32.9999,26.271 32.9999,18 C32.9999,9.729 26.2719,3 17.9999,3 L17.9999,3 Z"/>
</svg>
