<svg xmlns="http://www.w3.org/2000/svg" width="36" height="36" viewBox="0 0 36 36">
  <g fill-rule="evenodd">
    <polygon points="20.355 8.512 18.561 9.397 19.552 11.403 21.345 10.518"/>
    <polygon points="21.216 14.776 22.726 14.995 23.013 13.016 22.544 12.948 22.335 12.522 20.541 13.407"/>
    <polygon points="27.44 13.659 25.227 13.338 24.94 15.316 27.153 15.638"/>
    <polygon points="29.559 14.635 29.086 15.097 29.439 15.459 29.366 15.961 30.02 16.055 30.482 16.529 32.65 14.416 29.653 13.982"/>
    <polygon points="25.882 18.22 27.278 19.652 28.88 18.09 27.484 16.658"/>
    <polygon points="25.337 21.543 25.677 21.212 24.28 19.78 23.188 20.846 23.446 22.35 25.417 22.01"/>
    <polygon points="25.796 24.215 23.824 24.553 24.202 26.757 26.174 26.419"/>
    <polygon points="25.901 28.735 25.315 28.427 25.08 28.876 24.581 28.962 24.693 29.613 24.385 30.199 27.063 31.605 26.552 28.624"/>
    <polygon points="20.425 28.116 22.404 29.157 23.335 27.387 21.356 26.346"/>
    <polygon points="16.686 6.505 16.687 6.505 15.502 8.907 14.707 10.516 14.707 10.517 13.717 12.522 13.506 12.948 3.775 14.362 3.402 14.416 5.569 16.528 10.373 21.212 10.714 21.543 9.5 28.624 8.994 31.606 9 31.605 9 31.607 10.443 30.845 11.669 30.199 11.668 30.198 17.607 27.075 17.607 27.076 18.026 26.856 18.445 27.076 19.376 25.307 18.025 24.596 17.14 25.062 14.695 26.346 14.479 26.46 11.644 27.95 12.605 22.349 12.609 22.327 12.863 20.846 12.863 20.845 11.77 19.78 10.168 18.219 10.168 18.219 8.567 16.657 8.567 16.658 7.7 15.813 8.897 15.639 11.111 15.318 11.111 15.317 14.835 14.777 15.511 13.407 18.479 7.392 18.686 6.973 18.772 6.798 19.365 6.506 18.026 3.793"/>
  </g>
</svg>
