<svg xmlns="http://www.w3.org/2000/svg" width="36" height="36" viewBox="0 0 36 36">
  <path fill-rule="evenodd" d="M11.2061,6.9048 C9.5481,6.9048 7.9901,7.5508 6.8181,8.7218 C5.6451,9.8948 5.0001,11.4528 5.0001,13.1108 C5.0001,14.7688 5.6451,16.3268 6.8181,17.4988 L18.0001,28.6808 L29.1821,17.4988 C30.3541,16.3268 31.0001,14.7688 31.0001,13.1108 C31.0001,11.4528 30.3541,9.8948 29.1821,8.7218 C28.0101,7.5508 26.4521,6.9048 24.7941,6.9048 C23.1361,6.9048 21.5781,7.5508 20.4051,8.7218 L18.0001,11.1288 L15.5951,8.7218 C14.4221,7.5508 12.8641,6.9048 11.2061,6.9048 L11.2061,6.9048 Z M18.0001,31.5088 L5.4041,18.9128 C3.8531,17.3628 3.0001,15.3028 3.0001,13.1108 C3.0001,10.9188 3.8531,8.8578 5.4041,7.3078 C6.9541,5.7588 9.0141,4.9048 11.2061,4.9048 C13.3981,4.9048 15.4581,5.7588 17.0091,7.3078 L18.0001,8.2998 L18.9911,7.3078 C20.5411,5.7588 22.6021,4.9048 24.7941,4.9048 C26.9861,4.9048 29.0461,5.7588 30.5961,7.3078 C32.1461,8.8578 33.0001,10.9188 33.0001,13.1108 C33.0001,15.3028 32.1461,17.3628 30.5961,18.9128 L18.0001,31.5088 Z"/>
</svg>
