<svg xmlns="http://www.w3.org/2000/svg" width="36" height="36" viewBox="0 0 36 36">
  <g fill-rule="evenodd">
    <path d="M19.5,24 C19.5,24.828 18.828,25.5 18,25.5 C17.172,25.5 16.5,24.828 16.5,24 C16.5,23.172 17.172,22.5 18,22.5 C18.828,22.5 19.5,23.172 19.5,24"/>
    <path d="M18,5 C10.832,5 5,10.832 5,18 C5,25.168 10.832,31 18,31 C25.168,31 31,25.168 31,18 C31,10.832 25.168,5 18,5 M18,33 C9.729,33 3,26.271 3,18 C3,9.729 9.729,3 18,3 C26.271,3 33,9.729 33,18 C33,26.271 26.271,33 18,33"/>
    <path d="M19,20 L17,20 C17,17.456 19.437,16.166 19.54,16.112 C19.558,16.104 21,15.334 21,14 C21,12.346 19.654,11 18,11 C16.346,11 15,12.346 15,14 L13,14 C13,11.243 15.243,9 18,9 C20.757,9 23,11.243 23,14 C23,16.572 20.556,17.84 20.452,17.893 C20.45,17.894 19,18.682 19,20"/>
  </g>
</svg>
