<svg xmlns="http://www.w3.org/2000/svg" width="36" height="36" viewBox="0 0 36 36">
  <path fill-rule="evenodd" d="M18.0474,27 C15.8624,27 13.7604,26.488 11.8884,25.573 L13.8634,23.598 C15.0324,24.474 16.4774,25 18.0474,25 C21.9074,25 25.0474,21.859 25.0474,18 C25.0474,16.43 24.5214,14.985 23.6454,13.816 L25.9904,11.471 C28.2964,13.058 30.0884,15.321 30.9964,18 C29.1954,23.314 23.9174,27 18.0474,27 L18.0474,27 Z M13.0474,18 C13.0474,15.243 15.2904,13 18.0474,13 C19.0644,13 20.0094,13.309 20.8004,13.833 L18.1254,16.508 C18.0994,16.506 18.0744,16.5 18.0474,16.5 C17.2194,16.5 16.5474,17.172 16.5474,18 C16.5474,18.027 16.5534,18.052 16.5554,18.078 L13.8804,20.753 C13.3564,19.962 13.0474,19.017 13.0474,18 L13.0474,18 Z M23.0474,18 C23.0474,20.757 20.8044,23 18.0474,23 C17.0304,23 16.0854,22.691 15.2944,22.167 L17.9694,19.492 C17.9954,19.494 18.0204,19.5 18.0474,19.5 C18.8754,19.5 19.5474,18.828 19.5474,18 C19.5474,17.973 19.5414,17.948 19.5394,17.922 L22.2144,15.247 C22.7384,16.038 23.0474,16.983 23.0474,18 L23.0474,18 Z M5.0984,18 C6.8994,12.686 12.1774,9 18.0474,9 C20.2324,9 22.3344,9.512 24.2064,10.427 L22.2314,12.402 C21.0624,11.526 19.6174,11 18.0474,11 C14.1874,11 11.0474,14.141 11.0474,18 C11.0474,19.57 11.5734,21.015 12.4494,22.184 L10.1044,24.529 C7.7984,22.942 6.0064,20.679 5.0984,18 L5.0984,18 Z M33.0024,17.703 C32.0314,14.579 30.0284,11.924 27.4224,10.039 L30.7544,6.707 L29.3404,5.293 L25.6814,8.952 C23.3934,7.71 20.7784,7 18.0474,7 C11.2014,7 5.0514,11.401 3.0924,17.703 L3.0004,18 L3.0924,18.297 C4.0634,21.421 6.0664,24.076 8.6724,25.961 L5.3404,29.293 L6.7544,30.707 L10.4134,27.048 C12.7014,28.29 15.3164,29 18.0474,29 C24.8934,29 31.0434,24.599 33.0024,18.297 L33.0944,18 L33.0024,17.703 Z"/>
</svg>
