<svg xmlns="http://www.w3.org/2000/svg" width="36" height="36" viewBox="0 0 36 36">
  <path fill-rule="evenodd" d="M22.17,8.7054 L17.163,17.3764 L15.463,20.3224 L16.195,23.0554 L13.917,26.9994 L3,26.9994 L3,29.0004 L12.762,29.0004 L19,29.0004 L19.691,29.0004 L21.391,26.0544 L24.123,25.3234 L24.83,24.0984 L25.824,22.3774 L33.33,9.3764 L24.67,4.3754 L22.17,8.7054 Z M23.902,9.7064 L25.402,7.1074 L30.598,10.1074 L29.098,12.7054 L23.902,9.7064 Z M18.902,18.3664 L22.903,11.4374 L28.097,14.4374 L24.098,21.3654 L18.902,18.3664 Z M18.127,22.5374 L17.61,20.6054 L17.902,20.0984 L23.098,23.0984 L22.805,23.6054 L20.873,24.1234 L18.127,22.5374 Z M17.634,24.5624 L19.366,25.5624 L18.536,26.9994 L16.226,26.9994 L17.634,24.5624 Z"/>
</svg>
