<svg xmlns="http://www.w3.org/2000/svg" width="36" height="36" viewBox="0 0 36 36">
  <path fill-rule="evenodd" d="M30,27 L6,27 C5.572,27 5.206,26.729 5.063,26.351 L6.414,25 L29.586,25 L30.937,26.351 C30.794,26.729 30.428,27 30,27 L30,27 Z M7,10 C7,9.449 7.449,9 8,9 L28,9 C28.551,9 29,9.449 29,10 L29,23 L7,23 L7,10 Z M31,23.586 L31,10 C31,8.346 29.654,7 28,7 L8,7 C6.346,7 5,8.346 5,10 L5,23.586 L3,25.586 L3,26 C3,27.654 4.346,29 6,29 L30,29 C31.654,29 33,27.654 33,26 L33,25.586 L31,23.586 Z"/>
</svg>
