<svg xmlns="http://www.w3.org/2000/svg" width="36" height="36" viewBox="0 0 36 36">
  <g fill-rule="evenodd">
    <polygon points="11 11 33 11 33 8.999 11 8.999"/>
    <polygon points="11 19 33 19 33 17 11 17"/>
    <polygon points="11 27 33 27 33 25 11 25"/>
    <path d="M6 11.5C6.828 11.5 7.5 10.828 7.5 10 7.5 9.172 6.828 8.5 6 8.5 5.172 8.5 4.5 9.172 4.5 10 4.5 10.828 5.172 11.5 6 11.5M6 19.5C6.828 19.5 7.5 18.828 7.5 18 7.5 17.172 6.828 16.5 6 16.5 5.172 16.5 4.5 17.172 4.5 18 4.5 18.828 5.172 19.5 6 19.5M6 27.5C6.828 27.5 7.5 26.828 7.5 26 7.5 25.172 6.828 24.5 6 24.5 5.172 24.5 4.5 25.172 4.5 26 4.5 26.828 5.172 27.5 6 27.5"/>
  </g>
</svg>
