<svg xmlns="http://www.w3.org/2000/svg" width="36" height="36" viewBox="0 0 36 36">
  <g fill-rule="evenodd">
    <polygon points="11 11 33 11 33 8.999 11 8.999"/>
    <polygon points="11 19 33 19 33 17 11 17"/>
    <polygon points="11 27 33 27 33 25 11 25"/>
    <polygon points="6.835 13 6.835 8.245 6.773 8.245 5.416 9.199 5.416 8.008 6.835 7.002 8.096 7.002 8.096 13"/>
    <path d="M8.69463281 21L4.46538477 21 4.46538477 20.0869141 6.40776758 18.0449219C6.65402532 17.7626939 6.83525723 17.5109061 6.95146875 17.2895508 7.06768027 17.0681955 7.12578516 16.875896 7.12578516 16.7126465 7.12578516 16.4802234 7.06698854 16.2948412 6.94939355 16.1564941 6.83179857 16.0181471 6.65540873 15.9489746 6.42021875 15.9489746 6.20993124 15.9489746 6.044609 16.0382071 5.92424707 16.2166748 5.80388514 16.3951425 5.74370508 16.62272 5.74370508 16.8994141L4.37407617 16.8994141 4.36577539 16.8745117C4.35194069 16.3155897 4.53455605 15.8417581 4.91362695 15.4530029 5.29269786 15.0642477 5.7948901 14.869873 6.42021875 14.869873 7.08428457 14.869873 7.60238649 15.0331201 7.97454004 15.3596191 8.34669359 15.6861182 8.53276758 16.1329724 8.53276758 16.7001953 8.53276758 17.0820332 8.43385092 17.4195949 8.23601465 17.7128906 8.03817837 18.0061864 7.67363937 18.441973 7.14238672 19.0202637L6.32475977 19.8959961 6.33721094 19.9208984 8.69463281 19.9208984 8.69463281 21zM5.74370508 25.3933105L6.40361719 25.3933105C6.65540881 25.3933105 6.84909177 25.3255215 6.98467188 25.1899414 7.12025198 25.0543613 7.18804102 24.8662121 7.18804102 24.6254883 7.18804102 24.4345694 7.12716923 24.2740892 7.00542383 24.144043 6.88367843 24.0139967 6.70659687 23.9489746 6.47417383 23.9489746 6.29155573 23.9489746 6.13107556 24.0015457 5.99272852 24.1066895 5.85438147 24.2118332 5.78520898 24.3474113 5.78520898 24.5134277L4.42388086 24.5134277 4.41558008 24.4885254C4.39897843 24.0070777 4.58851104 23.6169449 4.98418359 23.3181152 5.37985615 23.0192856 5.85991319 22.869873 6.42436914 22.869873 7.08013414 22.869873 7.60446158 23.0199773 7.99736719 23.3201904 8.3902728 23.6204035 8.58672266 24.0458143 8.58672266 24.5964355 8.58672266 24.8703627 8.5016405 25.1228423 8.33147363 25.3538818 8.16130677 25.5849214 7.93372929 25.7654616 7.64873438 25.8955078 7.97246646 26.0144863 8.22563776 26.1950265 8.40825586 26.4371338 8.59087396 26.6792411 8.68218164 26.9690738 8.68218164 27.3066406 8.68218164 27.8600288 8.47051384 28.2951237 8.04717188 28.6119385 7.62382991 28.9287532 7.08290108 29.0871582 6.42436914 29.0871582 5.85714625 29.0871582 5.36117953 28.9384374 4.9364541 28.6409912 4.51172867 28.3435451 4.30628639 27.9126005 4.32012109 27.3481445L4.32842188 27.3232422 5.69805078 27.3232422C5.69805078 27.5169281 5.77344879 27.6794834 5.92424707 27.8109131 6.07504535 27.9423428 6.25835244 28.0080566 6.47417383 28.0080566 6.72043157 28.0080566 6.91688143 27.9388842 7.0635293 27.8005371 7.21017717 27.6621901 7.2835 27.4878754 7.2835 27.2775879 7.2835 26.9842922 7.20671854 26.7705492 7.05315332 26.6363525 6.8995881 26.5021559 6.68307822 26.4350586 6.40361719 26.4350586L5.74370508 26.4350586 5.74370508 25.3933105z"/>
  </g>
</svg>
