<svg xmlns="http://www.w3.org/2000/svg" width="36" height="36" viewBox="0 0 36 36">
  <g fill-rule="evenodd">
    <path d="M11.7725 8.8125L9.9955 7.8965C9.6595 8.5475 9.4045 9.2385 9.2375 9.9475L11.1845 10.4045C11.3135 9.8545 11.5115 9.3195 11.7725 8.8125L11.7725 8.8125zM11.2241 6.0908L12.7301 7.4068C13.1041 6.9788 13.5301 6.5958 13.9951 6.2688L12.8461 4.6328C12.2491 5.0508 11.7041 5.5418 11.2241 6.0908M24.8086 10.3789L26.7536 9.9139C26.5846 9.2069 26.3286 8.5179 25.9886 7.8659L24.2146 8.7899C24.4776 9.2959 24.6776 9.8299 24.8086 10.3789M17.1387 5.0532L16.8927 3.0692C16.1657 3.1582 15.4517 3.3382 14.7707 3.6022L15.4927 5.4672C16.0217 5.2622 16.5757 5.1232 17.1387 5.0532M24.7549 6.0659C24.2729 5.5179 23.7259 5.0289 23.1279 4.6129L21.9849 6.2539C22.4499 6.5779 22.8769 6.9599 23.2549 7.3879L24.7549 6.0659zM18.8359 5.0498C19.3979 5.1178 19.9529 5.2558 20.4849 5.4578L21.1979 3.5898C20.5149 3.3288 19.7999 3.1518 19.0759 3.0648L18.8359 5.0498z"/>
    <polygon points="25 14.023 27 14.023 27 12.076 25 12.076"/>
    <path d="M18,23.5 C18.828,23.5 19.5,22.828 19.5,22 C19.5,21.172 18.828,20.5 18,20.5 C17.172,20.5 16.5,21.172 16.5,22 C16.5,22.828 17.172,23.5 18,23.5"/>
    <polygon points="17 27 19 27 19 25 17 25"/>
    <polygon points="27 33 29 33 29 31 27 31"/>
    <polygon points="11 33 13 33 13 31 11 31"/>
    <polygon points="23 33 25 33 25 31 23 31"/>
    <polygon points="19 33 21 33 21 31 19 31"/>
    <polygon points="15 33 17.001 33 17.001 31 15 31"/>
    <polygon points="7 33 9.001 33 9.001 31 7 31"/>
    <polygon points="7 29 9 29 9 27 7 27"/>
    <polygon points="7 21 9 21 9 19 7 19"/>
    <polygon points="7 25 9 25 9 23 7 23"/>
    <polygon points="7 17 9 17 9 15 7 15"/>
    <polygon points="15 17 17 17 17 15 15 15"/>
    <polygon points="11 17 13 17 13 15 11 15"/>
    <polygon points="23 17 25 17 25 15 23 15"/>
    <polygon points="19 17 21 17 21 15 19 15"/>
    <polygon points="27 17 29 17 29 15 27 15"/>
    <polygon points="27 29 29 29 29 27 27 27"/>
    <polygon points="27 21 29 21 29 19 27 19"/>
    <polygon points="27 25 29 25 29 23 27 23"/>
    <polygon points="9 14.052 11 14.052 11 12.105 9 12.105"/>
  </g>
</svg>
