<svg xmlns="http://www.w3.org/2000/svg" width="36" height="36" viewBox="0 0 36 36">
  <path d="M18,32 C11.3333333,23.6818983 8,17.6818983 8,14 C8,8.4771525 12.4771525,4 18,4 C23.5228475,4 28,8.4771525 28,14 C28,17.6818983 24.6666667,23.6818983 18,32 Z M26,14 C26,9.581722 22.418278,6 18,6 C13.581722,6 10,9.581722 10,14 C10,16.8065316 12.6565091,21.827053 18,28.7642044 C23.3434909,21.827053 26,16.8065316 26,14 Z M18,11 C19.656,11 21,12.344 21,14 C21,15.656 19.656,17 18,17 C16.344,17 15,15.656 15,14 C15,12.344 16.344,11 18,11 Z"/>
</svg>
