<svg xmlns="http://www.w3.org/2000/svg" width="36" height="36" viewBox="0 0 36 36">
  <path fill-rule="evenodd" d="M31,25 L29,25 L29,24.18 L22.259,22.832 L13.196,21.02 L12.261,20.833 L7,19.78 L7,21 L5,21 L5,15 L7,15 L7,16.22 L29,11.82 L29,11 L31,11 L31,25 Z M20.502,25.868 C20.374,26.384 19.841,26.719 19.315,26.601 L14.221,25.469 C13.956,25.41 13.73,25.25 13.587,25.019 C13.445,24.787 13.402,24.514 13.468,24.25 L13.739,23.167 L20.823,24.584 L20.502,25.868 Z M27,9 L27,10.18 L9,13.78 L9,13 L3,13 L3,23 L9,23 L9,22.22 L11.776,22.775 L11.528,23.765 C11.33,24.557 11.457,25.375 11.886,26.07 C12.315,26.764 12.991,27.244 13.788,27.421 L18.881,28.553 C19.096,28.601 19.315,28.625 19.534,28.625 C20.912,28.625 22.108,27.691 22.443,26.353 L22.785,24.977 L27,25.82 L27,27 L33,27 L33,9 L27,9 Z"/>
</svg>
