<svg xmlns="http://www.w3.org/2000/svg" width="36" height="36" viewBox="0 0 36 36">
  <path fill-rule="evenodd" d="M24.707,20 C24.707,23.859 21.567,27 17.707,27 C15.628,27 13.764,26.084 12.481,24.64 L13.908,23.213 C14.826,24.296 16.179,25 17.707,25 C20.464,25 22.707,22.757 22.707,20 L22.707,14.414 L30.414,6.707 L29,5.293 L22.707,11.586 L22.707,8 C22.707,5.243 20.464,3 17.707,3 C14.95,3 12.707,5.243 12.707,8 L12.707,20 C12.707,20.479 12.796,20.932 12.922,21.371 L11.36,22.933 C10.945,22.04 10.707,21.048 10.707,20 L10.707,17 L8.707,17 L8.707,20 C8.707,21.606 9.135,23.112 9.875,24.418 L5,29.293 L6.414,30.707 L11.067,26.054 C12.502,27.627 14.48,28.693 16.707,28.941 L16.707,31 L12.707,31 L12.707,33 L16.707,33 L18.707,33 L22.707,33 L22.707,31 L18.707,31 L18.707,28.941 C23.2,28.442 26.707,24.625 26.707,20 L26.707,17 L24.707,17 L24.707,20 Z M14.707,8 C14.707,6.346 16.053,5 17.707,5 C19.361,5 20.707,6.346 20.707,8 L20.707,13.586 L14.707,19.586 L14.707,8 Z M20.707,20 C20.707,21.654 19.361,23 17.707,23 C16.73,23 15.87,22.524 15.322,21.799 L20.707,16.414 L20.707,20 Z"/>
</svg>
