<svg xmlns="http://www.w3.org/2000/svg" width="36" height="36" viewBox="0 0 36 36">
  <g fill-rule="evenodd">
    <polygon points="22.243 12.343 18 16.586 13.757 12.343 12.343 13.757 16.586 18 12.343 22.243 13.757 23.657 18 19.414 22.243 23.657 23.657 22.243 19.414 18 23.657 13.757"/>
    <path d="M18,31 C10.832,31 5,25.168 5,18 C5,10.832 10.832,5 18,5 C25.168,5 31,10.832 31,18 C31,25.168 25.168,31 18,31 M18,3 C9.729,3 3,9.729 3,18 C3,26.271 9.729,33 18,33 C26.271,33 33,26.271 33,18 C33,9.729 26.271,3 18,3"/>
  </g>
</svg>
