<svg xmlns="http://www.w3.org/2000/svg" width="36" height="36" viewBox="0 0 36 36">
  <g fill-rule="evenodd">
    <path d="M19.5,28 C19.5,28.828 18.828,29.5 18,29.5 C17.172,29.5 16.5,28.828 16.5,28 C16.5,27.172 17.172,26.5 18,26.5 C18.828,26.5 19.5,27.172 19.5,28 L19.5,28 Z"/>
    <path d="M12,5 C11.449,5 11,5.449 11,6 L11,30 C11,30.552 11.449,31 12,31 L24,31 C24.551,31 25,30.552 25,30 L25,6 C25,5.449 24.551,5 24,5 L12,5 Z M24,33 L12,33 C10.346,33 9,31.654 9,30 L9,6 C9,4.346 10.346,3 12,3 L24,3 C25.654,3 27,4.346 27,6 L27,30 C27,31.654 25.654,33 24,33 L24,33 Z"/>
    <polygon points="15 9 21 9 21 7 15 7"/>
  </g>
</svg>
