<svg xmlns="http://www.w3.org/2000/svg" width="36" height="36" viewBox="0 0 36 36">
  <g fill-rule="evenodd">
    <path d="M8 16C6.897 16 6 16.897 6 18 6 19.103 6.897 20 8 20 9.103 20 10 19.103 10 18 10 16.897 9.103 16 8 16M8 22C5.794 22 4 20.206 4 18 4 15.794 5.794 14 8 14 10.206 14 12 15.794 12 18 12 20.206 10.206 22 8 22M18 16C16.897 16 16 16.897 16 18 16 19.103 16.897 20 18 20 19.103 20 20 19.103 20 18 20 16.897 19.103 16 18 16M18 22C15.794 22 14 20.206 14 18 14 15.794 15.794 14 18 14 20.206 14 22 15.794 22 18 22 20.206 20.206 22 18 22M28 16C26.897 16 26 16.897 26 18 26 19.103 26.897 20 28 20 29.103 20 30 19.103 30 18 30 16.897 29.103 16 28 16M28 22C25.794 22 24 20.206 24 18 24 15.794 25.794 14 28 14 30.206 14 32 15.794 32 18 32 20.206 30.206 22 28 22"/>
  </g>
</svg>
