<svg xmlns="http://www.w3.org/2000/svg" width="36" height="36" viewBox="0 0 36 36">
  <path fill-rule="evenodd" d="M27,26 C28.103,26 29,26.897 29,28 C29,29.103 28.103,30 27,30 C25.897,30 25,29.103 25,28 C25,26.897 25.897,26 27,26 M27,6 C28.103,6 29,6.897 29,8 C29,9.103 28.103,10 27,10 C25.897,10 25,9.103 25,8 C25,6.897 25.897,6 27,6 M27,16 C28.103,16 29,16.897 29,18 C29,19.103 28.103,20 27,20 C25.897,20 25,19.103 25,18 C25,16.897 25.897,16 27,16 M8,19 L23.142,19 C23.589,20.721 25.142,22 27,22 C29.206,22 31,20.206 31,18 C31,15.794 29.206,14 27,14 C25.142,14 23.589,15.279 23.142,17 L8,17 C7.449,17 7,16.552 7,16 L7,11 L7,8.816 C7.314,8.928 7.648,9 8,9 L23.142,9 C23.589,10.721 25.142,12 27,12 C29.206,12 31,10.206 31,8 C31,5.794 29.206,4 27,4 C25.142,4 23.589,5.279 23.142,7 L8,7 C7.449,7 7,6.552 7,6 L7,5 L5,5 L5,6 L5,11 L5,16 L5,26 C5,27.654 6.346,29 8,29 L23.142,29 C23.589,30.721 25.142,32 27,32 C29.206,32 31,30.206 31,28 C31,25.794 29.206,24 27,24 C25.142,24 23.589,25.279 23.142,27 L8,27 C7.449,27 7,26.552 7,26 L7,18.816 C7.314,18.928 7.648,19 8,19"/>
</svg>
