<svg xmlns="http://www.w3.org/2000/svg" width="36" height="36" viewBox="0 0 36 36">
  <g fill-rule="evenodd">
    <path d="M15 12C15 10.346 16.346 9 18 9 19.654 9 21 10.346 21 12 21 13.654 19.654 15 18 15 16.346 15 15 13.654 15 12M23 12C23 9.243 20.757 7 18 7 15.243 7 13 9.243 13 12 13 14.414 14.721 16.434 17 16.899L17 31 13 31 13 33 17 33 19 33 23 33 23 31 19 31 19 16.899C21.279 16.434 23 14.414 23 12M9.2861 7.2861C6.6871 9.8851 6.6871 14.1151 9.2861 16.7141L10.7001 15.3001C8.8811 13.4801 8.8811 10.5191 10.7001 8.7001L9.2861 7.2861zM26.7139 7.2861L25.2999 8.7001C27.1189 10.5191 27.1189 13.4801 25.2999 15.3001L26.7139 16.7141C29.3129 14.1151 29.3129 9.8851 26.7139 7.2861"/>
    <path d="M7.6357 5.6357L6.2217 4.2217C1.9327 8.5107 1.9327 15.4897 6.2217 19.7787L7.6357 18.3647C4.1267 14.8547 4.1267 9.1447 7.6357 5.6357M29.7783 4.2217L28.3643 5.6357C31.8733 9.1447 31.8733 14.8547 28.3643 18.3647L29.7783 19.7787C34.0673 15.4897 34.0673 8.5107 29.7783 4.2217"/>
  </g>
</svg>
