<svg xmlns="http://www.w3.org/2000/svg" width="36" height="36" viewBox="0 0 36 36">
  <path fill-rule="evenodd" d="M18,15 C16.897,15 16,14.103 16,13 C16,11.897 16.897,11 18,11 C19.103,11 20,11.897 20,13 C20,14.103 19.103,15 18,15 L18,15 Z M10.847,5 L25.153,5 L26.951,15.791 L19,28.513 L19,16.858 C20.72,16.411 22,14.858 22,13 C22,10.794 20.206,9 18,9 C15.794,9 14,10.794 14,13 C14,14.858 15.28,16.411 17,16.858 L17,28.513 L9.049,15.791 L10.847,5 Z M26.847,3 L9.153,3 L6.951,16.209 L18,33.887 L29.049,16.209 L26.847,3 Z"/>
</svg>
