<svg xmlns="http://www.w3.org/2000/svg" width="36" height="36" viewBox="0 0 36 36">
  <g fill-rule="evenodd">
    <path d="M30 31C29.449 31 29 30.551 29 30.001 29.008 29.695 29.424 28.824 30 27.854 30.576 28.823 30.992 29.694 31 30 31 30.551 30.551 31 30 31L30 31zM30 24.24L29.177 25.432C28.522 26.379 27 28.722 27 30 27 31.654 28.346 33 30 33 31.654 33 33 31.654 33 30 33 28.722 31.478 26.379 30.823 25.432L30 24.24zM23.1214 21L5.8794 21 5.4394 20.56C5.1564 20.277 5.0004 19.9 5.0004 19.5 5.0004 19.1 5.1564 18.723 5.4394 18.439L16.7324 7.146 28.5874 19.002 25.1164 19.005 23.1214 21zM15.5604 28.561C14.9944 29.127 14.0054 29.127 13.4394 28.561L7.8794 23 21.1214 23 15.5604 28.561zM8.4644 6.464C10.2514 4.678 13.0544 4.549 15.0134 6.038L8.0374 13.013C6.5494 11.054 6.6774 8.251 8.4644 6.464L8.4644 6.464zM33.4124 20.998L16.7324 4.318 16.4514 4.6C13.7034 2.332 9.6194 2.481 7.0504 5.05 4.4814 7.619 4.3324 11.704 6.5994 14.451L4.0254 17.025C3.3644 17.686 3.0004 18.565 3.0004 19.5 3.0004 20.435 3.3644 21.314 4.0254 21.975L5.0004 22.949 5.0004 23 5.0504 23 12.0254 29.975C12.6864 30.636 13.5654 31 14.5004 31 15.4354 31 16.3144 30.636 16.9744 29.975L23.9494 23 24.0004 23 24.0004 22.95 25.9454 21.004 33.4124 20.998z"/>
  </g>
</svg>
