<svg xmlns="http://www.w3.org/2000/svg" width="36" height="36" viewBox="0 0 36 36">
  <path fill-rule="evenodd" d="M27.2266,11.8125 L24.3986,8.9845 L26.3836,6.9985 L29.2116,9.8275 L27.2266,11.8125 Z M21.3986,11.9845 L22.9846,10.3985 L25.8126,13.2265 L24.2266,14.8125 L21.3986,11.9845 Z M10.3986,22.9845 L19.9846,13.3985 L22.8126,16.2265 L13.2266,25.8125 L10.3986,22.9845 Z M8.0646,27.0645 L8.9766,24.4065 L8.9846,24.3985 L11.8086,27.2225 L9.0466,28.0475 L8.0646,27.0645 Z M30.6256,8.4135 L27.7976,5.5835 C27.0416,4.8285 25.7246,4.8285 24.9696,5.5845 L7.2346,23.3195 L4.4236,31.5145 L12.8766,28.9915 L30.6256,11.2415 C31.4056,10.4615 31.4056,9.1925 30.6256,8.4135 L30.6256,8.4135 Z"/>
</svg>
