<svg xmlns="http://www.w3.org/2000/svg" width="36" height="36" viewBox="0 0 36 36">
  <g fill-rule="evenodd">
    <polygon points="15.964 23.415 11.257 18.707 12.671 17.294 15.964 20.587 23.257 13.293 24.671 14.707"/>
    <path d="M18.9434,5.0346 C18.1684,4.9846 17.6254,4.9896 17.0144,5.0326 L16.8744,3.0386 C17.5764,2.9886 18.2934,2.9856 19.0104,3.0376 L18.9434,5.0346 Z M22.4914,5.8096 C21.9144,5.5966 21.3154,5.4216 20.7114,5.2916 L21.1314,3.3366 C21.8284,3.4856 22.5204,3.6876 23.1864,3.9346 L22.4914,5.8096 Z M13.4014,5.8226 L12.7004,3.9496 C13.3644,3.7006 14.0544,3.4966 14.7524,3.3436 L15.1814,5.2966 C14.5764,5.4306 13.9774,5.6066 13.4014,5.8226 L13.4014,5.8226 Z M25.7414,7.5816 C25.2464,7.2106 24.7204,6.8736 24.1804,6.5786 L25.1374,4.8226 C25.7614,5.1626 26.3684,5.5526 26.9404,5.9796 L25.7414,7.5816 Z M10.1594,7.6036 L8.9584,6.0046 C9.5294,5.5756 10.1344,5.1846 10.7564,4.8446 L11.7174,6.5976 C11.1784,6.8926 10.6544,7.2316 10.1594,7.6036 L10.1594,7.6036 Z M28.3614,10.1966 C27.9914,9.7036 27.5824,9.2316 27.1454,8.7966 L28.5574,7.3806 C29.0624,7.8836 29.5344,8.4276 29.9614,8.9976 L28.3614,10.1966 Z M7.5444,10.2226 L5.9424,9.0256 C6.3684,8.4566 6.8394,7.9116 7.3424,7.4076 L8.7584,8.8196 C8.3224,9.2586 7.9134,9.7296 7.5444,10.2226 L7.5444,10.2226 Z M30.1404,13.4396 C29.9254,12.8656 29.6654,12.2996 29.3674,11.7566 L31.1214,10.7936 C31.4644,11.4206 31.7654,12.0746 32.0134,12.7386 L30.1404,13.4396 Z M5.7734,13.4726 L3.8984,12.7776 C4.1454,12.1106 4.4444,11.4546 4.7864,10.8276 L6.5424,11.7846 C6.2464,12.3276 5.9874,12.8946 5.7734,13.4726 L5.7734,13.4726 Z M30.9334,17.0566 C30.8874,16.4336 30.7974,15.8156 30.6684,15.2186 L32.6214,14.7926 C32.7714,15.4806 32.8754,16.1936 32.9274,16.9086 L30.9334,17.0566 Z M4.9964,17.0916 L3.0004,16.9526 C3.0494,16.2436 3.1504,15.5316 3.2994,14.8346 L5.2554,15.2546 C5.1264,15.8576 5.0384,16.4756 4.9964,17.0916 L4.9964,17.0916 Z M32.6284,21.1656 L30.6724,20.7436 C30.8014,20.1466 30.8884,19.5286 30.9314,18.9076 L32.9274,19.0466 C32.8784,19.7626 32.7764,20.4746 32.6284,21.1656 L32.6284,21.1656 Z M3.3064,21.2106 C3.1544,20.5136 3.0504,19.8026 3.0004,19.0926 L4.9944,18.9476 C5.0394,19.5626 5.1294,20.1806 5.2594,20.7846 L3.3064,21.2106 Z M31.1444,25.1706 L29.3864,24.2176 C29.6834,23.6706 29.9424,23.1006 30.1554,22.5256 L32.0304,23.2216 C31.7844,23.8856 31.4864,24.5406 31.1444,25.1706 L31.1444,25.1706 Z M4.8064,25.2106 C4.4634,24.5836 4.1624,23.9296 3.9144,23.2646 L5.7874,22.5636 C6.0024,23.1386 6.2624,23.7046 6.5604,24.2476 L4.8064,25.2106 Z M28.5874,28.5916 L27.1714,27.1796 C27.6074,26.7406 28.0164,26.2686 28.3854,25.7756 L29.9874,26.9726 C29.5614,27.5426 29.0894,28.0876 28.5874,28.5916 L28.5874,28.5916 Z M7.3714,28.6216 C6.8644,28.1156 6.3914,27.5716 5.9664,27.0046 L7.5664,25.8056 C7.9344,26.2966 8.3434,26.7666 8.7834,27.2056 L7.3714,28.6216 Z M25.1714,31.1566 L24.2104,29.4026 C24.7494,29.1076 25.2734,28.7686 25.7684,28.3966 L26.9694,29.9966 C26.3984,30.4256 25.7934,30.8156 25.1714,31.1566 L25.1714,31.1566 Z M10.7924,31.1806 C10.1684,30.8406 9.5614,30.4506 8.9894,30.0226 L10.1884,28.4216 C10.6834,28.7926 11.2094,29.1296 11.7494,29.4246 L10.7924,31.1806 Z M21.1764,32.6556 L20.7474,30.7026 C21.3524,30.5686 21.9514,30.3916 22.5274,30.1766 L23.2284,32.0496 C22.5644,32.2986 21.8744,32.5026 21.1764,32.6556 L21.1764,32.6556 Z M14.7984,32.6646 C14.1034,32.5146 13.4124,32.3136 12.7444,32.0666 L13.4374,30.1916 C14.0164,30.4056 14.6164,30.5796 15.2184,30.7096 L14.7984,32.6646 Z M18.0164,33.0016 C17.6544,33.0046 17.2864,32.9896 16.9174,32.9636 L17.0574,30.9696 C17.3794,30.9916 17.6994,31.0076 18.0134,31.0016 C18.3174,31.0016 18.6164,30.9906 18.9124,30.9696 L19.0584,32.9636 C18.7144,32.9886 18.3674,33.0016 18.0164,33.0016 L18.0164,33.0016 Z"/>
  </g>
</svg>
