<svg xmlns="http://www.w3.org/2000/svg" width="36" height="36" viewBox="0 0 36 36">
  <g fill-rule="evenodd">
    <path d="M18.5,30 C12.159,30 7,24.841 7,18.5 C7,12.159 12.159,7 18.5,7 C24.841,7 30,12.159 30,18.5 C30,24.841 24.841,30 18.5,30 M18.5,4 C10.505,4 4,10.505 4,18.5 C4,26.495 10.505,33 18.5,33 C26.495,33 33,26.495 33,18.5 C33,10.505 26.495,4 18.5,4"/>
    <path d="M16.5 15.5C18.157 15.5 19.5 14.157 19.5 12.5 19.5 10.843 18.157 9.5 16.5 9.5 14.843 9.5 13.5 10.843 13.5 12.5 13.5 14.157 14.843 15.5 16.5 15.5M16.5 21.5C14.843 21.5 13.5 22.843 13.5 24.5 13.5 26.157 14.843 27.5 16.5 27.5 18.157 27.5 19.5 26.157 19.5 24.5 19.5 22.843 18.157 21.5 16.5 21.5M22.5 15.5C20.843 15.5 19.5 16.843 19.5 18.5 19.5 20.157 20.843 21.5 22.5 21.5 24.157 21.5 25.5 20.157 25.5 18.5 25.5 16.843 24.157 15.5 22.5 15.5"/>
  </g>
</svg>
