<svg xmlns="http://www.w3.org/2000/svg" width="36" height="36" viewBox="0 0 36 36">
  <g fill-rule="evenodd">
    <path d="M31,26 C31,26.552 30.551,27 30,27 L6,27 C5.449,27 5,26.552 5,26 L5,11 C5,10.448 5.449,10 6,10 L30,10 C30.551,10 31,10.448 31,11 L31,26 Z M30,8 L28.2,8 L16.385,3.077 L15.615,4.923 L23,8 L6,8 C4.346,8 3,9.346 3,11 L3,26 C3,27.654 4.346,29 6,29 L30,29 C31.654,29 33,27.654 33,26 L33,11 C33,9.346 31.654,8 30,8 L30,8 Z"/>
    <path d="M22,23 C19.794,23 18,21.206 18,19 C18,16.794 19.794,15 22,15 C24.206,15 26,16.794 26,19 C26,21.206 24.206,23 22,23 M22,13 C18.691,13 16,15.691 16,19 C16,22.309 18.691,25 22,25 C25.309,25 28,22.309 28,19 C28,15.691 25.309,13 22,13"/>
    <polygon points="9 16 13 16 13 14 9 14"/>
    <polygon points="9 20 13 20 13 18 9 18"/>
    <polygon points="9 24 13 24 13 22 9 22"/>
  </g>
</svg>
