<svg xmlns="http://www.w3.org/2000/svg" width="36" height="36" viewBox="0 0 36 36">
  <path fill-rule="evenodd" d="M16.125,7.1523 L15.793,5.1793 C16.494,5.0623 17.214,5.0013 17.932,5.0003 L17.936,7.0003 C17.327,7.0013 16.718,7.0523 16.125,7.1523 L16.125,7.1523 Z M21.506,7.5853 C20.935,7.3903 20.343,7.2423 19.746,7.1453 L20.068,5.1713 C20.774,5.2863 21.475,5.4623 22.15,5.6923 L21.506,7.5853 Z M12.706,8.3333 L11.751,6.5763 C12.379,6.2343 13.039,5.9433 13.714,5.7103 L14.366,7.6003 C13.797,7.7973 13.238,8.0443 12.706,8.3333 L12.706,8.3333 Z M24.694,9.3033 C24.214,8.9313 23.701,8.5973 23.171,8.3113 L24.12,6.5503 C24.747,6.8893 25.353,7.2833 25.919,7.7223 L24.694,9.3033 Z M9.854,10.5633 L8.382,9.2093 C8.866,8.6823 9.396,8.1933 9.957,7.7543 L11.189,9.3293 C10.714,9.7013 10.265,10.1163 9.854,10.5633 L9.854,10.5633 Z M27.152,11.9603 C26.82,11.4563 26.443,10.9753 26.031,10.5293 L27.5,9.1713 C27.986,9.6963 28.432,10.2653 28.822,10.8603 L27.152,11.9603 Z M7.876,13.5943 L6.044,12.7923 C6.331,12.1373 6.674,11.5023 7.065,10.9033 L8.739,11.9973 C8.409,12.5033 8.118,13.0403 7.876,13.5943 L7.876,13.5943 Z M28.616,15.2663 C28.467,14.6813 28.267,14.1053 28.022,13.5523 L29.851,12.7423 C30.141,13.3963 30.377,14.0793 30.554,14.7713 L28.616,15.2663 Z M6.994,17.1033 L5,16.9433 C5.058,16.2283 5.175,15.5153 5.349,14.8243 L7.288,15.3123 C7.142,15.8963 7.042,16.4983 6.994,17.1033 L6.994,17.1033 Z M30.917,19.0333 L28.923,18.8723 C28.946,18.5843 28.958,18.2943 28.958,18.0003 C28.957,17.6833 28.943,17.3673 28.918,17.0553 L30.91,16.8883 C30.941,17.2543 30.957,17.6233 30.958,17.9973 C30.958,18.3473 30.944,18.6923 30.917,19.0333 L30.917,19.0333 Z M5.354,21.2023 C5.18,20.5113 5.061,19.7993 5.002,19.0873 L6.994,18.9213 C7.045,19.5243 7.146,20.1263 7.294,20.7123 L5.354,21.2023 Z M29.884,23.1833 L28.05,22.3853 C28.291,21.8313 28.487,21.2533 28.633,20.6673 L30.574,21.1493 C30.401,21.8423 30.169,22.5273 29.884,23.1833 L29.884,23.1833 Z M7.078,25.1183 C6.687,24.5213 6.344,23.8873 6.055,23.2343 L7.885,22.4263 C8.129,22.9803 8.421,23.5173 8.752,24.0223 L7.078,25.1183 Z M27.553,26.7713 L26.076,25.4233 C26.486,24.9733 26.86,24.4893 27.189,23.9853 L28.865,25.0743 C28.478,25.6713 28.036,26.2423 27.553,26.7713 L27.553,26.7713 Z M9.976,28.2623 C9.414,27.8243 8.883,27.3363 8.397,26.8103 L9.866,25.4543 C10.278,25.9003 10.729,26.3133 11.204,26.6843 L9.976,28.2623 Z M24.191,29.4113 L23.23,27.6573 C23.761,27.3673 24.271,27.0303 24.746,26.6573 L25.98,28.2303 C25.419,28.6713 24.817,29.0693 24.191,29.4113 L24.191,29.4113 Z M13.738,30.2993 C13.063,30.0683 12.402,29.7773 11.772,29.4373 L12.726,27.6783 C13.258,27.9663 13.817,28.2123 14.389,28.4083 L13.738,30.2993 Z M20.147,30.8163 L19.815,28.8443 C20.408,28.7443 20.999,28.5923 21.572,28.3933 L22.229,30.2823 C21.551,30.5183 20.851,30.6973 20.147,30.8163 L20.147,30.8163 Z M17.979,31.0003 C17.236,31.0003 16.52,30.9413 15.821,30.8253 L16.147,28.8523 C16.741,28.9503 17.351,29.0003 17.958,29.0003 L17.997,30.5253 L17.985,31.0003 L17.979,31.0003 Z"/>
</svg>
