<svg xmlns="http://www.w3.org/2000/svg" width="36" height="36" viewBox="0 0 36 36">
  <g fill-rule="evenodd">
    <path d="M25.4521,21.6943 L28.6441,25.0003 L26.4341,25.0003 C24.0041,25.0003 21.7851,23.7703 20.4981,21.7103 L15.1981,13.2293 C13.5421,10.5813 10.6891,9.0003 7.5661,9.0003 L3.0001,9.0003 L3.0001,11.0003 L7.5661,11.0003 C9.9951,11.0003 12.2141,12.2293 13.5021,14.2903 L18.8021,22.7703 C20.4571,25.4193 23.3101,27.0003 26.4341,27.0003 L28.6441,27.0003 L25.4521,30.3053 L26.8901,31.6943 L32.3901,26.0003 L26.8901,20.3053 L25.4521,21.6943 Z"/>
    <path d="M20.498 14.29C21.786 12.229 24.004 11 26.434 11L28.644 11 25.452 14.306 26.891 15.694 32.39 10 26.891 4.306 25.452 5.694 28.644 9 26.434 9C23.311 9 20.457 10.581 18.802 13.229L17.839 14.769 19.536 15.83 20.498 14.29zM13.502 21.71C12.214 23.771 9.996 25 7.566 25L3 25 3 27 7.566 27C10.689 27 13.543 25.419 15.198 22.771L16.161 21.231 14.464 20.17 13.502 21.71z"/>
  </g>
</svg>
