<svg xmlns="http://www.w3.org/2000/svg" width="36" height="36" viewBox="0 0 36 36">
  <path fill-rule="evenodd" d="M25.3427,28.7177 L24.3667,27.0267 L22.6337,28.0267 L23.6067,29.7107 C22.1917,30.3907 20.6407,30.8237 18.9997,30.9497 L18.9997,28.9997 L16.9997,28.9997 L16.9997,30.9497 C15.3597,30.8237 13.8087,30.3907 12.3937,29.7107 L13.3667,28.0267 L11.6337,27.0267 L10.6577,28.7177 C9.3357,27.8097 8.1907,26.6647 7.2827,25.3427 L8.9737,24.3667 L7.9737,22.6337 L6.2887,23.6067 C5.6087,22.1917 5.1767,20.6407 5.0507,18.9997 L6.9997,18.9997 L6.9997,16.9997 L5.0507,16.9997 C5.1767,15.3597 5.6087,13.8087 6.2887,12.3937 L7.9737,13.3667 L8.9737,11.6337 L7.2827,10.6577 C8.1907,9.3357 9.3357,8.1907 10.6577,7.2827 L18.9997,21.7317 L18.9997,5.0507 C20.6407,5.1767 22.1917,5.6087 23.6067,6.2887 L22.6337,7.9737 L24.3667,8.9737 L25.3427,7.2827 C26.6647,8.1907 27.8097,9.3357 28.7177,10.6577 L27.0267,11.6337 L28.0267,13.3667 L29.7107,12.3937 C30.3907,13.8087 30.8237,15.3597 30.9497,16.9997 L28.9997,16.9997 L28.9997,18.9997 L30.9497,18.9997 C30.8237,20.6407 30.3907,22.1917 29.7107,23.6067 L28.0267,22.6337 L27.0267,24.3667 L28.7177,25.3427 C27.8097,26.6647 26.6647,27.8097 25.3427,28.7177 M16.9997,5.0507 L16.9997,14.2677 L12.3937,6.2887 C13.8087,5.6087 15.3597,5.1767 16.9997,5.0507 M17.9997,2.9997 C9.7287,2.9997 2.9997,9.7287 2.9997,17.9997 C2.9997,26.2707 9.7287,32.9997 17.9997,32.9997 C26.2707,32.9997 32.9997,26.2707 32.9997,17.9997 C32.9997,9.7287 26.2707,2.9997 17.9997,2.9997"/>
</svg>
