<svg xmlns="http://www.w3.org/2000/svg" width="36" height="36" viewBox="0 0 36 36">
  <path fill-rule="evenodd" d="M20,15 L29,15 L29,6 L27,6 L27,11.686 C24.105,7.561 18.633,5.83 13.79,7.837 C8.187,10.158 5.516,16.605 7.837,22.209 C9.59,26.441 13.696,29 18.015,29 C19.415,29 20.838,28.731 22.21,28.163 C24.925,27.038 27.039,24.923 28.162,22.209 L26.314,21.444 C25.396,23.665 23.666,25.395 21.444,26.315 C16.862,28.215 11.584,26.028 9.685,21.444 C8.765,19.223 8.765,16.776 9.685,14.556 C10.604,12.334 12.335,10.605 14.556,9.685 C18.584,8.017 23.145,9.504 25.481,13 L20,13 L20,15 Z"/>
</svg>
