<svg xmlns="http://www.w3.org/2000/svg" width="36" height="36" viewBox="0 0 36 36">
  <g fill-rule="evenodd">
    <path d="M13 23L17 23 17 19 13 19 13 23zM19 29L23 29 23 25 19 25 19 29zM13 29L17 29 17 25 13 25 13 29zM7 29L11 29 11 25 7 25 7 29zM7 23L11 23 11 19 7 19 7 23zM7 17L11 17 11 13 7 13 7 17zM19 17L13 17 13 11 5 11 5 17 5 19 5 23 5 25 5 31 11 31 13 31 17 31 19 31 25 31 25 23 19 23 19 17zM22.2573 8.0853L17.7573 3.5863 12.1013 9.2423 17.7573 14.8993 22.2573 10.3993 25.6013 13.7423 21.1013 18.2423 26.7573 23.8993 32.4143 18.2423 27.9143 13.7423 32.4143 9.2423 26.7573 3.5863 22.2573 8.0853zM23.9283 9.2423L26.7573 6.4143 29.5863 9.2423 26.7573 12.0713 23.9283 9.2423zM14.9283 9.2423L17.7573 6.4143 20.5863 9.2423 17.7573 12.0713 14.9283 9.2423zM23.9283 18.2423L26.7573 15.4143 29.5863 18.2423 26.7573 21.0713 23.9283 18.2423z"/>
  </g>
</svg>
