<svg xmlns="http://www.w3.org/2000/svg" width="36" height="36" viewBox="0 0 36 36">
  <g fill-rule="evenodd">
    <path d="M16 13L10.651 13C13.015 9.609 17.501 8.185 21.473 9.831 23.651 10.733 25.364 12.427 26.296 14.601L28.134 13.813C26.995 11.157 24.901 9.086 22.239 7.983 17.377 5.97 11.887 7.717 9 11.871L9 6 7 6 7 15 16 15 16 13zM20 21L20 23 25.599 23C23.292 26.598 18.667 28.151 14.585 26.461 12.364 25.541 10.634 23.812 9.714 21.59L7.867 22.356C8.991 25.07 11.104 27.185 13.819 28.309 15.191 28.877 16.613 29.146 18.014 29.146 21.538 29.146 24.92 27.439 27 24.509L27 30 29 30 29 21 20 21z"/>
  </g>
</svg>
