<svg xmlns="http://www.w3.org/2000/svg" width="36" height="36" viewBox="0 0 36 36">
  <g fill-rule="evenodd">
    <path d="M15.8906 15.6943L21.3906 10.0003 15.8906 4.3053 14.4526 5.6943 17.6446 9.0003 11.9996 9.0003C7.0376 9.0003 2.9996 13.0373 2.9996 18.0003 2.9996 22.9633 7.0376 27.0003 11.9996 27.0003L11.9996 25.0003C8.1406 25.0003 4.9996 21.8593 4.9996 18.0003 4.9996 14.1403 8.1406 11.0003 11.9996 11.0003L17.6446 11.0003 14.4526 14.3053 15.8906 15.6943zM24 9L24 11C27.86 11 31 14.141 31 18 31 21.859 27.86 25 24 25L18.527 25 21.719 21.694 20.281 20.306 14.781 26 20.281 31.694 21.719 30.306 18.527 27 24 27C28.962 27 33 22.963 33 18 33 13.037 28.962 9 24 9"/>
  </g>
</svg>
