<svg xmlns="http://www.w3.org/2000/svg" width="36" height="36" viewBox="0 0 36 36">
  <g fill-rule="evenodd">
    <path d="M30 9L23 9 23 16 25 16 25 12.36C26.285 13.942 27 15.908 27 18 27 22.962 22.962 27 18 27 17.397 27 16.791 26.939 16.198 26.819L15.802 28.779C16.524 28.926 17.264 29 18 29 24.065 29 29 24.065 29 18 29 15.397 28.102 12.949 26.479 11L30 11 30 9zM11 23.6395C9.715 22.0585 9 20.0915 9 17.9995 9 13.0375 13.038 8.9995 18 8.9995 18.603 8.9995 19.209 9.0615 19.802 9.1805L20.198 7.2205C19.476 7.0745 18.736 6.9995 18 6.9995 11.935 6.9995 7 11.9345 7 17.9995 7 20.6035 7.898 23.0515 9.521 24.9995L6 24.9995 6 26.9995 13 26.9995 13 19.9995 11 19.9995 11 23.6395z"/>
  </g>
</svg>
