<svg xmlns="http://www.w3.org/2000/svg" width="36" height="36" viewBox="0 0 36 36">
  <path fill-rule="evenodd" d="M22.21,7.8374 C17.365,5.8304 11.895,7.5604 9,11.6864 L9,6.0004 L7,6.0004 L7,15.0004 L16,15.0004 L16,13.0004 L10.519,13.0004 C12.856,9.5034 17.417,8.0164 21.444,9.6854 C23.665,10.6054 25.396,12.3344 26.315,14.5554 C27.235,16.7764 27.235,19.2234 26.315,21.4434 C24.416,26.0284 19.141,28.2144 14.556,26.3154 C12.334,25.3944 10.605,23.6654 9.686,21.4444 L7.838,22.2094 C8.961,24.9234 11.075,27.0384 13.79,28.1624 C15.162,28.7314 16.585,29.0004 17.985,29.0004 C22.304,29.0004 26.41,26.4404 28.163,22.2094 C30.484,16.6054 27.814,10.1584 22.21,7.8374"/>
</svg>
