<svg xmlns="http://www.w3.org/2000/svg" width="36" height="36" viewBox="0 0 36 36">
  <g fill-rule="evenodd">
    <path d="M19.3115,17.8975 L8.7045,28.5035 C8.3275,28.8825 7.6685,28.8825 7.2905,28.5035 C7.1015,28.3145 6.9975,28.0635 6.9975,27.7965 C6.9975,27.5295 7.1015,27.2795 7.2905,27.0895 L17.8965,16.4825 L18.6045,17.1895 L19.3115,17.8975 Z M15.7755,10.1195 L18.6035,7.2905 C18.7905,7.1035 19.0425,7.0005 19.3115,7.0005 C19.5805,7.0005 19.8315,7.1035 20.0185,7.2905 L20.6575,7.9285 L16.4145,12.1715 L15.7765,11.5335 C15.3865,11.1435 15.3865,10.5085 15.7755,10.1195 L15.7755,10.1195 Z M28.5035,17.1905 L25.6755,20.0185 C25.3015,20.3915 24.6345,20.3915 24.2605,20.0185 L23.8285,19.5855 L28.0715,15.3435 L28.5035,15.7755 C28.8935,16.1655 28.8935,16.8005 28.5035,17.1905 L28.5035,17.1905 Z M17.8285,13.5855 L22.0715,9.3425 L26.6575,13.9285 L22.4145,18.1715 L17.8285,13.5855 Z M22.8465,21.4325 C23.4125,21.9985 24.1655,22.3085 24.9685,22.3085 C25.7705,22.3085 26.5235,21.9985 27.0895,21.4325 L29.9185,18.6045 C31.0875,17.4345 31.0875,15.5315 29.9175,14.3615 L21.4325,5.8765 C20.3025,4.7465 18.3215,4.7455 17.1895,5.8765 L14.3615,8.7055 C13.1925,9.8745 13.1915,11.7775 14.3615,12.9475 L16.4825,15.0685 L5.8765,25.6745 C5.3105,26.2415 4.9975,26.9955 4.9975,27.7965 C4.9975,28.5975 5.3095,29.3515 5.8755,29.9185 C6.4425,30.4845 7.1965,30.7965 7.9975,30.7965 C8.7985,30.7965 9.5525,30.4845 10.1185,29.9185 L20.7255,19.3115 L22.8465,21.4325 Z"/>
    <polygon points="19 31 31 31 31 29 19 29"/>
    <polygon points="21 27 29 27 29 25 21 25"/>
  </g>
</svg>
