<svg xmlns="http://www.w3.org/2000/svg" width="36" height="36" viewBox="0 0 36 36">
  <g fill-rule="evenodd">
    <path d="M18,5 C10.832,5 5,10.832 5,18 C5,25.168 10.832,31 18,31 C25.168,31 31,25.168 31,18 C31,10.832 25.168,5 18,5 M18,33 C9.729,33 3,26.271 3,18 C3,9.729 9.729,3 18,3 C26.271,3 33,9.729 33,18 C33,26.271 26.271,33 18,33"/>
    <path d="M13.5 14C13.5 14.828 12.828 15.5 12 15.5 11.172 15.5 10.5 14.828 10.5 14 10.5 13.172 11.172 12.5 12 12.5 12.828 12.5 13.5 13.172 13.5 14M25.5 14C25.5 14.828 24.828 15.5 24 15.5 23.172 15.5 22.5 14.828 22.5 14 22.5 13.172 23.172 12.5 24 12.5 24.828 12.5 25.5 13.172 25.5 14M18 27.0049C16.833 27.0049 15.667 26.7749 14.556 26.3149 12.335 25.3949 10.605 23.6649 9.685 21.4439L11.533 20.6789C12.249 22.4059 13.594 23.7519 15.321 24.4669 18.89 25.9459 22.99 24.2449 24.467 20.6789L26.315 21.4439C25.395 23.6649 23.665 25.3949 21.444 26.3149 20.334 26.7749 19.167 27.0049 18 27.0049"/>
  </g>
</svg>
