<svg xmlns="http://www.w3.org/2000/svg" width="36" height="36" viewBox="0 0 36 36">
  <path fill-rule="evenodd" d="M29,28 C29,28.552 28.552,29 28,29 L27,29 L27,19 L9,19 L9,29 L8,29 C7.448,29 7,28.552 7,28 L7,8 C7,7.448 7.448,7 8,7 L11,7 L11,15 L25,15 L25,7.414 L29,11.414 L29,28 Z M11,29 L25,29 L25,21 L11,21 L11,29 Z M17,7 L17,12 L21,12 L21,7 L23,7 L23,13 L13,13 L13,7 L17,7 Z M25.414,5 L25,5 L21,5 L17,5 L11,5 L8,5 C6.346,5 5,6.346 5,8 L5,28 C5,29.654 6.346,31 8,31 L9,31 L27,31 L28,31 C29.654,31 31,29.654 31,28 L31,10.586 L25.414,5 Z"/>
</svg>
