<svg xmlns="http://www.w3.org/2000/svg" width="36" height="36" viewBox="0 0 36 36">
  <g fill-rule="evenodd">
    <path d="M10 20C8.897 20 8 19.103 8 18 8 16.897 8.897 16 10 16 11.103 16 12 16.897 12 18 12 19.103 11.103 20 10 20M11 14.142L11 5 9 5 9 14.142C7.28 14.589 6 16.141 6 18 6 19.859 7.28 21.411 9 21.858L9 31 11 31 11 21.858C12.72 21.411 14 19.859 14 18 14 16.141 12.72 14.589 11 14.142M18 14C16.897 14 16 13.103 16 12 16 10.897 16.897 10 18 10 19.103 10 20 10.897 20 12 20 13.103 19.103 14 18 14M22 12C22 10.141 20.72 8.589 19 8.142L19 5 17 5 17 8.142C15.28 8.589 14 10.141 14 12 14 13.859 15.28 15.411 17 15.858L17 31 19 31 19 15.858C20.72 15.411 22 13.859 22 12M26 26C24.897 26 24 25.103 24 24 24 22.897 24.897 22 26 22 27.103 22 28 22.897 28 24 28 25.103 27.103 26 26 26M30 24C30 22.141 28.72 20.589 27 20.142L27 5 25 5 25 20.142C23.28 20.589 22 22.141 22 24 22 25.859 23.28 27.411 25 27.858L25 31 27 31 27 27.858C28.72 27.411 30 25.859 30 24"/>
  </g>
</svg>
