<svg xmlns="http://www.w3.org/2000/svg" width="36" height="36" viewBox="0 0 36 36">
  <path fill-rule="evenodd" d="M26,29 C24.346,29 23,27.654 23,26 C23,24.346 24.346,23 26,23 C27.654,23 29,24.346 29,26 C29,27.654 27.654,29 26,29 M10,21 C8.346,21 7,19.654 7,18 C7,16.346 8.346,15 10,15 C11.654,15 13,16.346 13,18 C13,19.654 11.654,21 10,21 M26,7 C27.654,7 29,8.346 29,10 C29,11.654 27.654,13 26,13 C24.346,13 23,11.654 23,10 C23,8.346 24.346,7 26,7 M26,21 C24.408,21 23.003,21.762 22.087,22.925 L14.811,19.287 C14.922,18.874 15,18.448 15,18 C15,17.552 14.922,17.126 14.811,16.713 L22.087,13.075 C23.003,14.238 24.408,15 26,15 C28.757,15 31,12.757 31,10 C31,7.243 28.757,5 26,5 C23.243,5 21,7.243 21,10 C21,10.448 21.078,10.874 21.189,11.287 L13.913,14.925 C12.997,13.762 11.592,13 10,13 C7.243,13 5,15.243 5,18 C5,20.757 7.243,23 10,23 C11.592,23 12.997,22.238 13.913,21.075 L21.189,24.713 C21.078,25.126 21,25.552 21,26 C21,28.757 23.243,31 26,31 C28.757,31 31,28.757 31,26 C31,23.243 28.757,21 26,21"/>
</svg>
