<svg xmlns="http://www.w3.org/2000/svg" width="36" height="36" viewBox="0 0 36 36">
  <g fill-rule="evenodd">
    <path d="M18.0474,16.5 C17.2194,16.5 16.5474,17.172 16.5474,18 C16.5474,18.828 17.2194,19.5 18.0474,19.5 C18.8754,19.5 19.5474,18.828 19.5474,18 C19.5474,17.172 18.8754,16.5 18.0474,16.5"/>
    <path d="M18.0474,23 C15.2904,23 13.0474,20.757 13.0474,18 C13.0474,15.243 15.2904,13 18.0474,13 C20.8044,13 23.0474,15.243 23.0474,18 C23.0474,20.757 20.8044,23 18.0474,23 M18.0474,11 C14.1874,11 11.0474,14.141 11.0474,18 C11.0474,21.859 14.1874,25 18.0474,25 C21.9074,25 25.0474,21.859 25.0474,18 C25.0474,14.141 21.9074,11 18.0474,11"/>
    <path d="M18.0474,27 C12.1774,27 6.8994,23.314 5.0984,18 C6.8994,12.686 12.1774,9 18.0474,9 C23.9174,9 29.1954,12.686 30.9964,18 C29.1954,23.314 23.9174,27 18.0474,27 L18.0474,27 Z M33.0024,17.703 C31.0434,11.401 24.8934,7 18.0474,7 C11.2014,7 5.0514,11.401 3.0924,17.703 L3.0004,18 L3.0924,18.297 C5.0514,24.599 11.2014,29 18.0474,29 C24.8934,29 31.0434,24.599 33.0024,18.297 L33.0944,18 L33.0024,17.703 Z"/>
  </g>
</svg>
