<svg xmlns="http://www.w3.org/2000/svg" width="36" height="36" viewBox="0 0 36 36">
  <g fill-rule="evenodd">
    <path d="M17,6.999 L17,5 L19,5 L19,6.999 L33,6.999 L33,24.999 L3,24.999 L3,6.999 L17,6.999 Z M14.5500002,25 L21.4500008,25 L24.707,28.293 L23.293,29.707 L19,25.414 L19,30 L17,30 L17,25.414 L12.707,29.707 L11.293,28.293 L14.5500002,25 Z M5,23 L31,23 L31,9 L5,9 L5,23 Z"/>
    <polygon points="19 13 25 13 25 11 19 11"/>
    <polygon points="19 17 29 17 29 15 19 15"/>
    <polygon points="19 21 29 21 29 19 19 19"/>
    <path d="M7,21 L17,21 L17,11 L7,11 L7,21 Z M9,19.001 L15.001,19.001 L15.001,13 L9,13 L9,19.001 Z"/>
  </g>
</svg>
