<svg xmlns="http://www.w3.org/2000/svg" width="36" height="36" viewBox="0 0 36 36">
  <g fill-rule="evenodd">
    <path d="M7,28.4 L29,28.4 L29,7.6 L7,7.6 L7,28.4 Z M5,31 L31,31 L31,5 L5,5 L5,31 Z"/>
    <polygon points="15.012 13.037 18.781 19.633 21.917 16.497 25.219 20.625 26.781 19.375 22.083 13.503 19.219 16.367 14.988 8.963 9.126 19.515 10.874 20.485"/>
    <path d="M19.5 25C19.5 25.828 18.828 26.5 18 26.5 17.172 26.5 16.5 25.828 16.5 25 16.5 24.172 17.172 23.5 18 23.5 18.828 23.5 19.5 24.172 19.5 25L19.5 25zM23.5 25C23.5 25.828 22.828 26.5 22 26.5 21.172 26.5 20.5 25.828 20.5 25 20.5 24.172 21.172 23.5 22 23.5 22.828 23.5 23.5 24.172 23.5 25L23.5 25zM15.5 25C15.5 25.828 14.828 26.5 14 26.5 13.172 26.5 12.5 25.828 12.5 25 12.5 24.172 13.172 23.5 14 23.5 14.828 23.5 15.5 24.172 15.5 25L15.5 25z"/>
  </g>
</svg>
