<svg xmlns="http://www.w3.org/2000/svg" width="36" height="36" viewBox="0 0 36 36">
  <path fill-rule="evenodd" d="M2.9996,7.0003 L2.9996,29.0003 L33.0006,29.0003 L33.0006,15.5863 L24.4136,7.0003 L2.9996,7.0003 Z M5.0006,9.0003 L23.0006,9.0003 L23.0006,17.0003 L31.0006,17.0003 L31.0006,27.0003 L5.0006,27.0003 L5.0006,9.0003 Z M27,21 L27,23 L29,23 L29,25 L7,25 L7,23 L7,13 L7,11 L21,11 L21,13 L21,19 L29,19 L29,21 L27,21 Z M25,21 L21,21 L21,23 L25,23 L25,21 Z M19,15 L19,13 L15,13 L15,15 L19,15 Z M19,17 L15,17 L15,19 L19,19 L19,17 Z M19,21 L15,21 L15,23 L19,23 L19,21 Z M13,15 L13,13 L9,13 L9,15 L13,15 Z M13,17 L9,17 L9,19 L13,19 L13,17 Z M13,21 L9,21 L9,23 L13,23 L13,21 Z M24.9996,10.4143 L29.5856,15.0003 L24.9996,15.0003 L24.9996,10.4143 Z"/>
</svg>
