<svg xmlns="http://www.w3.org/2000/svg" width="36" height="36" viewBox="0 0 36 36">
  <g fill-rule="evenodd">
    <path fill-rule="nonzero" d="M10 30C12.209139 30 14 28.209139 14 26 14 23.790861 12.209139 22 10 22 7.790861 22 6 23.790861 6 26 6 28.209139 7.790861 30 10 30zM20.0247734 25.4510771C18.8742663 24.7712087 17.3673056 24.9255876 16.3786797 25.9142136L15.9807873 25.5163212C15.9935144 25.6758698 16 25.8371775 16 26 16 29.3137085 13.3137085 32 10 32 6.6862915 32 4 29.3137085 4 26 4 22.6862915 6.6862915 20 10 20 12.588563 20 14.7942615 21.639238 15.6356566 23.9362753 17.0923234 22.9158907 18.97143 22.7624459 20.5551493 23.4759408 21.5082758 21.4233395 23.5879185 20 26 20 29.3137085 20 32 22.6862915 32 26 32 29.3137085 29.3137085 32 26 32 22.6862915 32 20 29.3137085 20 26 20 25.8149495 20.0083773 25.6318557 20.0247734 25.4510771zM26 30C28.209139 30 30 28.209139 30 26 30 23.790861 28.209139 22 26 22 23.790861 22 22 23.790861 22 26 22 28.209139 23.790861 30 26 30zM7.07986712 16L7.90831582 6.05861561C8.00004532 4.95786156 8.96674424 4.13988555 10.0674983 4.23161505 10.1575725 4.23912123 10.2470342 4.25272489 10.3352682 4.27233245L18 5.97560617 25.6647318 4.27233245C26.7429982 4.03271768 27.811352 4.7125792 28.0509668 5.79084565 28.0705743 5.87907969 28.084178 5.96854143 28.0916842 6.05861561L28.9201329 16 32 16 32 18 4 18 4 16 7.07986712 16zM9.08679955 16L26.9132005 16 26.0985927 6.22470657 18 8.02439383 9.90140733 6.22470657 9.08679955 16z"/>
  </g>
</svg>
