<svg xmlns="http://www.w3.org/2000/svg" width="36" height="36" viewBox="0 0 36 36">
  <g fill-rule="evenodd">
    <polygon points="16.686 6.505 17.278 6.798 17.571 7.391 18.025 7.167 18.479 7.392 18.772 6.798 19.365 6.506 18.026 3.793"/>
    <polygon points="19.552 11.402 18.562 9.396 20.355 8.511 21.345 10.517"/>
    <polygon points="22.727 14.995 21.217 14.776 20.541 13.407 22.335 12.522 22.545 12.948 23.014 13.016"/>
    <polygon points="27.153 15.638 24.94 15.317 25.227 13.338 27.44 13.659"/>
    <polygon points="29.559 14.635 29.086 15.097 29.439 15.459 29.366 15.961 30.02 16.055 30.482 16.529 32.65 14.416 29.653 13.982"/>
    <polygon points="27.279 19.651 25.883 18.219 27.484 16.658 28.881 18.089"/>
    <polygon points="23.447 22.35 23.188 20.846 24.281 19.781 25.677 21.212 25.338 21.543 25.418 22.01"/>
    <polygon points="24.202 26.757 23.824 24.553 25.796 24.215 26.174 26.419"/>
    <polygon points="27.063 31.605 24.385 30.2 24.692 29.613 24.581 28.962 25.08 28.877 25.315 28.427 25.901 28.735 26.552 28.625"/>
    <polygon points="22.405 29.157 20.426 28.116 21.356 26.346 23.336 27.387"/>
    <polygon points="17.606 27.076 16.674 25.306 18.025 24.596 19.376 25.306 18.444 27.076 18.025 26.855"/>
    <polygon points="13.646 29.157 12.716 27.387 14.695 26.346 15.626 28.116"/>
    <polygon points="8.988 31.605 9.499 28.625 10.151 28.735 10.736 28.427 10.971 28.877 11.471 28.962 11.359 29.614 11.666 30.2"/>
    <polygon points="11.849 26.758 9.878 26.42 10.257 24.216 12.227 24.554"/>
    <polygon points="12.605 22.349 10.633 22.011 10.714 21.544 10.374 21.212 11.771 19.781 12.863 20.845"/>
    <polygon points="8.773 19.65 7.17 18.088 8.568 16.657 10.168 18.218"/>
    <polygon points="3.402 14.416 5.569 16.528 6.031 16.055 6.684 15.96 6.611 15.459 6.965 15.096 6.492 14.635 6.397 13.981"/>
    <polygon points="8.898 15.639 8.611 13.66 10.824 13.339 11.111 15.318"/>
    <polygon points="13.325 14.995 13.038 13.016 13.507 12.948 13.717 12.522 15.511 13.407 14.835 14.776"/>
    <polygon points="16.5 11.401 14.707 10.516 15.697 8.51 17.49 9.395"/>
  </g>
</svg>
