<svg xmlns="http://www.w3.org/2000/svg" width="36" height="36" viewBox="0 0 36 36">
  <g fill-rule="evenodd">
    <path d="M18,5 C10.832,5 5,10.832 5,18 C5,25.168 10.832,31 18,31 C25.168,31 31,25.168 31,18 C31,10.832 25.168,5 18,5 M18,33 C9.729,33 3,26.271 3,18 C3,9.729 9.729,3 18,3 C26.271,3 33,9.729 33,18 C33,26.271 26.271,33 18,33"/>
    <path d="M18,13 C15.243,13 13,15.243 13,18 C13,20.757 15.243,23 18,23 C20.757,23 23,20.757 23,18 C23,15.243 20.757,13 18,13 M18,25 C14.14,25 11,21.859 11,18 C11,14.141 14.14,11 18,11 C21.86,11 25,14.141 25,18 C25,21.859 21.86,25 18,25"/>
  </g>
</svg>
