<svg xmlns="http://www.w3.org/2000/svg" width="36" height="36" viewBox="0 0 36 36">
  <g fill-rule="evenodd">
    <path d="M12.7246,31 L23.2756,31 L30.9996,23.275 L30.9996,12.725 L23.2756,5 L12.7246,5 L4.9996,12.725 L4.9996,23.275 L12.7246,31 Z M24.1036,33 L11.8966,33 L2.9996,24.104 L2.9996,11.896 L11.8966,3 L24.1036,3 L32.9996,11.896 L32.9996,24.104 L24.1036,33 Z"/>
    <path d="M9.6172,19.4609 C9.6482,19.8399 10.0042,20.1839 10.6792,20.1839 C11.3082,20.1839 11.6442,19.9099 11.6442,19.5159 C11.6442,19.1599 11.3712,18.9919 10.8322,18.8749 L10.0312,18.6989 C9.2812,18.5389 8.6562,18.1169 8.6562,17.2029 C8.6562,16.1479 9.5472,15.5629 10.6762,15.5629 C11.8672,15.5629 12.6682,16.2379 12.6802,17.1679 L11.6252,17.1679 C11.5972,16.8089 11.2892,16.4689 10.6722,16.4689 C10.1252,16.4689 9.7852,16.7189 9.7852,17.1089 C9.7852,17.4139 10.0352,17.6089 10.5122,17.7029 L11.3202,17.8789 C12.1012,18.0389 12.7622,18.4179 12.7622,19.3989 C12.7622,20.4449 11.9452,21.1019 10.6252,21.1019 C9.0552,21.1019 8.5472,20.2189 8.5312,19.4609 L9.6172,19.4609 L9.6172,19.4609 Z"/>
    <polygon points="14.809 21 14.809 16.645 13.313 16.645 13.313 15.668 17.434 15.668 17.434 16.645 15.938 16.645 15.938 21"/>
    <path d="M19.1016 18.6797C19.1016 19.6527 19.5816 20.1287 20.2616 20.1287 20.9456 20.1287 21.4256 19.6527 21.4256 18.6797L21.4256 18.0157C21.4256 17.0427 20.9456 16.5387 20.2616 16.5387 19.5816 16.5387 19.1016 17.0427 19.1016 18.0157L19.1016 18.6797zM17.9496 18.0277C17.9496 16.5117 18.8166 15.5707 20.2656 15.5707 21.7186 15.5707 22.5786 16.5197 22.5786 18.0277L22.5786 18.6757C22.5786 20.1797 21.7106 21.1017 20.2576 21.1017 18.8086 21.1017 17.9496 20.1797 17.9496 18.6757L17.9496 18.0277zM24.793 18.3828L25.391 18.3828C26.09 18.3828 26.516 18.1558 26.516 17.4848 26.516 16.9058 26.172 16.5858 25.605 16.5858L24.793 16.5858 24.793 18.3828zM25.84 15.6678C27.012 15.6678 27.664 16.4808 27.664 17.4848 27.664 18.5038 27.004 19.2808 25.828 19.2808L24.797 19.2808 24.797 20.9998 23.668 20.9998 23.668 15.6678 25.84 15.6678z"/>
  </g>
</svg>
