<svg xmlns="http://www.w3.org/2000/svg" width="36" height="36" viewBox="0 0 36 36">
  <g fill-rule="evenodd">
    <path d="M29,29 L29,29 L31.219,26.539 C32.125,25.57 33.035,24.664 33.035,23.148 C33.035,21.438 31.768,20.141 29.518,20.141 C26.986,20.141 26,21.844 26,23.477 L26,24 L28,24 L28,23.453 C28,22.688 28.422,22 29.375,22 C30.25,22 30.816,22.586 30.816,23.375 C30.816,24.219 30.322,24.883 29.76,25.469 L26,29.539 L26,31 L33,31 L33,29 L29,29 Z"/>
    <polygon points="16 9 18.234 9 14 16.056 9.766 9 12 9 12 7 5 7 5 9 7.434 9 12.834 18 7.434 27 5 27 5 29 12 29 12 27 9.766 27 14 19.944 18.234 27 16 27 16 29 23 29 23 27 20.566 27 15.166 18 20.566 9 23 9 23 7 16 7"/>
  </g>
</svg>
