<svg xmlns="http://www.w3.org/2000/svg" width="36" height="36" viewBox="0 0 36 36">
  <g fill-rule="evenodd">
    <path d="M29,13 L29,13 L31.219,10.539 C32.125,9.57 33.035,8.664 33.035,7.148 C33.035,5.438 31.768,4.141 29.518,4.141 C26.986,4.141 26,5.844 26,7.477 L26,8 L28,8 L28,7.453 C28,6.688 28.422,6 29.375,6 C30.25,6 30.816,6.586 30.816,7.375 C30.816,8.219 30.322,8.883 29.76,9.469 L26,13.539 L26,15 L33,15 L33,13 L29,13 Z"/>
    <polygon points="16 9 18.234 9 14 16.056 9.766 9 12 9 12 7 5 7 5 9 7.434 9 12.834 18 7.434 27 5 27 5 29 12 29 12 27 9.766 27 14 19.944 18.234 27 16 27 16 29 23 29 23 27 20.566 27 15.166 18 20.566 9 23 9 23 7 16 7"/>
  </g>
</svg>
