<svg xmlns="http://www.w3.org/2000/svg" width="36" height="36" viewBox="0 0 36 36">
  <g fill-rule="evenodd">
    <path d="M30 7L21 7 21 16 23 16 23 10.651C26.39 13.015 27.814 17.501 26.169 21.473 25.267 23.651 23.572 25.364 21.399 26.296L22.187 28.134C24.843 26.996 26.913 24.902 28.017 22.239 30.03 17.378 28.284 11.887 24.129 9L30 9 30 7zM13 25.5988C9.402 23.2928 7.848 18.6688 9.539 14.5848 10.459 12.3638 12.188 10.6338 14.41 9.7148L13.645 7.8668C10.93 8.9908 8.815 11.1048 7.691 13.8198 5.691 18.6488 7.405 24.0978 11.502 26.9998L6 26.9998 6 28.9998 15 28.9998 15 19.9998 13 19.9998 13 25.5988z"/>
  </g>
</svg>
