<svg xmlns="http://www.w3.org/2000/svg" width="36" height="36" viewBox="0 0 36 36">
  <g fill-rule="evenodd">
    <path d="M19.0596,7 C18.7926,7 18.5416,7.104 18.3536,7.292 L6.9346,18.691 C6.7446,18.881 6.6406,19.134 6.6416,19.403 C6.6426,19.672 6.7496,19.925 6.9416,20.113 L15.6346,28.626 C16.0126,28.996 16.6616,28.995 17.0356,28.624 L28.7016,17.143 C28.8916,16.956 28.9996,16.696 28.9996,16.43 L28.9996,8 C28.9996,7.448 28.5516,7 27.9996,7 L19.0596,7 Z M16.3336,30.911 C15.5446,30.911 14.7996,30.607 14.2356,30.056 L5.5426,21.542 C4.9656,20.977 4.6456,20.22 4.6416,19.412 C4.6386,18.604 4.9506,17.846 5.5216,17.275 L16.9396,5.877 C17.5056,5.312 18.2586,5 19.0596,5 L27.9996,5 C29.6546,5 30.9996,6.346 30.9996,8 L30.9996,16.43 C30.9996,17.229 30.6736,18.008 30.1046,18.568 L18.4386,30.05 C17.8736,30.605 17.1266,30.911 16.3336,30.911 L16.3336,30.911 Z"/>
    <path d="M24,11 C23.449,11 23,11.448 23,12 C23,12.552 23.449,13 24,13 C24.551,13 25,12.552 25,12 C25,11.448 24.551,11 24,11 M24,15 C22.346,15 21,13.654 21,12 C21,10.346 22.346,9 24,9 C25.654,9 27,10.346 27,12 C27,13.654 25.654,15 24,15"/>
  </g>
</svg>
