<svg xmlns="http://www.w3.org/2000/svg" width="36" height="36" viewBox="0 0 36 36">
  <g fill-rule="evenodd">
    <path d="M23 13C21.897 13 21 13.897 21 15 21 16.103 21.897 17 23 17 24.103 17 25 16.103 25 15 25 13.897 24.103 13 23 13M23 19C20.794 19 19 17.206 19 15 19 12.794 20.794 11 23 11 25.206 11 27 12.794 27 15 27 17.206 25.206 19 23 19M14 11C13.449 11 13 11.448 13 12 13 12.552 13.449 13 14 13 14.551 13 15 12.552 15 12 15 11.448 14.551 11 14 11M14 15C12.346 15 11 13.654 11 12 11 10.346 12.346 9 14 9 15.654 9 17 10.346 17 12 17 13.654 15.654 15 14 15"/>
    <path d="M17.9995,5 C10.8315,5 4.9995,10.832 4.9995,18 C4.9995,23.71 8.8185,28.835 14.2855,30.462 C14.3345,30.476 14.3805,30.483 14.4225,30.483 C14.6055,30.483 14.7315,30.337 14.7835,30.211 C14.8535,30.044 14.8215,29.893 14.6905,29.762 C13.6245,28.695 13.1025,27.217 13.2585,25.707 C13.4145,24.202 14.2365,22.859 15.5145,22.023 C17.4195,20.777 20.1945,21.123 21.8545,22.784 L26.0055,26.935 C26.3965,27.325 27.0785,27.309 27.4595,26.901 C30.2035,23.993 31.4415,20.031 30.8555,16.033 C30.0195,10.323 25.2375,5.718 19.4865,5.083 C18.9915,5.028 18.4915,5 17.9995,5 M14.4225,32.483 L14.4225,32.483 C14.1865,32.483 13.9485,32.448 13.7145,32.378 C7.4065,30.501 2.9995,24.589 2.9995,18 C2.9995,9.729 9.7285,3 17.9995,3 C18.5645,3 19.1385,3.032 19.7065,3.095 C26.3475,3.828 31.8685,9.148 32.8335,15.744 C33.5095,20.351 32.0805,24.918 28.9145,28.274 C27.7935,29.463 25.7435,29.503 24.5905,28.349 L20.4405,24.198 C19.4285,23.187 17.7465,22.956 16.6085,23.697 C15.8255,24.21 15.3425,24.996 15.2475,25.912 C15.1535,26.821 15.4665,27.708 16.1055,28.348 C16.8105,29.053 17.0115,30.06 16.6315,30.977 C16.2515,31.892 15.3845,32.483 14.4225,32.483"/>
    <path d="M10,20 C8.897,20 8,19.103 8,18 C8,16.897 8.897,16 10,16 C11.103,16 12,16.897 12,18 C12,19.103 11.103,20 10,20"/>
  </g>
</svg>
