<svg xmlns="http://www.w3.org/2000/svg" width="36" height="36" viewBox="0 0 36 36">
  <g fill-rule="evenodd">
    <polygon points="3 27 25 27 25 25 3 25"/>
    <polygon points="3 19 25 19 25 17 3 17"/>
    <polygon points="3 11 25 11 25 8.999 3 8.999"/>
    <path d="M27 13L32.999 13 32.999 7 27 7 27 13zM29 11.001L31 11.001 31 9 29 9 29 11.001zM27 21L32.999 21 32.999 15 27 15 27 21zM29 19L31 19 31 17 29 17 29 19zM27 29L32.999 29 32.999 23 27 23 27 29zM29 27L31 27 31 25 29 25 29 27z"/>
  </g>
</svg>
