<svg xmlns="http://www.w3.org/2000/svg" width="36" height="36" viewBox="0 0 36 36">
  <g fill-rule="evenodd">
    <path d="M7.7502 11.0004L4.2502 23.0004 3.0002 23.0004 3.0002 24.9994 6.9992 24.9994 6.9992 23.0004 6.3332 23.0004 7.2082 20.0004 10.7912 20.0004 11.6672 23.0004 11.0002 23.0004 11.0002 24.9994 14.9992 24.9994 14.9992 23.0004 13.7502 23.0004 10.2502 11.0004 7.7502 11.0004zM9.0002 13.8574L10.2082 17.9994 7.7912 17.9994 9.0002 13.8574zM33 13L33 11 27 11 27 9 25 9 25 11 19 11 19 13 29.019 13C28.951 14.355 28.437 17.122 25.782 19.903 24.268 18.501 23.662 17.221 23.342 15.783L21.39 16.217C21.821 18.152 22.705 19.74 24.308 21.264 23.515 21.902 22.596 22.529 21.517 23.124L22.483 24.876C23.812 24.143 24.93 23.365 25.881 22.569 26.897 23.322 28.103 24.079 29.548 24.876L30.514 23.124C29.252 22.428 28.22 21.786 27.365 21.177 30.399 17.954 30.963 14.678 31.027 13L33 13z"/>
    <polygon points="12.051 6.316 20.051 30.316 21.948 29.683 13.948 5.683"/>
  </g>
</svg>
