<svg xmlns="http://www.w3.org/2000/svg" width="36" height="36" viewBox="0 0 36 36">
  <g fill-rule="evenodd">
    <path d="M4.9998,31.0002 L32.4138,31.0002 L4.9998,3.5862 L4.9998,31.0002 Z M6.9998,8.4142 L10.5858,12.0002 L9.2928,13.2922 L10.7068,14.7062 L11.9998,13.4142 L13.5858,15.0002 L12.2938,16.2932 L13.7078,17.7072 L14.9998,16.4142 L16.5858,17.9992 L15.2928,19.2932 L16.7068,20.7072 L18.0008,19.4142 L19.5858,21.0002 L18.2928,22.2922 L19.7068,23.7062 L20.9998,22.4142 L22.5858,24.0002 L21.2938,25.2932 L22.7078,26.7072 L23.9998,25.4142 L27.5858,29.0002 L6.9998,29.0002 L6.9998,8.4142 Z"/>
    <path d="M11,21.4141 L14.586,25.0001 L11,25.0001 L11,21.4141 Z M9,27.0001 L19.414,27.0001 L9,16.5861 L9,27.0001 Z"/>
  </g>
</svg>
