<svg xmlns="http://www.w3.org/2000/svg" width="36" height="36" viewBox="0 0 36 36">
  <g fill-rule="evenodd">
    <path d="M8.1807 29.3867C7.6297 29.3867 7.1807 28.9387 7.1807 28.3867 7.1807 27.8347 7.6297 27.3867 8.1807 27.3867 8.7317 27.3867 9.1807 27.8347 9.1807 28.3867 9.1807 28.9387 8.7317 29.3867 8.1807 29.3867M8.1807 25.3867C6.5267 25.3867 5.1807 26.7327 5.1807 28.3867 5.1807 30.0407 6.5267 31.3867 8.1807 31.3867 9.8347 31.3867 11.1807 30.0407 11.1807 28.3867 11.1807 26.7327 9.8347 25.3867 8.1807 25.3867M22.1807 29.3867C21.6297 29.3867 21.1807 28.9387 21.1807 28.3867 21.1807 27.8347 21.6297 27.3867 22.1807 27.3867 22.7317 27.3867 23.1807 27.8347 23.1807 28.3867 23.1807 28.9387 22.7317 29.3867 22.1807 29.3867M22.1807 25.3867C20.5267 25.3867 19.1807 26.7327 19.1807 28.3867 19.1807 30.0407 20.5267 31.3867 22.1807 31.3867 23.8347 31.3867 25.1807 30.0407 25.1807 28.3867 25.1807 26.7327 23.8347 25.3867 22.1807 25.3867M7.0278 21.3867L6.0278 15.3867 10.1808 15.3867 24.3338 15.3867 23.3338 21.3867 7.0278 21.3867zM7.5628 11.3867L10.3118 11.3867 14.7988 11.3867 21.7988 11.3867 24.9998 11.3867 24.6668 13.3867 10.1808 13.3867 5.6948 13.3867 5.3608 11.3867 7.5628 11.3867zM8.5228 8.8337L10.7338 7.7287 11.5628 9.3867 8.7988 9.3867 8.5228 8.8337zM16.4578 5.7737L20.8918 8.7297 20.5628 9.3867 14.0488 9.3867 16.4578 5.7737zM26.3998 5.3867L25.3998 9.3867 22.7988 9.3867 23.4698 8.0437 15.9028 2.9997 12.8758 7.5407 11.6278 5.0447 5.8388 7.9397 6.5628 9.3867 2.9998 9.3867 5.3338 23.3867 25.0278 23.3867 27.1608 10.5877 27.9618 7.3867 32.1808 7.3867 32.1808 5.3867 26.3998 5.3867z"/>
  </g>
</svg>
