<svg xmlns="http://www.w3.org/2000/svg" width="36" height="36" viewBox="0 0 36 36">
  <g fill-rule="evenodd">
    <path d="M18 23C18.551 23 19 23.448 19 24 19 24.552 18.551 25 18 25 17.449 25 17 24.552 17 24 17 23.448 17.449 23 18 23M18 27C19.302 27 20.402 26.161 20.816 25L27 25 27 23 20.816 23C20.402 21.839 19.302 21 18 21 16.698 21 15.598 21.839 15.184 23L9 23 9 25 15.184 25C15.598 26.161 16.698 27 18 27M14 17C14.551 17 15 17.448 15 18 15 18.552 14.551 19 14 19 13.449 19 13 18.552 13 18 13 17.448 13.449 17 14 17M14 21C15.302 21 16.402 20.161 16.816 19L27 19 27 17 16.816 17C16.402 15.839 15.302 15 14 15 12.698 15 11.598 15.839 11.184 17L9 17 9 19 11.184 19C11.598 20.161 12.698 21 14 21M24 11C24.551 11 25 11.448 25 12 25 12.552 24.551 13 24 13 23.449 13 23 12.552 23 12 23 11.448 23.449 11 24 11M24 15C25.654 15 27 13.654 27 12 27 10.346 25.654 9 24 9 22.698 9 21.598 9.839 21.184 11L9 11 9 13 21.184 13C21.598 14.161 22.698 15 24 15"/>
    <path d="M7,29 L29,29 L29,7 L7,7 L7,29 Z M5,31 L31,31 L31,5 L5,5 L5,31 Z"/>
  </g>
</svg>
