<svg xmlns="http://www.w3.org/2000/svg" enable-background="new 0 0 64 64" viewBox="0 0 64 64">
  <path d="M22.3857 30.1021c-.16-1.3201-2.1446-1.0663-1.9863.2402l3 24.7856c.0615.502.4873.8799.9932.8799h20c.5059 0 .9316-.3779.9932-.8799l3-24.7856c.1583-1.3075-1.8264-1.5598-1.9863-.2402l-2.8936 23.9058h-3.334l.9941-11.3047c.1159-1.3077-1.8739-1.5076-1.9922-.1758l-1.0096 11.4805h-2.7716V42.6152c0-1.3232-2-1.3215-2 0v11.3926h-2.7717l-1.0106-11.4805c-.1155-1.3273-2.1084-1.1353-1.9922.1758l.9951 11.3047h-3.3339L22.3857 30.1021zM15.7178 23.1055l1.8232 3.5605c.2512.4912.8522.6863 1.3457.4346l26.6826-13.6572c.4912-.2515.6855-.854.4346-1.3457l-1.8223-3.5605c-.2554-.4984-.8624-.6817-1.3467-.4346l-6.8812 3.5219-2.8561-2.3539c-.3076-.2539-.7363-.3008-1.0918-.1187l-8.6699 4.4375c-.3545.1816-.5674.5566-.542.9546l.2389 3.6937-6.8815 3.5221C15.6641 22.0095 15.4646 22.6124 15.7178 23.1055zM24.9727 17.2446l-.1406-2.1743 7.501-3.8389 1.6815 1.3856-4.6392 2.3744L24.9727 17.2446zM42.8564 10.3384l.9111 1.7803L18.8652 24.8647l-.9121-1.7803C23.0222 20.49 36.8854 13.3945 42.8564 10.3384z"/>
  <path d="M30.125 33.7852h3.75c.5527 0 1-.4482 1-1.0005v-5.125c0-.5522-.4473-1-1-1h-3.75c-.5527 0-1 .4478-1 1v5.125C29.125 33.3369 29.5723 33.7852 30.125 33.7852zM31.125 28.6597h1.75v3.125h-1.75V28.6597zM40.9951 30.8086l3.0059-4.1504c.3242-.4473.2246-1.0723-.2227-1.396l-3.0361-2.1997c-.4512-.3271-1.0751-.221-1.3965.2227l-3.0068 4.1504c-.324.4455-.2233 1.0736.2227 1.397l3.0371 2.1997C40.0451 31.3544 40.67 31.2585 40.9951 30.8086zM40.3779 25.2686l1.417 1.0264-1.833 2.5308-1.417-1.0264L40.3779 25.2686z"/>
</svg>