<svg xmlns="http://www.w3.org/2000/svg" width="36" height="36" viewBox="0 0 36 36">
  <g fill-rule="evenodd">
    <path d="M21.0107,16.8418 C20.2147,16.0458 19.2217,15.4488 18.1387,15.1148 C15.6417,14.3438 12.9477,15.0058 11.1107,16.8418 L10.0507,17.9028 L11.4647,19.3168 L12.5247,18.2558 C13.8347,16.9448 15.7587,16.4718 17.5497,17.0258 C18.3337,17.2678 19.0217,17.6808 19.5957,18.2558 C19.7777,18.4378 19.9527,18.6478 20.1307,18.8988 C20.8217,19.8728 21.1417,21.0678 21.0317,22.2608 C20.9237,23.4198 20.4137,24.5088 19.5957,25.3268 L15.3537,29.5698 C13.4047,31.5188 10.2317,31.5188 8.2817,29.5698 C7.3427,28.6298 6.8247,27.3738 6.8247,26.0338 C6.8247,24.6938 7.3427,23.4378 8.2817,22.4988 L6.8677,21.0848 C5.5507,22.4018 4.8247,24.1588 4.8247,26.0338 C4.8247,27.9088 5.5507,29.6668 6.8677,30.9838 C8.2327,32.3478 10.0257,33.0298 11.8177,33.0298 C13.6107,33.0298 15.4027,32.3478 16.7677,30.9838 L21.0107,26.7408 C22.1567,25.5938 22.8717,24.0688 23.0227,22.4458 C23.1777,20.7758 22.7297,19.1058 21.7617,17.7408 C21.5177,17.3978 21.2717,17.1038 21.0107,16.8418"/>
    <path d="M10.1343,22.0127 C10.4893,22.2367 10.8293,22.4137 11.1733,22.5567 C12.0123,22.9047 12.9223,23.0837 13.8363,23.0837 C14.0523,23.0837 14.2703,23.0737 14.4863,23.0537 C16.3673,22.8777 18.1243,21.9367 19.3063,20.4717 L17.7493,19.2167 C16.9053,20.2627 15.6473,20.9357 14.3003,21.0617 C13.4823,21.1387 12.6873,21.0197 11.9393,20.7087 C11.7003,20.6107 11.4583,20.4827 11.1983,20.3197 C10.1863,19.6837 9.4343,18.7027 9.0803,17.5577 C8.7363,16.4457 8.7893,15.2447 9.2323,14.1767 L11.5283,8.6327 C12.5833,6.0857 15.5133,4.8707 18.0613,5.9267 L18.8263,4.0787 C15.2603,2.6027 11.1583,4.3027 9.6803,7.8667 L7.3843,13.4107 C6.7633,14.9087 6.6873,16.5927 7.1693,18.1487 C7.6653,19.7507 8.7183,21.1227 10.1343,22.0127"/>
    <polygon points="25 15.316 31 15.316 31 13.316 25 13.316"/>
    <polygon points="24.949 3.633 23.052 3 21.052 9 22.949 9.633"/>
    <polygon points="31.581 7.13 30.419 5.502 23.419 10.502 24.581 12.13"/>
    <polygon points="24.553 18.211 28.553 20.211 29.448 18.422 25.448 16.422"/>
  </g>
</svg>
