<svg xmlns="http://www.w3.org/2000/svg" width="36" height="36" viewBox="0 0 36 36">
  <path fill-rule="evenodd" d="M3,29 L33,29 L33,6.999 L3,6.999 L3,29 Z M27.414,9 L31,9 L31,11 L29.414,11 L27.414,9 Z M19.414,9 L24.586,9 L26.586,11 L21.414,11 L19.414,9 Z M11.414,9 L16.585,9 L18.586,11 L13.414,11 L11.414,9 Z M5,9 L8.586,9 L10.586,11 L5,11 L5,9 Z M29.414,13 L31,13 L31,15 L27.414,15 L29.414,13 Z M21.414,13 L26.586,13 L24.586,15 L19.414,15 L21.414,13 Z M13.414,13 L18.586,13 L16.585,15 L11.414,15 L13.414,13 Z M5,13 L10.586,13 L8.586,15 L5,15 L5,13 Z M5,27 L31,27 L31,17 L5,17 L5,27 Z"/>
</svg>
