<svg xmlns="http://www.w3.org/2000/svg" width="36" height="36" viewBox="0 0 36 36">
  <g fill-rule="evenodd">
    <path d="M22.9998,11.5863 L22.9998,8.9993 L2.9998,8.9993 L2.9998,26.9993 L7.5858,26.9993 L5.2928,29.2933 L6.7068,30.7063 L10.4138,26.9993 L22.9998,26.9993 L22.9998,14.4143 L30.7078,6.7073 L29.2928,5.2923 L22.9998,11.5863 Z M4.9998,11.0003 L20.9998,11.0003 L20.9998,13.5863 L9.5858,25.0003 L4.9998,25.0003 L4.9998,11.0003 Z M20.9998,16.4143 L20.9998,25.0003 L12.4138,25.0003 L20.9998,16.4143 Z"/>
    <path d="M24.9996,15.4644 L24.9996,20.5354 L32.9996,25.8684 L32.9996,10.1314 L24.9996,15.4644 Z M27.0006,19.4654 L27.0006,16.5354 L30.9996,13.8684 L30.9996,22.1314 L27.0006,19.4654 Z"/>
  </g>
</svg>
