<svg xmlns="http://www.w3.org/2000/svg" width="36" height="36" viewBox="0 0 36 36">
  <g fill-rule="evenodd">
    <path d="M19,26.7959 L13,21.5459 L13.01,14.4459 L19,9.2039 L19,26.7959 Z M7,20.9999 L11,20.9999 L11,14.9999 L7,14.9999 L7,20.9999 Z M7,12.9999 C5.897,12.9999 5,13.8979 5,14.9999 L5,20.9999 C5,22.1029 5.897,22.9999 7,22.9999 L11.624,22.9999 L21,31.2039 L21,4.7959 L11.624,12.9999 L7,12.9999 Z"/>
    <polygon points="32.707 14.707 31.293 13.293 28 16.586 24.707 13.293 23.293 14.707 26.586 18 23.293 21.293 24.707 22.707 28 19.414 31.293 22.707 32.707 21.293 29.414 18"/>
  </g>
</svg>
