<svg xmlns="http://www.w3.org/2000/svg" width="36" height="36" viewBox="0 0 36 36">
  <path fill-rule="evenodd" d="M20.1172,31 L15.8832,31 L15.1332,25 L20.8672,25 L20.1172,31 Z M15.8832,5 L20.1172,5 L20.8672,11 L15.1332,11 L15.8832,5 Z M23.0002,14 L23.0002,22 C23.0002,22.552 22.5512,23 22.0002,23 L14.0002,23 C13.4492,23 13.0002,22.552 13.0002,22 L13.0002,14 C13.0002,13.448 13.4492,13 14.0002,13 L22.0002,13 C22.5512,13 23.0002,13.448 23.0002,14 L23.0002,14 Z M27.0002,17 L25.0002,17 L25.0002,14 C25.0002,12.662 24.1142,11.539 22.9022,11.154 L21.8832,3 L14.1172,3 L13.0982,11.154 C11.8862,11.539 11.0002,12.662 11.0002,14 L11.0002,22 C11.0002,23.338 11.8862,24.461 13.0982,24.846 L14.1172,33 L21.8832,33 L22.9022,24.846 C24.1142,24.461 25.0002,23.338 25.0002,22 L25.0002,19 L27.0002,19 L27.0002,17 Z"/>
</svg>
