<svg xmlns="http://www.w3.org/2000/svg" width="36" height="36" viewBox="0 0 36 36">
  <path fill-rule="evenodd" d="M18,29 C15.137,29 12.39,27.855 10.34,25.855 C10.747,25.343 11,24.704 11,24 L11,12 C11,11.296 10.747,10.657 10.34,10.145 C12.39,8.145 15.137,7 18,7 C24.065,7 29,11.935 29,18 C29,24.065 24.065,29 18,29 M7,24 L7,18.816 C7.314,18.928 7.648,19 8,19 C8.352,19 8.686,18.928 9,18.816 L9,24 C9,24.552 8.551,25 8,25 C7.449,25 7,24.552 7,24 M9,16 C9,16.552 8.551,17 8,17 C7.449,17 7,16.552 7,16 C7,15.448 7.449,15 8,15 C8.551,15 9,15.448 9,16 M8,11 C8.551,11 9,11.448 9,12 L9,13.184 C8.686,13.072 8.352,13 8,13 C7.648,13 7.314,13.072 7,13.184 L7,12 C7,11.448 7.449,11 8,11 M18,5 C14.451,5 11.053,6.482 8.6,9.061 C8.406,9.021 8.205,9 8,9 C6.346,9 5,10.346 5,12 L5,24 C5,25.654 6.346,27 8,27 C8.205,27 8.406,26.979 8.6,26.939 C11.053,29.518 14.451,31 18,31 C25.168,31 31,25.168 31,18 C31,10.832 25.168,5 18,5"/>
</svg>
