
<svg width="201px" height="56px" viewBox="0 0 201 56" version="1.1" xmlns="http://www.w3.org/2000/svg" xmlns:xlink="http://www.w3.org/1999/xlink">
    <!-- Generator: Sketch 43.2 (39069) - http://www.bohemiancoding.com/sketch -->
    <desc>Created with Sketch.</desc>
    <defs>
        <path d="M0.875,13.199 C0.875,5.909 6.751,0 14,0 C21.249,0 27.125,5.909 27.125,13.199 C27.125,20.489 21.249,26.397 14,26.397 C6.751,26.397 0.875,20.488 0.875,13.199 Z M23.375,13.199 C23.375,7.992 19.178,3.771 14,3.771 C8.822,3.771 4.625,7.992 4.625,13.199 C4.625,18.406 8.822,22.627 14,22.627 C19.178,22.627 23.375,18.405 23.375,13.199 Z" id="path-1"></path>
        <rect id="path-3" x="0" y="0" width="1280" height="850"></rect>
        <rect id="path-5" x="0" y="0" width="38" height="37"></rect>
        <rect id="path-7" x="0" y="0" width="28" height="27"></rect>
        <path d="M23.553,4.374 L6.466,4.381 L15.011,19.418 L23.553,4.374 Z M15,27 L0,0.603 L30,0.603 L15,27 Z" id="path-9"></path>
        <rect id="path-11" x="0" y="0" width="1280" height="850"></rect>
    </defs>
    <g id="Page-1" stroke="none" stroke-width="1" fill="none" fill-rule="evenodd">
        <g id="Logo">
            <g id="kek">
                <g id="Clipped" transform="translate(1.000000, 0.000000)">
                    <g>
                        <mask id="mask-2" fill="white">
                            <use xlink:href="#path-1"></use>
                        </mask>
                        <g id="path-1"></g>
                        <g id="Group" mask="url(#mask-2)">
                            <g transform="translate(-27.000000, -20.000000)" id="Clipped-Clipped">
                                <g>
                                    <mask id="mask-4" fill="white">
                                        <use xlink:href="#path-3"></use>
                                    </mask>
                                    <g id="path-3"></g>
                                    <g id="Clipped" mask="url(#mask-4)">
                                        <g transform="translate(22.000000, 15.000000)" id="Group">
                                            <g>
                                                <g id="Clipped-Clipped">
                                                    <mask id="mask-6" fill="white">
                                                        <use xlink:href="#path-5"></use>
                                                    </mask>
                                                    <g id="path-5"></g>
                                                    <g id="Clipped" mask="url(#mask-6)">
                                                        <g transform="translate(5.000000, 5.000000)" id="Group">
                                                            <g>
                                                                <g id="Rectangle-path-Clipped">
                                                                    <mask id="mask-8" fill="white">
                                                                        <use xlink:href="#path-7"></use>
                                                                    </mask>
                                                                    <g id="path-7"></g>
                                                                    <rect id="Rectangle-path" fill="#51AA55" fill-rule="nonzero" mask="url(#mask-8)" x="-4.125" y="-5" width="36.25" height="36.397"></rect>
                                                                </g>
                                                            </g>
                                                        </g>
                                                    </g>
                                                </g>
                                            </g>
                                        </g>
                                    </g>
                                </g>
                            </g>
                        </g>
                    </g>
                </g>
                <g id="Clipped" transform="translate(0.000000, 29.000000)">
                    <g>
                        <mask id="mask-10" fill="white">
                            <use xlink:href="#path-9"></use>
                        </mask>
                        <g id="path-9"></g>
                        <g id="Group" mask="url(#mask-10)">
                            <g transform="translate(-26.000000, -49.000000)" id="Rectangle-path-Clipped">
                                <g>
                                    <mask id="mask-12" fill="white">
                                        <use xlink:href="#path-11"></use>
                                    </mask>
                                    <g id="path-11"></g>
                                    <rect id="Rectangle-path" fill="#F6A808" fill-rule="nonzero" mask="url(#mask-12)" x="21" y="44.603" width="40" height="36.397"></rect>
                                </g>
                            </g>
                        </g>
                    </g>
                </g>
            </g>
            <path d="M53.088,19.784 C54.0480048,20.6640044 54.528,21.8239928 54.528,23.264 C54.528,24.7040072 54.0520048,25.8639956 53.1,26.744 C52.1479952,27.6240044 50.7360094,28.064 48.864,28.064 L45.48,28.064 L45.48,35 L43.8,35 L43.8,18.44 L48.864,18.44 C50.7200093,18.44 52.1279952,18.8879955 53.088,19.784 Z M45.48,26.696 L48.864,26.696 C51.5040132,26.696 52.824,25.5480115 52.824,23.252 C52.824,20.9559885 51.5040132,19.808 48.864,19.808 L45.48,19.808 L45.48,26.696 Z M66.456,32.336 C67.4160048,31.343995 67.896,30.048008 67.896,28.448 C67.896,26.847992 67.4200048,25.5560049 66.468,24.572 C65.5159952,23.5879951 64.3680067,23.096 63.024,23.096 C61.6799933,23.096 60.5360047,23.5679953 59.592,24.512 C58.6479953,25.4560047 58.176,26.731992 58.176,28.34 C58.176,29.948008 58.6519952,31.2599949 59.604,32.276 C60.5560048,33.2920051 61.6999933,33.8 63.036,33.8 C64.3720067,33.8 65.5119953,33.3120049 66.456,32.336 Z M62.784,35.24 C60.9599909,35.24 59.448006,34.5920065 58.248,33.296 C57.047994,31.9999935 56.448,30.34801 56.448,28.34 C56.448,26.33199 57.043994,24.7160061 58.236,23.492 C59.428006,22.2679939 60.9439908,21.656 62.784,21.656 C63.9680059,21.656 65.0079955,21.9439971 65.904,22.52 C66.8000045,23.0960029 67.4639978,23.8399954 67.896,24.752 L67.896,21.896 L69.576,21.896 L69.576,35 L67.896,35 L67.896,32.12 C67.4639978,33.0320046 66.8000045,33.7799971 65.904,34.364 C65.0079955,34.9480029 63.9680059,35.24 62.784,35.24 Z M72.816,25.52 C72.816,24.4319946 73.2639955,23.5160037 74.16,22.772 C75.0560045,22.0279963 76.199993,21.656 77.592,21.656 C78.984007,21.656 80.0679961,22.0199964 80.844,22.748 C81.6200039,23.4760036 82.0479996,24.4799936 82.128,25.76 L80.4,25.76 C80.3679998,24.959996 80.0960026,24.3000026 79.584,23.78 C79.0719974,23.2599974 78.3600046,23 77.448,23 C76.5359954,23 75.8200026,23.2239978 75.3,23.672 C74.7799974,24.1200022 74.52,24.6599968 74.52,25.292 C74.52,25.9240032 74.7119981,26.4239982 75.096,26.792 C75.4800019,27.1600018 75.9639971,27.4079994 76.548,27.536 C77.1320029,27.6640006 77.7639966,27.8159991 78.444,27.992 C79.1240034,28.1680009 79.7559971,28.355999 80.34,28.556 C80.9240029,28.756001 81.4079981,29.1159974 81.792,29.636 C82.1760019,30.1560026 82.368,30.8239959 82.368,31.64 C82.368,32.6960053 81.9280044,33.5599966 81.048,34.232 C80.1679956,34.9040034 79.0120072,35.24 77.58,35.24 C76.1479928,35.24 75.0160042,34.8720037 74.184,34.136 C73.3519958,33.3999963 72.8960004,32.4000063 72.816,31.136 L74.544,31.136 C74.5760002,31.9520041 74.8639973,32.6159974 75.408,33.128 C75.9520027,33.6400026 76.6999952,33.896 77.652,33.896 C78.6040048,33.896 79.3439974,33.692002 79.872,33.284 C80.4000026,32.875998 80.664,32.3520032 80.664,31.712 C80.664,31.0719968 80.4720019,30.5680018 80.088,30.2 C79.7039981,29.8319982 79.2200029,29.5800007 78.636,29.444 C78.0519971,29.3079993 77.4200034,29.1520009 76.74,28.976 C76.0599966,28.7999991 75.4280029,28.616001 74.844,28.424 C74.2599971,28.231999 73.7760019,27.8880025 73.392,27.392 C73.0079981,26.8959975 72.816,26.2720038 72.816,25.52 Z M91.44,23.216 L87.816,23.216 L87.816,31.904 C87.816,32.5600033 87.9439987,33.0199987 88.2,33.284 C88.4560013,33.5480013 88.9119967,33.68 89.568,33.68 L91.44,33.68 L91.44,35 L89.208,35 C87.1599898,35 86.136,33.9680103 86.136,31.904 L86.136,23.216 L84.312,23.216 L84.312,21.896 L86.136,21.896 L86.136,18.608 L87.816,18.608 L87.816,21.896 L91.44,21.896 L91.44,23.216 Z M102.912,32.336 C103.872005,31.343995 104.352,30.048008 104.352,28.448 C104.352,26.847992 103.876005,25.5560049 102.924,24.572 C101.971995,23.5879951 100.824007,23.096 99.48,23.096 C98.1359933,23.096 96.9920047,23.5679953 96.048,24.512 C95.1039953,25.4560047 94.632,26.731992 94.632,28.34 C94.632,29.948008 95.1079952,31.2599949 96.06,32.276 C97.0120048,33.2920051 98.1559933,33.8 99.492,33.8 C100.828007,33.8 101.967995,33.3120049 102.912,32.336 Z M99.24,35.24 C97.4159909,35.24 95.904006,34.5920065 94.704,33.296 C93.503994,31.9999935 92.904,30.34801 92.904,28.34 C92.904,26.33199 93.499994,24.7160061 94.692,23.492 C95.884006,22.2679939 97.3999908,21.656 99.24,21.656 C100.424006,21.656 101.463996,21.9439971 102.36,22.52 C103.256004,23.0960029 103.919998,23.8399954 104.352,24.752 L104.352,21.896 L106.032,21.896 L106.032,35 L104.352,35 L104.352,32.12 C103.919998,33.0320046 103.256004,33.7799971 102.36,34.364 C101.463996,34.9480029 100.424006,35.24 99.24,35.24 Z M111.312,21.896 L111.312,24.032 C112.192004,22.4479921 113.63999,21.656 115.656,21.656 C117.112007,21.656 118.327995,22.1319952 119.304,23.084 C120.280005,24.0360048 120.768,25.407991 120.768,27.2 L120.768,35 L119.112,35 L119.112,27.512 C119.112,26.0719928 118.764003,24.9760038 118.068,24.224 C117.371997,23.4719962 116.420006,23.096 115.212,23.096 C114.003994,23.096 113.052003,23.4719962 112.356,24.224 C111.659997,24.9760038 111.312,26.0719928 111.312,27.512 L111.312,35 L109.632,35 L109.632,21.896 L111.312,21.896 Z M133.416,32.336 C134.376005,31.343995 134.856,30.048008 134.856,28.448 C134.856,26.847992 134.380005,25.5560049 133.428,24.572 C132.475995,23.5879951 131.328007,23.096 129.984,23.096 C128.639993,23.096 127.496005,23.5679953 126.552,24.512 C125.607995,25.4560047 125.136,26.731992 125.136,28.34 C125.136,29.948008 125.611995,31.2599949 126.564,32.276 C127.516005,33.2920051 128.659993,33.8 129.996,33.8 C131.332007,33.8 132.471995,33.3120049 133.416,32.336 Z M129.744,35.24 C127.919991,35.24 126.408006,34.5920065 125.208,33.296 C124.007994,31.9999935 123.408,30.34801 123.408,28.34 C123.408,26.33199 124.003994,24.7160061 125.196,23.492 C126.388006,22.2679939 127.903991,21.656 129.744,21.656 C130.928006,21.656 131.967996,21.9439971 132.864,22.52 C133.760004,23.0960029 134.423998,23.8399954 134.856,24.752 L134.856,21.896 L136.536,21.896 L136.536,35 L134.856,35 L134.856,32.12 C134.423998,33.0320046 133.760004,33.7799971 132.864,34.364 C131.967996,34.9480029 130.928006,35.24 129.744,35.24 Z M145.632,35.24 C143.807991,35.24 142.296006,34.5920065 141.096,33.296 C139.895994,31.9999935 139.296,30.34801 139.296,28.34 C139.296,26.33199 139.891994,24.7160061 141.084,23.492 C142.276006,22.2679939 143.791991,21.656 145.632,21.656 C146.816006,21.656 147.855996,21.9439971 148.752,22.52 C149.648004,23.0960029 150.311998,23.8399954 150.744,24.752 L150.744,21.896 L152.424,21.896 L152.424,35.456 C152.424,37.2320089 151.836006,38.6719945 150.66,39.776 C149.483994,40.8800055 148.048008,41.432 146.352,41.432 C144.655992,41.432 143.224006,41.0160042 142.056,40.184 C140.887994,39.3519958 140.216001,38.3200062 140.04,37.088 L141.696,37.088 C141.904001,37.9040041 142.431996,38.5919972 143.28,39.152 C144.128004,39.7120028 145.167994,39.992 146.4,39.992 C147.632006,39.992 148.663996,39.588004 149.496,38.78 C150.328004,37.971996 150.744,36.864007 150.744,35.456 L150.744,32.12 C150.311998,33.0320046 149.648004,33.7799971 148.752,34.364 C147.855996,34.9480029 146.816006,35.24 145.632,35.24 Z M149.304,32.336 C150.264005,31.343995 150.744,30.048008 150.744,28.448 C150.744,26.847992 150.268005,25.5560049 149.316,24.572 C148.363995,23.5879951 147.216007,23.096 145.872,23.096 C144.527993,23.096 143.384005,23.5679953 142.44,24.512 C141.495995,25.4560047 141.024,26.731992 141.024,28.34 C141.024,29.948008 141.499995,31.2599949 142.452,32.276 C143.404005,33.2920051 144.547993,33.8 145.884,33.8 C147.220007,33.8 148.359995,33.3120049 149.304,32.336 Z M165.192,32.336 C166.152005,31.343995 166.632,30.048008 166.632,28.448 C166.632,26.847992 166.156005,25.5560049 165.204,24.572 C164.251995,23.5879951 163.104007,23.096 161.76,23.096 C160.415993,23.096 159.272005,23.5679953 158.328,24.512 C157.383995,25.4560047 156.912,26.731992 156.912,28.34 C156.912,29.948008 157.387995,31.2599949 158.34,32.276 C159.292005,33.2920051 160.435993,33.8 161.772,33.8 C163.108007,33.8 164.247995,33.3120049 165.192,32.336 Z M161.52,35.24 C159.695991,35.24 158.184006,34.5920065 156.984,33.296 C155.783994,31.9999935 155.184,30.34801 155.184,28.34 C155.184,26.33199 155.779994,24.7160061 156.972,23.492 C158.164006,22.2679939 159.679991,21.656 161.52,21.656 C162.704006,21.656 163.743996,21.9439971 164.64,22.52 C165.536004,23.0960029 166.199998,23.8399954 166.632,24.752 L166.632,21.896 L168.312,21.896 L168.312,35 L166.632,35 L166.632,32.12 C166.199998,33.0320046 165.536004,33.7799971 164.64,34.364 C163.743996,34.9480029 162.704006,35.24 161.52,35.24 Z" id="Pastanaga" fill="#767676"></path>
            <path d="M179.04,28.208 L179.04,18.152 L183.144,18.152 L183.144,28.208 C183.144,29.216005 183.391998,29.9919973 183.888,30.536 C184.384002,31.0800027 185.111995,31.352 186.072,31.352 C187.032005,31.352 187.767997,31.0800027 188.28,30.536 C188.792003,29.9919973 189.048,29.216005 189.048,28.208 L189.048,18.152 L193.152,18.152 L193.152,28.208 C193.152,29.6960074 192.804003,30.9799946 192.108,32.06 C191.411997,33.1400054 190.532005,33.9279975 189.468,34.424 C188.403995,34.9200025 187.248006,35.168 186,35.168 C184.04799,35.168 182.400007,34.5600061 181.056,33.344 C179.711993,32.1279939 179.04,30.416011 179.04,28.208 Z M196.656,35 L196.656,18.152 L200.76,18.152 L200.76,35 L196.656,35 Z" id="UI" fill="#767676"></path>
        </g>
    </g>
</svg>
