<svg xmlns="http://www.w3.org/2000/svg" width="36" height="36" viewBox="0 0 36 36">
  <path fill-rule="evenodd" d="M29,22 L29,10 C29,9.448 28.551,9 28,9 L8,9 C7.449,9 7,9.448 7,10 L7,22 C7,22.552 7.449,23 8,23 L9,23 L9,24.586 L10.586,23 L28,23 C28.551,23 29,22.552 29,22 Z M28,7 C29.654,7 31,8.346 31,10 L31,22 C31,23.654 29.654,25 28,25 L11.414,25 L7,29.414 L7,24.829 C5.836,24.416 5,23.304 5,22 L5,10 C5,8.346 6.346,7 8,7 L28,7 Z M9,21 L9,19 L23,19 L23,21 L9,21 Z M9,13 L9,11 L27,11 L27,13 L9,13 Z M9,17 L9,15 L27,15 L27,17 L9,17 Z"/>
</svg>
