<svg xmlns="http://www.w3.org/2000/svg" width="36" height="36" viewBox="0 0 36 36">
  <path fill-rule="evenodd" d="M18,30 C17.263,30 16.625,29.595 16.278,29 L19.722,29 C19.375,29.595 18.737,30 18,30 L18,30 Z M11,22 L11,14 C11,10.14 14.141,7 18,7 C21.859,7 25,10.14 25,14 L25,22 C25,23.723 25.616,25.465 26.735,27 L9.265,27 C10.384,25.465 11,23.723 11,22 L11,22 Z M31.649,29 L29.661,27.25 C27.97,25.761 27,23.848 27,22 L27,14 C27,9.376 23.493,5.558 19,5.059 L19,3 L17,3 L17,5.059 C12.507,5.558 9,9.376 9,14 L9,22 C9,23.848 8.03,25.761 6.339,27.25 L4.351,29 L14.142,29 C14.589,30.72 16.141,32 18,32 C19.859,32 21.411,30.72 21.858,29 L31.649,29 Z"/>
</svg>
