<svg xmlns="http://www.w3.org/2000/svg" width="36" height="36" viewBox="0 0 36 36">
  <g fill-rule="evenodd">
    <polygon points="29 31 31 31 31 29 29 29"/>
    <polygon points="17 31 19 31 19 29 17 29"/>
    <polygon points="25 31 27 31 27 29 25 29"/>
    <polygon points="21 31 23 31 23 29 21 29"/>
    <polygon points="13 31 15 31 15 29 13 29"/>
    <polygon points="9 31 11 31 11 29 9 29"/>
    <polygon points="5 31 7 31 7 29 5 29"/>
    <polygon points="5 19 7 19 7 17 5 17"/>
    <polygon points="5 11 7 11 7 9 5 9"/>
    <polygon points="5 27 7 27 7 25 5 25"/>
    <polygon points="5 15 7 15 7 13 5 13"/>
    <polygon points="5 23 7 23 7 21 5 21"/>
    <polygon points="5 7 7 7 7 5 5 5"/>
    <polygon points="21 7 23 7 23 5 21 5"/>
    <polygon points="9 7 11 7 11 5 9 5"/>
    <polygon points="13 7 15 7 15 5 13 5"/>
    <polygon points="17 7 19 7 19 5 17 5"/>
    <polygon points="25 7 27 7 27 5 25 5"/>
    <polygon points="29 7 31 7 31 5 29 5"/>
    <polygon points="29 11 31 11 31 9 29 9"/>
    <polygon points="29 19 31 19 31 17 29 17"/>
    <polygon points="29 15 31 15 31 13 29 13"/>
    <polygon points="29 27 31 27 31 25 29 25"/>
    <polygon points="29 23 31 23 31 21 29 21"/>
    <path d="M18,21 C16.346,21 15,19.654 15,18 C15,16.346 16.346,15 18,15 C19.654,15 21,16.346 21,18 C21,19.654 19.654,21 18,21 M22.899,19 L25,19 L25,17 L22.899,17 C22.769,16.363 22.515,15.772 22.167,15.247 L23.657,13.757 L22.243,12.343 L20.753,13.833 C20.229,13.485 19.637,13.231 19,13.101 L19,11 L17,11 L17,13.101 C16.363,13.231 15.771,13.485 15.247,13.833 L13.757,12.343 L12.343,13.757 L13.833,15.247 C13.485,15.772 13.231,16.363 13.101,17 L11,17 L11,19 L13.101,19 C13.231,19.637 13.485,20.228 13.833,20.753 L12.343,22.243 L13.757,23.657 L15.247,22.167 C15.771,22.515 16.363,22.769 17,22.899 L17,25 L19,25 L19,22.899 C19.637,22.769 20.229,22.515 20.753,22.167 L22.243,23.657 L23.657,22.243 L22.167,20.753 C22.515,20.228 22.769,19.637 22.899,19"/>
  </g>
</svg>
