<svg xmlns="http://www.w3.org/2000/svg" width="36" height="36" viewBox="0 0 36 36">
  <path fill-rule="evenodd" d="M18.0003,2.9998 L4.9993,10.5828 L4.9993,25.7318 L18.0003,33.3158 L31.0003,25.7318 L31.0003,10.5828 L18.0003,2.9998 Z M19.0003,5.8988 L28.0693,11.1888 L19.0003,16.4248 L19.0003,5.8988 Z M7.9303,11.1888 L17.0003,5.8988 L17.0003,16.4248 L7.9303,11.1888 Z M20.0003,18.1578 L29.0003,12.9618 L29.0003,23.3538 L20.0003,18.1578 Z M6.9993,12.9618 L15.9993,18.1578 L6.9993,23.3538 L6.9993,12.9618 Z M19.0003,19.8898 L28.0693,25.1258 L19.0003,30.4168 L19.0003,19.8898 Z M7.9303,25.1258 L17.0003,19.8898 L17.0003,30.4168 L7.9303,25.1258 Z"/>
</svg>
