<svg xmlns="http://www.w3.org/2000/svg" width="36" height="36" viewBox="0 0 36 36">
  <g fill-rule="evenodd">
    <path d="M4.8774,27 L23.1324,27 C22.3064,25.614 20.0084,24.548 19.0924,24.232 C15.4554,23.373 15.0454,21.379 15.0114,21.154 L15.0004,21.003 L15.0004,17.895 L15.6304,17.645 C16.8514,17.158 16.7644,16.393 16.7634,16.386 L16.6384,15.607 L17.3654,15.304 C17.4044,15.268 17.5774,15.064 17.9134,14.315 C17.8684,14.255 17.7984,14.185 17.7704,14.163 L17.1894,13.725 L17.8304,11.881 C18.1344,10.639 18.0094,9.353 17.4614,8.651 C17.1974,8.314 16.8544,8 16.5174,8 L15.9664,8 L15.6724,7.655 C15.6704,7.653 15.0354,6.766 14.0284,6.766 C13.5514,6.769 12.1334,6.916 11.3624,7.421 C10.4574,8.013 9.5174,9.292 10.1784,11.953 L10.7744,13.773 L10.1364,14.196 C10.0934,14.228 10.0314,14.292 9.9984,14.339 C10.1754,14.816 10.5154,15.233 10.6504,15.308 L11.4284,15.632 L11.2414,16.388 C11.2324,16.494 11.2244,17.188 12.3694,17.644 L13.0004,17.894 L12.9884,21.151 C12.9554,21.376 12.5524,23.373 8.8194,24.259 C7.9814,24.553 5.7004,25.615 4.8774,27 L4.8774,27 Z M25.0004,29 L3.0004,29 L3.0004,28 C3.0004,24.39 7.8954,22.539 8.4774,22.34 C10.5884,21.834 10.8954,21.057 11.0004,20.847 L11.0004,19.199 C9.8114,18.515 9.3684,17.523 9.2664,16.76 C8.7184,16.278 8.2894,15.536 8.0804,14.916 C7.8304,14.176 8.0854,13.536 8.4414,13.083 L8.2574,12.521 C7.2064,8.3 9.3144,6.401 10.2674,5.777 C11.6724,4.858 13.7894,4.827 14.0254,4.826 C15.5324,4.826 16.5564,5.734 17.0414,6.29 C17.8034,6.429 18.5104,6.867 19.0364,7.54 C19.5834,8.239 20.4024,9.807 19.7454,12.45 L19.5164,13.114 C19.9054,13.644 20.0924,14.325 19.7984,14.997 C19.5254,15.62 19.2044,16.289 18.7404,16.739 C18.6424,17.505 18.2004,18.509 17.0004,19.199 L17.0004,20.87 C17.0754,21.01 17.3384,21.816 19.4304,22.313 C20.1054,22.539 25.0004,24.389 25.0004,28 L25.0004,29 Z"/>
    <path d="M33,29 L28,29 L28,27 L30.672,27 C29.782,25.622 27.317,24.555 26.333,24.238 C22.523,23.401 22.062,21.514 22.01,21.145 L22,21.003 L22,17.895 L22.63,17.645 C23.845,17.16 23.854,16.383 23.851,16.296 L23.826,15.586 L24.486,15.294 C24.643,15.191 24.916,14.646 25.069,14.327 C25.025,14.276 24.965,14.219 24.913,14.181 L24.301,13.734 L24.982,11.861 C25.416,10.223 24.956,9.155 24.642,8.745 C24.337,8.349 23.917,8 23.491,8 L22.962,8 L22.665,7.684 C22.642,7.651 21.984,6.802 20.88,6.767 C20.799,6.783 20.692,6.852 20.656,6.879 L19.312,5.413 C19.843,4.929 20.57,4.839 20.71,4.824 L20.814,4.822 C22.399,4.822 23.483,5.733 23.99,6.279 C24.854,6.414 25.651,6.897 26.228,7.647 C27.158,8.859 27.392,10.571 26.886,12.466 L26.654,13.098 C27.077,13.635 27.278,14.33 26.953,15.022 C26.63,15.709 26.295,16.358 25.813,16.785 C25.682,17.549 25.2,18.522 24,19.202 L24,20.874 C24.073,20.994 24.578,21.807 26.855,22.31 C27.563,22.532 33,24.375 33,28 L33,29 Z"/>
  </g>
</svg>
