<svg xmlns="http://www.w3.org/2000/svg" width="36" height="36" viewBox="0 0 36 36">
  <g fill="none" fill-rule="evenodd">
    <path fill="#000" fill-rule="nonzero" d="M3,7 L5,5 L5,25 L3,23 L33,23 L31,25 L31,5 L33,7 L3,7 Z M33,5 L33,25 L3,25 L3,5 L33,5 Z"/>
    <polygon fill="#000" points="7 31 29 31 29 29 7 29"/>
    <polygon fill="#000" points="25.314 10.757 28.557 14 7.444 14 10.687 10.757 9.272 9.343 3.616 15 9.272 20.657 10.687 19.243 7.444 16 28.557 16 25.314 19.243 26.728 20.657 32.385 15 26.728 9.343"/>
  </g>
</svg>
