<svg xmlns="http://www.w3.org/2000/svg" width="36" height="36" viewBox="0 0 36 36">
  <g fill="none" fill-rule="evenodd">
    <polygon fill="#000" points="23 7 33 7 33 5 23 5"/>
    <path fill="#000" fill-rule="nonzero" d="M3,7 L5,5 L5,19 L3,17 L19,17 L17,19 L17,5 L19,7 L3,7 Z M19,5 L19,19 L3,19 L3,5 L19,5 Z"/>
    <polygon fill="#000" points="23 13 33 13 33 11 23 11"/>
    <polygon fill="#000" points="23 19 33 19 33 17 23 17"/>
    <polygon fill="#000" points="3 31 33 31 33 29 3 29"/>
    <polygon fill="#000" points="3 25 33 25 33 23 3 23"/>
  </g>
</svg>
