<svg xmlns="http://www.w3.org/2000/svg" width="36" height="36" viewBox="0 0 36 36">
  <g fill="none" fill-rule="evenodd">
    <polygon fill="#000" points="3 7 13 7 13 5 3 5"/>
    <path fill="#000" fill-rule="nonzero" d="M17,7 L19,5 L19,19 L17,17 L33,17 L31,19 L31,5 L33,7 L17,7 Z M33,5 L33,19 L17,19 L17,5 L33,5 Z"/>
    <polygon fill="#000" points="3 13 13 13 13 11 3 11"/>
    <polygon fill="#000" points="3 19 13 19 13 17 3 17"/>
    <polygon fill="#000" points="3 31 33 31 33 29 3 29"/>
    <polygon fill="#000" points="3 25 33 25 33 23 3 23"/>
  </g>
</svg>
