<svg xmlns="http://www.w3.org/2000/svg" width="36" height="36" viewBox="0 0 36 36">
  <g fill-rule="evenodd">
    <path d="M6,9 C5.448,9 5,9.449 5,10 L5,26 C5,26.551 5.448,27 6,27 L30,27 C30.552,27 31,26.551 31,26 L31,10 C31,9.449 30.552,9 30,9 L6,9 Z M30,29 L6,29 C4.346,29 3,27.654 3,26 L3,10 C3,8.346 4.346,7 6,7 L30,7 C31.654,7 33,8.346 33,10 L33,26 C33,27.654 31.654,29 30,29 L30,29 Z"/>
    <polygon points="11 25 25 25 25 23 11 23"/>
    <polygon points="7 21 9 21 9 19 7 19"/>
    <polygon points="11 21 13 21 13 19 11 19"/>
    <polygon points="15 21 17 21 17 19 15 19"/>
    <polygon points="19 21 21 21 21 19 19 19"/>
    <polygon points="23 21 25 21 25 19 23 19"/>
    <polygon points="27 21 29 21 29 19 27 19"/>
    <polygon points="7 17 9 17 9 15 7 15"/>
    <polygon points="11 17 13 17 13 15 11 15"/>
    <polygon points="15 17 17 17 17 15 15 15"/>
    <polygon points="19 17 21 17 21 15 19 15"/>
    <polygon points="23 17 25 17 25 15 23 15"/>
    <polygon points="27 17 29 17 29 15 27 15"/>
    <polygon points="7 13 9 13 9 11 7 11"/>
    <polygon points="11 13 13 13 13 11 11 11"/>
    <polygon points="15 13 17 13 17 11 15 11"/>
    <polygon points="19 13 21 13 21 11 19 11"/>
    <polygon points="23 13 25 13 25 11 23 11"/>
    <polygon points="27 13 29 13 29 11 27 11"/>
  </g>
</svg>
