<svg xmlns="http://www.w3.org/2000/svg" width="36" height="36" viewBox="0 0 36 36">
  <g fill-rule="evenodd">
    <path d="M22,13 C22.551,13 23,13.448 23,14 L23,26 C23,28.757 20.757,31 18,31 C15.243,31 13,28.757 13,26 L13,14 C13,13.448 13.449,13 14,13 L22,13 Z M22,8 C24.757,8 27,5.757 27,3 L25,3 C25,4.654 23.654,6 22,6 C19.243,6 17,8.243 17,11 L14,11 C12.346,11 11,12.346 11,14 L11,26 C11,29.859 14.14,33 18,33 C21.86,33 25,29.859 25,26 L25,14 C25,12.346 23.654,11 22,11 L19,11 C19,9.346 20.346,8 22,8 L22,8 Z"/>
    <polygon points="17 19 19 19 19 15 17 15"/>
  </g>
</svg>
