<svg xmlns="http://www.w3.org/2000/svg" width="36" height="36" viewBox="0 0 36 36">
  <g fill-rule="evenodd">
    <path d="M8.9996,4.9999 L8.9996,14.9999 L4.9996,14.9999 L4.9996,27.0009 L8.9996,27.0009 L8.9996,30.9999 L26.9996,30.9999 L26.9996,27.0009 L31.0006,27.0009 L31.0006,14.9999 L26.9996,14.9999 L26.9996,11.5859 L20.4146,4.9999 L8.9996,4.9999 Z M11.0006,6.9999 L19.0006,6.9999 L19.0006,12.9999 L24.9996,12.9999 L24.9996,14.9999 L11.0006,14.9999 L11.0006,6.9999 Z M21.0006,8.4149 L23.5856,10.9999 L21.0006,10.9999 L21.0006,8.4149 Z M6.9996,16.9999 L8.9996,16.9999 L26.9996,16.9999 L29.0006,16.9999 L29.0006,24.9999 L26.9996,24.9999 L26.9996,22.9999 L8.9996,22.9999 L8.9996,24.9999 L6.9996,24.9999 L6.9996,16.9999 Z M11.0006,27.0009 L11.0006,24.9999 L24.9996,24.9999 L24.9996,27.0009 L24.9996,28.9999 L11.0006,28.9999 L11.0006,27.0009 Z"/>
    <polygon points="21 21 23 21 23 19 21 19"/>
    <polygon points="25 21 27 21 27 19 25 19"/>
  </g>
</svg>
