<svg xmlns="http://www.w3.org/2000/svg" width="36" height="36" viewBox="0 0 36 36">
  <g fill-rule="evenodd">
    <polygon points="14 11 29 11 29 9 14 9"/>
    <polygon points="14 19 29 19 29 17 14 17"/>
    <polygon points="14 27 29 27 29 25 14 25"/>
    <polygon points="8 20.414 5.293 17.707 6.707 16.293 8 17.586 11.293 14.293 12.707 15.707"/>
    <polygon points="8 12.414 5.293 9.707 6.707 8.293 8 9.586 11.293 6.293 12.707 7.707"/>
    <polygon points="8 28.414 5.293 25.707 6.707 24.293 8 25.586 11.293 22.293 12.707 23.707"/>
  </g>
</svg>
