<svg xmlns="http://www.w3.org/2000/svg" width="36" height="36" viewBox="0 0 36 36">
  <g fill-rule="evenodd">
    <path d="M11.1667 19L14.0837 9 14.2497 9 17.1667 19 11.1667 19zM15.7497 7L12.5837 7 6.7497 27 4.9997 27 4.9997 29 9.9997 29 9.9997 27 8.8337 27 10.5837 21 17.7497 21 19.4997 27 17.9997 27 17.9997 29 22.9997 29 22.9997 27 21.5837 27 15.7497 7zM31 7L31 5C29.8 5 28.734 5.542 28 6.382 27.266 5.542 26.2 5 25 5L25 7C26.103 7 27 7.897 27 9L27 27C27 28.103 26.103 29 25 29L25 31C26.2 31 27.266 30.458 28 29.618 28.734 30.458 29.8 31 31 31L31 29C29.897 29 29 28.103 29 27L29 9C29 7.897 29.897 7 31 7"/>
  </g>
</svg>
