<svg xmlns="http://www.w3.org/2000/svg" width="36" height="36" viewBox="0 0 36 36">
  <g fill-rule="evenodd">
    <polygon points="29 31 31 31 31 29 29 29"/>
    <polygon points="21 31 23 31 23 29 21 29"/>
    <polygon points="9 31 11 31 11 29 9 29"/>
    <polygon points="13 31 15 31 15 29 13 29"/>
    <polygon points="25 31 27 31 27 29 25 29"/>
    <polygon points="17 31 19 31 19 29 17 29"/>
    <polygon points="5 31 7 31 7 29 5 29"/>
    <polygon points="5 19 7 19 7 17 5 17"/>
    <polygon points="5 27 7 27 7 25 5 25"/>
    <polygon points="5 11 7 11 7 9 5 9"/>
    <polygon points="5 15 7 15 7 13 5 13"/>
    <polygon points="5 23 7 23 7 21 5 21"/>
    <polygon points="5 7 7 7 7 5 5 5"/>
    <polygon points="17 7 19 7 19 5 17 5"/>
    <polygon points="9 7 11 7 11 5 9 5"/>
    <polygon points="21 7 23 7 23 5 21 5"/>
    <polygon points="13 7 15 7 15 5 13 5"/>
    <polygon points="25 7 27 7 27 5 25 5"/>
    <polygon points="29 7 31 7 31 5 29 5"/>
    <polygon points="29 15 31 15 31 13 29 13"/>
    <polygon points="29 19 31 19 31 17 29 17"/>
    <polygon points="29 11 31 11 31 9 29 9"/>
    <polygon points="29 23 31 23 31 21 29 21"/>
    <polygon points="29 27 31 27 31 25 29 25"/>
    <path d="M21,18.8157 L21,14.9997 L17.184,14.9997 C17.598,13.8387 18.698,12.9997 20,12.9997 C21.654,12.9997 23,14.3457 23,15.9997 C23,17.3017 22.161,18.4017 21,18.8157 L21,18.8157 Z M13,22.9997 L13,16.9997 L15.101,16.9997 C15.5,18.9557 17.044,20.4997 19,20.8987 L19,22.9997 L13,22.9997 Z M19,18.8157 C18.153,18.5137 17.486,17.8467 17.184,16.9997 L19,16.9997 L19,18.8157 Z M20,10.9997 C17.586,10.9997 15.566,12.7207 15.101,14.9997 L11,14.9997 L11,24.9997 L21,24.9997 L21,20.8987 C23.279,20.4347 25,18.4147 25,15.9997 C25,13.2427 22.757,10.9997 20,10.9997 L20,10.9997 Z"/>
  </g>
</svg>
