<svg xmlns="http://www.w3.org/2000/svg" width="36" height="36" viewBox="0 0 36 36">
  <path fill-rule="evenodd" d="M31,17 L19.114,17 C18.533,16.863 15.451,16.107 13.666,15.066 C13.115,14.746 12.68,14.223 12.441,13.594 C11.776,11.844 11.589,9.432 14.551,7.834 C14.579,7.816 17.423,5.99 21.531,7.883 C21.556,7.897 24.074,9.269 24,11.911 L24,12 L25,12 L26,12.041 L26,12 L26,6 L24,6 L24,7.281 C23.227,6.53 22.507,6.138 22.419,6.092 C17.265,3.714 13.603,6.064 13.526,6.119 C8.981,8.563 9.946,12.657 10.572,14.304 C10.973,15.36 11.714,16.245 12.659,16.795 C12.779,16.865 12.905,16.933 13.033,17 L5,17 L5,19 L18.863,19 C23.002,20.084 24.039,22.3 24.057,22.333 C25.122,25.348 23.361,27.222 23.323,27.264 C20.638,29.732 16.212,29.021 16.103,29.005 C11.896,28.569 11.02,24.017 10.984,23.824 L10,24 L9,24 L9,30 L11,30 L11,28.359 C12.089,29.669 13.657,30.761 15.831,30.985 C15.909,30.999 16.631,31.118 17.683,31.118 C19.562,31.118 22.498,30.739 24.708,28.706 C24.821,28.593 27.438,25.9 25.924,21.617 C25.889,21.534 25.338,20.264 23.608,19 L31,19 L31,17 Z"/>
</svg>
