<svg xmlns="http://www.w3.org/2000/svg" width="36" height="36" viewBox="0 0 36 36">
  <path fill-rule="evenodd" d="M23,17 L29,17 L29,13 L23,13 L23,17 Z M23,29 L29,29 L29,25 L23,25 L23,29 Z M15,29 L21,29 L21,25 L15,25 L15,29 Z M7,29 L13,29 L13,25 L7,25 L7,29 Z M7,17 L13,17 L13,13 L7,13 L7,17 Z M7,11 L13,11 L13,7 L7,7 L7,11 Z M15,17 L21,17 L21,13 L15,13 L15,17 Z M7,23 L13,23 L13,19 L7,19 L7,23 Z M23,23 L29,23 L29,19 L23,19 L23,23 Z M15,23 L21,23 L21,19 L15,19 L15,23 Z M15,11 L21,11 L21,7 L15,7 L15,11 Z M23,11 L29,11 L29,7 L23,7 L23,11 Z M23,5 L13,5 L5,5 L5,13 L5,17 L5,25 L5,31 L13,31 L23,31 L31,31 L31,25 L31,17 L31,13 L31,5 L23,5 Z"/>
</svg>
