<svg xmlns="http://www.w3.org/2000/svg" width="36" height="36" viewBox="0 0 36 36">
  <g fill-rule="evenodd">
    <path d="M19.5,28 C19.5,28.828 18.828,29.5 18,29.5 C17.172,29.5 16.5,28.828 16.5,28 C16.5,27.172 17.172,26.5 18,26.5 C18.828,26.5 19.5,27.172 19.5,28"/>
    <path d="M10,5 C9.449,5 9,5.449 9,6 L9,30 C9,30.552 9.449,31 10,31 L26,31 C26.551,31 27,30.552 27,30 L27,6 C27,5.449 26.551,5 26,5 L10,5 Z M26,33 L10,33 C8.346,33 7,31.654 7,30 L7,6 C7,4.346 8.346,3 10,3 L26,3 C27.654,3 29,4.346 29,6 L29,30 C29,31.654 27.654,33 26,33 L26,33 Z"/>
  </g>
</svg>
