<svg xmlns="http://www.w3.org/2000/svg" width="36" height="36" viewBox="0 0 36 36">
  <g fill-rule="evenodd">
    <path d="M8.0003,13.2927 L3.2933,17.9997 L2.0003,19.2927 L3.4143,20.7067 L4.7073,19.4147 L17.7063,32.4137 L27.4143,22.7067 L32.1213,17.9997 L33.4143,16.7077 L31.9993,15.2937 L30.7073,16.5857 L17.7063,3.5867 L8.0003,13.2927 Z M6.1213,17.9997 L9.4143,14.7067 L17.7063,6.4137 L29.2933,17.9997 L26.0003,21.2927 L17.7063,29.5867 L6.1213,17.9997 Z"/>
    <polygon points="14.707 13 20.707 13 20.707 11 14.707 11"/>
    <polygon points="12.707 17 22.707 17 22.707 15 12.707 15"/>
    <polygon points="12.707 21 22.707 21 22.707 19 12.707 19"/>
    <polygon points="14.707 25 20.707 25 20.707 23 14.707 23"/>
  </g>
</svg>
