<svg xmlns="http://www.w3.org/2000/svg" width="36" height="36" viewBox="0 0 36 36">
  <g fill="none" fill-rule="evenodd">
    <path fill="#000" fill-rule="nonzero" d="M9,7 L9,19 C9,22.0882936 10.6396023,24.9790035 13.4704001,27.5888035 C14.5157234,28.5525194 15.6524847,29.4093151 16.8018493,30.146736 C17.2691065,30.4465236 17.6752545,30.6875246 17.9999067,30.8684028 C18.3261057,30.6867175 18.7316757,30.4460217 19.1981507,30.146736 C20.3475153,29.4093151 21.4842766,28.5525194 22.5295999,27.5888035 C25.3603977,24.9790035 27,22.0882936 27,19 L27,7 L9,7 Z M7,5 L29,5 L29,19 C29,27.514 18.878,32.679 18.448,32.895 L18,33.118 L17.552,32.895 C17.122,32.679 7,27.514 7,19 L7,5 Z"/>
    <polygon fill="#000" points="16 22.414 11.293 17.707 12.707 16.293 16 19.586 23.293 12.293 24.707 13.707"/>
    <rect width="36" height="36"/>
  </g>
</svg>
