<svg xmlns="http://www.w3.org/2000/svg" width="36" height="36" viewBox="0 0 36 36">
  <g fill-rule="evenodd">
    <path d="M6.998 16.0029C6.998 15.7079 7.013 15.4109 7.043 15.1129L5.053 14.9139C5.017 15.2779 4.998 15.6419 4.998 16.0029 4.998 16.3609 5.016 16.7169 5.05 17.0699L7.04 16.8759C7.012 16.5869 6.998 16.2959 6.998 16.0029M5.4963 12.9918L5.4863 12.9898C5.4883 12.9938 5.4913 12.9998 5.4943 12.9998 5.4953 12.9968 5.4953 12.9948 5.4963 12.9918M7.3848 18.6045L5.4708 19.1825C5.6778 19.8695 5.9548 20.5405 6.2938 21.1755L8.0578 20.2335C7.7808 19.7145 7.5548 19.1665 7.3848 18.6045M8.0635 11.8141L6.2975 10.9361C5.9805 11.5321 5.7165 11.9981 5.4965 12.9921L7.3925 13.3681C7.5635 12.8091 7.7895 12.3281 8.0635 11.8141M9.0371 21.7036L7.4881 22.9686C7.9421 23.5246 8.4541 24.0386 9.0101 24.4966L10.2811 22.9526C9.8271 22.5786 9.4081 22.1586 9.0371 21.7036M24.6123 13.3828L26.5243 12.7988C26.3153 12.1118 26.0373 11.4418 25.6983 10.8088L23.9343 11.7538C24.2123 12.2718 24.4403 12.8198 24.6123 13.3828M5.46 12.9846L5.486 12.9896C5.477 12.9766 5.469 12.9566 5.46 12.9846M25.002 15.9971C25.002 16.2881 24.988 16.5801 24.959 16.8721L26.949 17.0691C26.984 16.7101 27.002 16.3531 27.002 15.9971 27.002 15.6341 26.983 15.2721 26.948 14.9141L24.958 15.1101C24.987 15.4041 25.002 15.7001 25.002 15.9971M7.498 9.0166L9.043 10.2866C9.414 9.8346 9.834 9.4156 10.291 9.0396L9.023 7.4946C8.465 7.9526 7.951 8.4646 7.498 9.0166M22.9541 10.2856L24.5011 9.0166C24.0431 8.4596 23.5301 7.9466 22.9751 7.4916L21.7081 9.0386C22.1601 9.4096 22.5801 9.8286 22.9541 10.2856M23.9297 20.2612L25.6937 21.2052C26.0307 20.5762 26.3087 19.9072 26.5257 19.1992L26.5337 19.1682 24.6077 18.6312C24.4337 19.1982 24.2057 19.7462 23.9297 20.2612M19.1982 5.4751L18.6312 7.3931C19.1912 7.5651 19.7332 7.7891 20.2412 8.0601L21.1822 6.2951C20.5602 5.9641 19.8992 5.6901 19.2212 5.4821L19.1982 5.4751zM18.5967 24.6177L19.1747 26.5327C19.8607 26.3257 20.5307 26.0487 21.1667 25.7107L20.2277 23.9447C19.7057 24.2217 19.1577 24.4487 18.5967 24.6177M24.0344 22.6204L23.7074 22.2934 23.6754 22.3244 22.9484 21.7244C22.5744 22.1784 22.1534 22.5964 21.6984 22.9674L22.2974 23.7024 22.2934 23.7074 22.3364 23.7504 22.9614 24.5184C23.5184 24.0644 24.0334 23.5524 24.4914 22.9974L24.0344 22.6204zM14.9199 5.0508L15.1189 7.0408C15.6969 6.9838 16.2869 6.9828 16.8809 7.0408L17.0759 5.0508C16.3519 4.9788 15.6289 4.9798 14.9199 5.0508M15.1055 24.957L14.9045 26.947C15.2725 26.984 15.6385 27.002 16.0045 27.002 16.3585 27.002 16.7105 26.985 17.0605 26.951L16.8695 24.96C16.2865 25.016 15.6975 25.017 15.1055 24.957M13 26.5127C12.984 26.5097 12.974 26.5047 12.958 26.5017L12.95 26.5337C12.928 26.5267 13 26.5197 13 26.5127"/>
    <path d="M11.8042 23.9331L10.9192 25.6961C11.5192 26.0171 11.9902 26.2841 12.9582 26.5021L13.4552 24.6061C12.8932 24.4341 12.3192 24.2081 11.8042 23.9331M13.3896 7.3867L12.8096 5.4727C12.1226 5.6807 11.4526 5.9587 10.8176 6.2987L11.7606 8.0617C12.2806 7.7837 12.8276 7.5567 13.3896 7.3867"/>
    <polygon points="28.465 27.05 27.051 28.464 28.465 29.878 29.879 28.464"/>
    <polygon points="31.293 29.879 29.879 31.293 31.293 32.707 32.707 31.293"/>
    <polygon points="24.222 25.636 25.636 27.051 27.05 25.636 25.636 24.222"/>
  </g>
</svg>
