<svg width="62" height="62" viewBox="0 0 62 62" fill="none" xmlns="http://www.w3.org/2000/svg">
<path d="M26.9924 10.916C30.7005 10.916 33.7003 13.9158 33.7003 17.618C33.7003 21.3261 30.7005 24.3319 26.9924 24.3319C23.2902 24.3319 20.2904 21.3261 20.2904 17.618C20.2904 13.9158 23.2902 10.916 26.9924 10.916Z" fill="white"/>
<path d="M47.3424 31.0219C47.3424 34.73 44.3366 37.7298 40.6285 37.7298C36.9323 37.7298 33.9265 34.73 33.9265 31.0219C33.9265 27.3138 36.9323 24.314 40.6285 24.314C44.3425 24.314 47.3424 27.3197 47.3424 31.0219Z" fill="white"/>
<path d="M26.9745 37.7537C30.6767 37.7537 33.6824 40.7594 33.6824 44.4616C33.6824 48.1697 30.6767 51.1695 26.9745 51.1695C23.2664 51.1695 20.2666 48.1697 20.2666 44.4616C20.2666 40.7594 23.2664 37.7537 26.9745 37.7537Z" fill="white"/>
<path d="M48.4435 48.4493C43.9675 52.9193 37.8191 55.6751 30.9921 55.6751C24.1711 55.6751 18.0227 52.9193 13.5468 48.4493C9.07682 43.9734 6.32104 37.825 6.32104 31.004C6.32104 24.183 9.07682 18.0345 13.5527 13.5586C18.0287 9.08864 24.1711 6.3269 30.9981 6.3269C37.8191 6.3269 43.9675 9.08864 48.4435 13.5586C52.9134 18.0345 55.6692 24.183 55.6692 31.004C55.6692 37.825 52.9134 43.9734 48.4435 48.4493ZM30.9981 0.00585938C13.8741 0.00585938 0 13.88 0 31.004C0 48.122 13.8741 61.9961 30.9981 62.0021C48.1161 61.9961 61.9902 48.122 61.9962 31.004C61.9902 13.88 48.1161 0.00585938 30.9981 0.00585938Z" fill="white"/>
</svg>
