<svg width="54" height="54" viewBox="0 0 54 54" fill="none" xmlns="http://www.w3.org/2000/svg">
<path fill-rule="evenodd" clip-rule="evenodd" d="M13.2802 49.5722C21.2198 44.9793 26.5615 36.3949 26.5615 26.563C26.5615 16.731 21.2198 8.14665 13.2802 3.55376C17.1873 1.29358 21.7235 0 26.5619 0C41.2322 0 53.1249 11.8926 53.1249 26.563C53.1249 41.2333 41.2322 53.1259 26.5619 53.1259C21.7235 53.1259 17.1873 51.8324 13.2802 49.5722ZM46.484 26.5633C46.484 30.2308 43.5109 33.204 39.8433 33.204C36.1757 33.204 33.2025 30.2308 33.2025 26.5633C33.2025 22.8957 36.1757 19.9225 39.8433 19.9225C43.5109 19.9225 46.484 22.8957 46.484 26.5633ZM13.2799 33.204C16.9475 33.204 19.9206 30.2308 19.9206 26.5633C19.9206 22.8957 16.9475 19.9225 13.2799 19.9225C9.61232 19.9225 6.63916 22.8957 6.63916 26.5633C6.63916 30.2308 9.61232 33.204 13.2799 33.204Z" fill="#021322"/>
</svg>
