<svg width="55" height="78" viewBox="0 0 55 78" fill="none" xmlns="http://www.w3.org/2000/svg">
<path d="M5.53111 77.0061H9.88746L15.3451 64.3531H10.4993L7.70929 71.5974L4.84584 64.3531H0L5.53111 77.0061Z" fill="#021322"/>
<path d="M20.248 77.2998C24.1883 77.2998 27.3944 74.314 27.3944 70.6674C27.3944 67.0207 24.1883 64.0594 20.248 64.0594C16.3077 64.0594 13.0771 67.0207 13.0771 70.6674C13.0771 74.314 16.3077 77.2998 20.248 77.2998ZM20.248 73.384C18.7551 73.384 17.5314 72.1603 17.5314 70.6674C17.5314 69.1744 18.7551 67.9752 20.248 67.9752C21.7409 67.9752 22.9401 69.1744 22.9401 70.6674C22.9401 72.1603 21.7409 73.384 20.248 73.384Z" fill="#021322"/>
<path d="M27.2009 77.0061H31.9243V60.5634H27.2009V77.0061Z" fill="#021322"/>
<path d="M40.1057 73.0168C39.8609 73.2371 39.3959 73.384 38.9554 73.384C38.3191 73.384 37.8786 72.8455 37.8786 72.0868V68.0731H40.3749V64.3531H37.8786V62.4887H33.3754V64.3531H31.7846V68.0731H33.3754V73.0168C33.3754 75.5377 35.1375 77.2998 37.6583 77.2998C38.7841 77.2998 40.1302 76.7614 40.9133 76.0027L40.1057 73.0168Z" fill="#021322"/>
<path d="M46.9092 77.2998C50.8495 77.2998 54.0556 74.314 54.0556 70.6674C54.0556 67.0207 50.8495 64.0594 46.9092 64.0594C42.9689 64.0594 39.7384 67.0207 39.7384 70.6674C39.7384 74.314 42.9689 77.2998 46.9092 77.2998ZM46.9092 73.384C45.4163 73.384 44.1926 72.1603 44.1926 70.6674C44.1926 69.1744 45.4163 67.9752 46.9092 67.9752C48.4022 67.9752 49.6014 69.1744 49.6014 70.6674C49.6014 72.1603 48.4022 73.384 46.9092 73.384Z" fill="#021322"/>
<path fill-rule="evenodd" clip-rule="evenodd" d="M13.6784 49.5722C21.618 44.9793 26.9597 36.3949 26.9597 26.563C26.9597 16.731 21.618 8.14665 13.6784 3.55376C17.5855 1.29358 22.1217 0 26.9601 0C41.6304 0 53.523 11.8926 53.523 26.563C53.523 41.2333 41.6304 53.1259 26.9601 53.1259C22.1217 53.1259 17.5855 51.8324 13.6784 49.5722ZM46.8822 26.5633C46.8822 30.2308 43.9091 33.204 40.2415 33.204C36.5739 33.204 33.6007 30.2308 33.6007 26.5633C33.6007 22.8957 36.5739 19.9225 40.2415 19.9225C43.9091 19.9225 46.8822 22.8957 46.8822 26.5633ZM13.6781 33.204C17.3457 33.204 20.3188 30.2308 20.3188 26.5633C20.3188 22.8957 17.3457 19.9225 13.6781 19.9225C10.0105 19.9225 7.03735 22.8957 7.03735 26.5633C7.03735 30.2308 10.0105 33.204 13.6781 33.204Z" fill="#021322"/>
</svg>
