<?xml version="1.0" encoding="iso-8859-1"?>
<!-- Generator: Adobe Illustrator 19.0.0, SVG Export Plug-In . SVG Version: 6.00 Build 0)  -->
<svg version="1.1" id="Capa_1" xmlns="http://www.w3.org/2000/svg" xmlns:xlink="http://www.w3.org/1999/xlink" x="0px" y="0px"
	 viewBox="0 0 490.667 490.667" style="enable-background:new 0 0 490.667 490.667;" xml:space="preserve">
<g>
	<path style="fill:#455A64;" d="M480,181.44H53.333c-5.891,0-10.667-4.776-10.667-10.667c0-5.891,4.776-10.667,10.667-10.667H480
		c5.891,0,10.667,4.776,10.667,10.667C490.667,176.664,485.891,181.44,480,181.44z"/>
	<path style="fill:#455A64;" d="M437.333,330.773H10.667C4.776,330.773,0,325.998,0,320.106c0-5.891,4.776-10.667,10.667-10.667
		h426.667c5.891,0,10.667,4.776,10.667,10.667C448,325.998,443.224,330.773,437.333,330.773z"/>
	<path style="fill:#455A64;" d="M245.333,458.773c-5.891-0.001-10.666-4.778-10.664-10.669c0-1.259,0.223-2.507,0.659-3.688
		L384.661,39.082c1.922-5.569,7.995-8.524,13.563-6.602c5.569,1.922,8.524,7.995,6.602,13.563c-0.049,0.141-0.1,0.281-0.155,0.42
		L255.339,451.797C253.793,455.988,249.8,458.772,245.333,458.773z"/>
	<path style="fill:#455A64;" d="M96,458.773c-5.891-0.001-10.666-4.778-10.664-10.669c0-1.259,0.223-2.507,0.659-3.688
		L235.328,39.082c1.922-5.569,7.995-8.524,13.563-6.602c5.569,1.922,8.524,7.995,6.602,13.563c-0.049,0.141-0.1,0.281-0.155,0.42
		L106.005,451.797C104.46,455.988,100.467,458.772,96,458.773z"/>
</g>
<path d="M480,181.44H53.333c-5.891,0-10.667-4.776-10.667-10.667c0-5.891,4.776-10.667,10.667-10.667H480
	c5.891,0,10.667,4.776,10.667,10.667C490.667,176.664,485.891,181.44,480,181.44z"/>
<path d="M437.333,330.773H10.667C4.776,330.773,0,325.998,0,320.106c0-5.891,4.776-10.667,10.667-10.667h426.667
	c5.891,0,10.667,4.776,10.667,10.667C448,325.998,443.224,330.773,437.333,330.773z"/>
<path d="M245.333,458.773c-5.891-0.001-10.666-4.778-10.664-10.669c0-1.259,0.223-2.507,0.659-3.688L384.661,39.082
	c1.922-5.569,7.995-8.524,13.563-6.602c5.569,1.922,8.524,7.995,6.602,13.563c-0.049,0.141-0.1,0.281-0.155,0.42L255.339,451.797
	C253.793,455.988,249.8,458.772,245.333,458.773z"/>
<path d="M96,458.773c-5.891-0.001-10.666-4.778-10.664-10.669c0-1.259,0.223-2.507,0.659-3.688L235.328,39.082
	c1.922-5.569,7.995-8.524,13.563-6.602c5.569,1.922,8.524,7.995,6.602,13.563c-0.049,0.141-0.1,0.281-0.155,0.42L106.005,451.797
	C104.46,455.988,100.467,458.772,96,458.773z"/>
<g>
</g>
<g>
</g>
<g>
</g>
<g>
</g>
<g>
</g>
<g>
</g>
<g>
</g>
<g>
</g>
<g>
</g>
<g>
</g>
<g>
</g>
<g>
</g>
<g>
</g>
<g>
</g>
<g>
</g>
</svg>
