<?xml version="1.0" encoding="UTF-8"?>
<svg width="1200px" height="1200px" viewBox="0 0 1200 1200" version="1.1" xmlns="http://www.w3.org/2000/svg" xmlns:xlink="http://www.w3.org/1999/xlink">
    <!-- Generator: Sketch 50.2 (55047) - http://www.bohemiancoding.com/sketch -->
    <title>Artboard</title>
    <desc>Created with Sketch.</desc>
    <defs>
        <rect id="path-1" x="0" y="0" width="800" height="800"></rect>
    </defs>
    <g id="Artboard" stroke="none" stroke-width="1" fill="none" fill-rule="evenodd">
        <g id="Group" transform="translate(200.000000, 140.000000)">
            <g id="Group-6">
                <mask id="mask-2" fill="white">
                    <use xlink:href="#path-1"></use>
                </mask>
                <use id="Mask" fill="#FFDB35" xlink:href="#path-1"></use>
            </g>
            <g id="Group-5" transform="translate(202.000000, 144.000000)"></g>
            <path d="M60.066,865.344 C60.066,865.597335 59.8760019,865.825332 59.496,866.028 C59.1159981,866.230668 58.6726692,866.332 58.166,866.332 C57.9633323,866.332 57.6846684,866.294 57.33,866.218 C56.9753316,866.142 56.7726669,866.053334 56.722,865.952 C56.0126631,863.165319 54.3280133,860.08735 51.668,856.718 C49.0079867,853.34865 46.5126783,851.664 44.182,851.664 L43.042,851.664 C41.8766608,851.664 41.0406692,851.904664 40.534,852.386 C40.0273308,852.867336 39.774,853.614662 39.774,854.628 L39.774,890.652 C39.774,892.678677 40.2553285,894.173329 41.218,895.136 C42.1806715,896.098671 44.1313186,896.731998 47.07,897.036 C47.2220008,897.036 47.3613327,897.251331 47.488,897.682 C47.6146673,898.112669 47.678,898.454665 47.678,898.708 C47.678,899.012002 47.6146673,899.366665 47.488,899.772 C47.3613327,900.177335 47.2220008,900.38 47.07,900.38 C44.6379878,900.38 42.1426795,900.316667 39.584,900.19 C37.0253205,900.063333 34.6060114,900 32.326,900 C29.9953217,900 27.563346,900.063333 25.03,900.19 C22.496654,900.316667 19.9886791,900.38 17.506,900.38 C17.3539992,900.38 17.2146673,900.177335 17.088,899.772 C16.9613327,899.366665 16.898,899.012002 16.898,898.708 C16.898,898.454665 16.9613327,898.125335 17.088,897.72 C17.2146673,897.314665 17.3539992,897.086667 17.506,897.036 C20.4953483,896.681332 22.458662,896.048005 23.396,895.136 C24.333338,894.223995 24.802,892.729344 24.802,890.652 L24.802,854.628 C24.802,853.513328 24.5740023,852.740669 24.118,852.31 C23.6619977,851.879331 22.800673,851.664 21.534,851.664 L20.926,851.664 C18.8486563,851.664 16.2900152,853.221984 13.25,856.338 C10.2099848,859.454016 8.056673,862.65865 6.79,865.952 C6.73933308,866.104001 6.54933498,866.205333 6.22,866.256 C5.89066502,866.306667 5.62466768,866.332 5.422,866.332 C4.96599772,866.332 4.52266882,866.230668 4.092,866.028 C3.66133118,865.825332 3.446,865.597335 3.446,865.344 C3.9526692,862.810654 4.49733042,859.707352 5.08,856.034 C5.66266958,852.360648 6.0806654,849.308012 6.334,846.876 C8.1073422,847.180002 10.8686479,847.433332 14.618,847.636 C18.3673521,847.838668 24.2699597,847.94 32.326,847.94 C39.2167011,847.94 44.9546437,847.838668 49.54,847.636 C54.1253563,847.433332 57.1526593,847.180002 58.622,846.876 C58.7740008,849.308012 58.9766654,852.195983 59.23,855.54 C59.4833346,858.884017 59.7619985,862.151984 60.066,865.344 Z M105.89,898.708 C105.89,899.012002 105.826667,899.366665 105.7,899.772 C105.573333,900.177335 105.434001,900.38 105.282,900.38 C103.711325,900.38 101.90001,900.316667 99.848,900.19 C97.7959897,900.063333 95.8833422,900 94.11,900 C92.3873247,900 90.6900084,900.063333 89.018,900.19 C87.3459916,900.316667 85.7500076,900.38 84.23,900.38 C84.0779992,900.38 83.9386673,900.177335 83.812,899.772 C83.6853327,899.366665 83.622,899.012002 83.622,898.708 C83.622,898.454665 83.6853327,898.125335 83.812,897.72 C83.9386673,897.314665 84.0779992,897.086667 84.23,897.036 C85.2433384,896.883999 86.0033308,896.390004 86.51,895.554 C87.0166692,894.717996 87.27,893.084012 87.27,890.652 L87.27,878.644 C87.27,876.110654 86.966003,874.299339 86.358,873.21 C85.749997,872.120661 84.5846753,871.576 82.862,871.576 C81.3926593,871.576 80.2020046,872.069995 79.29,873.058 C78.3779954,874.046005 77.4660046,875.629322 76.554,877.808 L76.554,890.652 C76.554,892.881344 76.7946643,894.477329 77.276,895.44 C77.7573357,896.402671 78.5046616,896.934666 79.518,897.036 C79.6700008,897.036 79.8093327,897.251331 79.936,897.682 C80.0626673,898.112669 80.126,898.454665 80.126,898.708 C80.126,899.062668 80.0626673,899.429998 79.936,899.81 C79.8093327,900.190002 79.6700008,900.38 79.518,900.38 C77.9473255,900.38 76.3513414,900.316667 74.73,900.19 C73.1086586,900.063333 71.4113422,900 69.638,900 C67.8646578,900 65.9520103,900.063333 63.9,900.19 C61.8479897,900.316667 60.0620076,900.38 58.542,900.38 C58.3899992,900.38 58.2506673,900.190002 58.124,899.81 C57.9973327,899.429998 57.934,899.062668 57.934,898.708 C57.934,898.454665 57.9973327,898.125335 58.124,897.72 C58.2506673,897.314665 58.3899992,897.086667 58.542,897.036 C60.7713445,896.782665 62.1773304,896.28867 62.76,895.554 C63.3426696,894.81933 63.634,893.185346 63.634,890.652 L63.634,859.264 C63.634,857.28799 63.2540038,855.983336 62.494,855.35 C61.7339962,854.716663 60.416676,854.298668 58.542,854.096 C58.3899992,854.045333 58.2506673,853.830002 58.124,853.45 C57.9973327,853.069998 57.934,852.753335 57.934,852.5 C57.934,852.246665 57.9973327,851.917335 58.124,851.512 C58.2506673,851.106665 58.3899992,850.904 58.542,850.904 C60.9233452,850.397331 63.6719844,849.561339 66.788,848.396 C69.9040156,847.230661 72.2219924,846.268004 73.742,845.508 C73.8940008,845.406666 74.1473316,845.280001 74.502,845.128 C74.8566684,844.975999 75.1606654,844.9 75.414,844.9 C76.07267,844.9 76.5286654,845.001332 76.782,845.204 C77.0353346,845.406668 77.162,845.634665 77.162,845.888 C77.0099992,847.813343 76.8706673,850.042654 76.744,852.576 C76.6173327,855.109346 76.554,857.161325 76.554,858.732 L76.554,872.26 C77.6686722,869.878655 79.3153224,868.118006 81.494,866.978 C83.6726776,865.837994 85.8513224,865.268 88.03,865.268 C91.830019,865.268 94.7939894,866.445988 96.922,868.802 C99.0500106,871.158012 100.114,873.830652 100.114,876.82 L100.114,890.652 C100.114,893.084012 100.417997,894.705329 101.026,895.516 C101.634003,896.326671 103.052656,896.833332 105.282,897.036 C105.434001,897.036 105.573333,897.251331 105.7,897.682 C105.826667,898.112669 105.89,898.454665 105.89,898.708 Z M140.01,880.012 C140.01,880.366668 139.883335,880.645332 139.63,880.848 C139.376665,881.050668 139.022002,881.152 138.566,881.152 L117.59,881.152 C117.539333,881.506668 117.514,881.97533 117.514,882.558 L117.514,884.192 C117.514,888.448021 118.21066,891.411992 119.604,893.084 C120.99734,894.756008 123.01132,895.592 125.646,895.592 C127.470009,895.592 129.521989,895.136005 131.802,894.224 C134.082011,893.311995 135.728662,892.172007 136.742,890.804 C136.792667,890.702666 136.944665,890.740666 137.198,890.918 C137.451335,891.095334 137.679332,891.259999 137.882,891.412 C138.135335,891.665335 138.350666,891.931332 138.528,892.21 C138.705334,892.488668 138.794,892.754665 138.794,893.008 C138.794,893.109334 138.781333,893.210666 138.756,893.312 C138.730667,893.413334 138.667334,893.514666 138.566,893.616 C137.299327,895.440009 135.424679,897.213325 132.942,898.936 C130.459321,900.658675 127.140687,901.52 122.986,901.52 C117.56464,901.52 113.004685,899.772017 109.306,896.276 C105.607315,892.779983 103.758,888.65069 103.758,883.888 C103.758,878.517306 105.518649,874.071351 109.04,870.55 C112.561351,867.028649 117.209971,865.268 122.986,865.268 C128.25536,865.268 132.409985,866.686652 135.45,869.524 C138.490015,872.361348 140.01,875.857313 140.01,880.012 Z M127.394,874.312 C127.394,872.791992 127.052003,871.500005 126.368,870.436 C125.683997,869.371995 124.658007,868.84 123.29,868.84 C121.617992,868.84 120.376671,869.650659 119.566,871.272 C118.755329,872.893341 118.223335,875.02132 117.97,877.656 L124.202,877.504 C125.316672,877.453333 126.127331,877.238002 126.634,876.858 C127.140669,876.477998 127.394,875.62934 127.394,874.312 Z M214.026,898.708 C213.975333,899.012002 213.861334,899.366665 213.684,899.772 C213.506666,900.177335 213.342001,900.38 213.19,900.38 C211.771326,900.38 209.896678,900.316667 207.566,900.19 C205.235322,900.063333 203.639338,900 202.778,900 C201.561994,900 199.96601,900.063333 197.99,900.19 C196.01399,900.316667 194.418006,900.38 193.202,900.38 L183.626,880.924 C182.865996,879.403992 181.954005,878.35267 180.89,877.77 C179.825995,877.18733 178.382009,876.896 176.558,876.896 L176.558,890.652 C176.558,892.678677 176.937996,894.173329 177.698,895.136 C178.458004,896.098671 180.307319,896.731998 183.246,897.036 C183.398001,897.036 183.537333,897.251331 183.664,897.682 C183.790667,898.112669 183.854,898.454665 183.854,898.708 C183.854,899.012002 183.790667,899.366665 183.664,899.772 C183.537333,900.177335 183.398001,900.38 183.246,900.38 C180.763321,900.38 178.356678,900.316667 176.026,900.19 C173.695322,900.063333 171.364678,900 169.034,900 C166.703322,900 164.284013,900.063333 161.776,900.19 C159.267987,900.316667 156.772679,900.38 154.29,900.38 C154.137999,900.38 153.998667,900.190002 153.872,899.81 C153.745333,899.429998 153.682,899.062668 153.682,898.708 C153.682,898.454665 153.745333,898.125335 153.872,897.72 C153.998667,897.314665 154.137999,897.086667 154.29,897.036 C157.228681,896.681332 159.166662,896.048005 160.104,895.136 C161.041338,894.223995 161.51,892.729344 161.51,890.652 L161.51,857.288 C161.51,855.210656 161.041338,853.716005 160.104,852.804 C159.166662,851.891995 157.228681,851.258668 154.29,850.904 C154.137999,850.853333 153.998667,850.625335 153.872,850.22 C153.745333,849.814665 153.682,849.485335 153.682,849.232 C153.682,848.877332 153.745333,848.510002 153.872,848.13 C153.998667,847.749998 154.137999,847.56 154.29,847.56 C156.772679,847.56 159.318654,847.623333 161.928,847.75 C164.537346,847.876667 167.007322,847.94 169.338,847.94 C171.668678,847.94 173.745991,847.876667 175.57,847.75 C177.394009,847.623333 179.547321,847.56 182.03,847.56 C190.238041,847.56 196.165982,848.91532 199.814,851.626 C203.462018,854.33668 205.286,857.515982 205.286,861.164 C205.286,864.609351 204.462675,867.383323 202.816,869.486 C201.169325,871.588677 198.496685,873.197328 194.798,874.312 L205.21,891.716 C206.274005,893.489342 207.363328,894.755996 208.478,895.516 C209.592672,896.276004 211.315322,896.782665 213.646,897.036 C213.798001,897.036 213.912,897.251331 213.988,897.682 C214.064,898.112669 214.076667,898.454665 214.026,898.708 Z M189.63,862.532 C189.63,858.630647 188.920674,855.780676 187.502,853.982 C186.083326,852.183324 183.904681,851.284 180.966,851.284 C179.141991,851.284 177.951336,851.638663 177.394,852.348 C176.836664,853.057337 176.558,854.298658 176.558,856.072 L176.558,873.248 C176.862002,873.298667 177.30533,873.349333 177.888,873.4 C178.47067,873.450667 179.015331,873.476 179.522,873.476 C183.119351,873.476 185.703325,872.665341 187.274,871.044 C188.844675,869.422659 189.63,866.585354 189.63,862.532 Z M244.118,880.012 C244.118,880.366668 243.991335,880.645332 243.738,880.848 C243.484665,881.050668 243.130002,881.152 242.674,881.152 L221.698,881.152 C221.647333,881.506668 221.622,881.97533 221.622,882.558 L221.622,884.192 C221.622,888.448021 222.31866,891.411992 223.712,893.084 C225.10534,894.756008 227.11932,895.592 229.754,895.592 C231.578009,895.592 233.629989,895.136005 235.91,894.224 C238.190011,893.311995 239.836662,892.172007 240.85,890.804 C240.900667,890.702666 241.052665,890.740666 241.306,890.918 C241.559335,891.095334 241.787332,891.259999 241.99,891.412 C242.243335,891.665335 242.458666,891.931332 242.636,892.21 C242.813334,892.488668 242.902,892.754665 242.902,893.008 C242.902,893.109334 242.889333,893.210666 242.864,893.312 C242.838667,893.413334 242.775334,893.514666 242.674,893.616 C241.407327,895.440009 239.532679,897.213325 237.05,898.936 C234.567321,900.658675 231.248687,901.52 227.094,901.52 C221.67264,901.52 217.112685,899.772017 213.414,896.276 C209.715315,892.779983 207.866,888.65069 207.866,883.888 C207.866,878.517306 209.626649,874.071351 213.148,870.55 C216.669351,867.028649 221.317971,865.268 227.094,865.268 C232.36336,865.268 236.517985,866.686652 239.558,869.524 C242.598015,872.361348 244.118,875.857313 244.118,880.012 Z M231.502,874.312 C231.502,872.791992 231.160003,871.500005 230.476,870.436 C229.791997,869.371995 228.766007,868.84 227.398,868.84 C225.725992,868.84 224.484671,869.650659 223.674,871.272 C222.863329,872.893341 222.331335,875.02132 222.078,877.656 L228.31,877.504 C229.424672,877.453333 230.235331,877.238002 230.742,876.858 C231.248669,876.477998 231.502,875.62934 231.502,874.312 Z M284.242,896.732 C284.191333,896.884001 284.166,897.010666 284.166,897.112 C284.166,897.213334 284.090001,897.314666 283.938,897.416 C282.975329,898.530672 281.480677,899.442663 279.454,900.152 C277.427323,900.861337 275.350011,901.216 273.222,901.216 C271.144656,901.216 269.460006,900.747338 268.168,899.81 C266.875994,898.872662 266.027335,897.618675 265.622,896.048 C264.456661,897.821342 262.974676,899.125996 261.176,899.962 C259.377324,900.798004 257.16068,901.216 254.526,901.216 C251.637986,901.216 249.193343,900.55734 247.192,899.24 C245.190657,897.92266 244.19,895.921347 244.19,893.236 C244.19,890.246652 245.83665,887.814676 249.13,885.94 C252.42335,884.065324 257.945961,882.266675 265.698,880.544 L265.926,873.096 C265.926,871.525325 265.698002,870.486669 265.242,869.98 C264.785998,869.473331 264.026005,869.22 262.962,869.22 C261.897995,869.22 260.922671,869.422665 260.036,869.828 C259.149329,870.233335 258.655334,871.069327 258.554,872.336 C258.300665,875.477349 257.642005,877.655994 256.578,878.872 C255.513995,880.088006 253.943344,880.696 251.866,880.696 C249.991324,880.696 248.560005,880.151339 247.572,879.062 C246.583995,877.972661 246.09,876.668008 246.09,875.148 C246.09,872.614654 248.154646,870.284011 252.284,868.156 C256.413354,866.027989 261.036641,864.964 266.154,864.964 C270.815357,864.964 273.994658,866.129322 275.692,868.46 C277.389342,870.790678 278.162001,873.957313 278.01,877.96 L277.63,891.184 C277.528666,892.957342 277.781997,894.109997 278.39,894.642 C278.998003,895.174003 279.580664,895.44 280.138,895.44 C280.594002,895.44 281.024665,895.364001 281.43,895.212 C281.835335,895.059999 282.189998,894.857335 282.494,894.604 C282.696668,894.451999 283.038664,894.641997 283.52,895.174 C284.001336,895.706003 284.242,896.225331 284.242,896.732 Z M265.546,883.356 C262.556652,884.065337 260.40334,885.027994 259.086,886.244 C257.76866,887.460006 257.11,889.207989 257.11,891.488 C257.11,892.754673 257.451997,893.767996 258.136,894.528 C258.820003,895.288004 259.769994,895.668 260.986,895.668 C261.999338,895.668 262.923996,895.351337 263.76,894.718 C264.596004,894.084664 265.115332,892.881342 265.318,891.108 L265.546,883.356 Z M317.602,874.312 C317.602,875.680007 317.171338,876.933994 316.31,878.074 C315.448662,879.214006 314.182008,879.784 312.51,879.784 C310.584657,879.784 309.229337,879.226672 308.444,878.112 C307.658663,876.997328 307.063335,875.730674 306.658,874.312 C306.303332,873.045327 305.847336,871.816673 305.29,870.626 C304.732664,869.435327 303.744674,868.84 302.326,868.84 C300.34999,868.84 298.792006,869.764657 297.652,871.614 C296.511994,873.463343 295.942,877.149306 295.942,882.672 C295.942,886.522686 296.499328,889.638655 297.614,892.02 C298.728672,894.401345 301.084649,895.592 304.682,895.592 C306.65801,895.592 308.63399,895.199337 310.61,894.414 C312.58601,893.628663 314.080662,892.729338 315.094,891.716 C315.144667,891.614666 315.309332,891.652666 315.588,891.83 C315.866668,892.007334 316.081999,892.197332 316.234,892.4 C316.487335,892.653335 316.702666,892.919332 316.88,893.198 C317.057334,893.476668 317.146,893.717332 317.146,893.92 C317.146,894.021334 317.133333,894.122666 317.108,894.224 C317.082667,894.325334 317.044667,894.426666 316.994,894.528 C315.625993,896.453343 313.574014,898.099993 310.838,899.468 C308.101986,900.836007 305.011351,901.52 301.566,901.52 C296.448641,901.52 291.939353,899.87335 288.038,896.58 C284.136647,893.28665 282.186,888.853361 282.186,883.28 C282.186,877.706639 284.123981,873.311349 288,870.094 C291.876019,866.876651 296.651305,865.268 302.326,865.268 C306.075352,865.268 309.558651,866.141991 312.776,867.89 C315.993349,869.638009 317.602,871.778654 317.602,874.312 Z M347.466,869.448 C347.466,870.005336 347.377334,870.600663 347.2,871.234 C347.022666,871.867336 346.782002,872.184 346.478,872.184 L335.154,871.88 L335.154,891.564 C335.154,892.982674 335.44533,894.033997 336.028,894.718 C336.61067,895.402003 337.611326,895.744 339.03,895.744 C340.144672,895.744 341.195995,895.45267 342.184,894.87 C343.172005,894.28733 344.020663,893.565338 344.73,892.704 C344.932668,892.399998 345.185998,892.298666 345.49,892.4 C345.794002,892.501334 346.072665,892.678665 346.326,892.932 C346.528668,893.185335 346.718666,893.501998 346.896,893.882 C347.073334,894.262002 347.162,894.578665 347.162,894.832 L347.162,895.136 C347.162,895.237334 347.111334,895.313333 347.01,895.364 C345.945995,896.732007 344.324678,898.03666 342.146,899.278 C339.967322,900.51934 337.408681,901.14 334.47,901.14 C330.315313,901.14 327.174011,900.038011 325.046,897.834 C322.917989,895.629989 321.879333,892.045358 321.93,887.08 L322.082,872.792 C322.082,872.487998 322.006001,872.234668 321.854,872.032 C321.701999,871.829332 321.474002,871.728 321.17,871.728 L316.458,871.728 C316.255332,871.728 316.078001,871.500002 315.926,871.044 C315.773999,870.587998 315.698,870.258668 315.698,870.056 C315.698,869.853332 315.773999,869.536669 315.926,869.106 C316.078001,868.675331 316.229999,868.409334 316.382,868.308 C319.219348,866.787992 322.069319,865.00201 324.932,862.95 C327.794681,860.89799 330.21399,858.858677 332.19,856.832 C332.291334,856.679999 332.531998,856.540667 332.912,856.414 C333.292002,856.287333 333.608665,856.224 333.862,856.224 C334.216668,856.224 334.583998,856.287333 334.964,856.414 C335.344002,856.540667 335.534,856.679999 335.534,856.832 L335.23,866.788 L346.478,866.788 C346.782002,866.788 347.022666,867.11733 347.2,867.776 C347.377334,868.43467 347.466,868.991998 347.466,869.448 Z M411.222,864.052 C411.222,868.966691 409.182687,872.855319 405.104,875.718 C401.025313,878.580681 395.464702,880.012 388.422,880.012 C387.408662,880.012 386.484004,879.961334 385.648,879.86 C384.811996,879.758666 383.963338,879.606668 383.102,879.404 L383.102,890.652 C383.102,892.678677 383.583329,894.173329 384.546,895.136 C385.508671,896.098671 387.459319,896.731998 390.398,897.036 C390.550001,897.036 390.689333,897.251331 390.816,897.682 C390.942667,898.112669 391.006,898.454665 391.006,898.708 C391.006,899.012002 390.942667,899.366665 390.816,899.772 C390.689333,900.177335 390.550001,900.38 390.398,900.38 C387.915321,900.38 385.407346,900.316667 382.874,900.19 C380.340654,900.063333 377.908678,900 375.578,900 C373.247322,900 370.828013,900.063333 368.32,900.19 C365.811987,900.316667 363.316679,900.38 360.834,900.38 C360.681999,900.38 360.542667,900.190002 360.416,899.81 C360.289333,899.429998 360.226,899.062668 360.226,898.708 C360.226,898.454665 360.289333,898.125335 360.416,897.72 C360.542667,897.314665 360.681999,897.086667 360.834,897.036 C363.772681,896.681332 365.710662,896.048005 366.648,895.136 C367.585338,894.223995 368.054,892.729344 368.054,890.652 L368.054,856.072 C368.054,854.399992 367.560005,853.19667 366.572,852.462 C365.583995,851.72733 363.671348,851.208002 360.834,850.904 C360.681999,850.853333 360.542667,850.625335 360.416,850.22 C360.289333,849.814665 360.226,849.485335 360.226,849.232 C360.226,848.877332 360.289333,848.510002 360.416,848.13 C360.542667,847.749998 360.681999,847.56 360.834,847.56 C363.316679,847.56 365.91332,847.623333 368.624,847.75 C371.33468,847.876667 373.855322,847.94 376.186,847.94 C378.516678,847.94 380.543325,847.876667 382.266,847.75 C383.988675,847.623333 386.091321,847.56 388.574,847.56 C396.579373,847.56 402.355316,849.029319 405.902,851.968 C409.448684,854.906681 411.222,858.934641 411.222,864.052 Z M395.566,862.988 C395.566,858.579978 394.882007,855.527342 393.514,853.83 C392.145993,852.132658 390.195346,851.284 387.662,851.284 C386.040659,851.284 384.875337,851.663996 384.166,852.424 C383.456663,853.184004 383.102,854.399992 383.102,856.072 L383.102,873.552 C383.102,874.717339 383.621328,875.464665 384.66,875.794 C385.698672,876.123335 386.420665,876.288 386.826,876.288 C389.815348,876.288 392.019326,875.173344 393.438,872.944 C394.856674,870.714656 395.566,867.396022 395.566,862.988 Z M452.638,868.08 C452.638,868.434668 452.574667,868.801998 452.448,869.182 C452.321333,869.562002 452.182001,869.752 452.03,869.752 C450.307325,869.904001 448.888672,870.423329 447.774,871.31 C446.659328,872.196671 445.747337,873.425325 445.038,874.996 L430.75,905.7 C428.013986,911.476029 425.784675,915.491322 424.062,917.746 C422.339325,920.000678 420.059348,921.128 417.222,921.128 C415.24599,921.128 413.700672,920.646671 412.586,919.684 C411.471328,918.721329 410.914,917.429341 410.914,915.808 C410.914,914.237325 411.471328,912.907339 412.586,911.818 C413.700672,910.728661 415.093992,910.184 416.766,910.184 C418.08334,910.184 419.134663,910.424664 419.92,910.906 C420.705337,911.387336 421.42733,911.628 422.086,911.628 C422.694003,911.628 423.390663,911.159338 424.176,910.222 C424.961337,909.284662 426.088659,907.093351 427.558,903.648 L428.622,901.216 L415.398,874.996 C414.587329,873.323992 413.764004,872.095337 412.928,871.31 C412.091996,870.524663 410.68601,870.005335 408.71,869.752 C408.557999,869.701333 408.418667,869.498668 408.292,869.144 C408.165333,868.789332 408.102,868.434668 408.102,868.08 C408.102,867.725332 408.165333,867.358002 408.292,866.978 C408.418667,866.597998 408.557999,866.408 408.71,866.408 C410.280675,866.408 412.104656,866.483999 414.182,866.636 C416.259344,866.788001 418.184658,866.864 419.958,866.864 C421.731342,866.864 423.719989,866.788001 425.924,866.636 C428.128011,866.483999 430.015325,866.408 431.586,866.408 C431.738001,866.408 431.877333,866.610665 432.004,867.016 C432.130667,867.421335 432.194,867.775998 432.194,868.08 C432.194,868.333335 432.130667,868.675331 432.004,869.106 C431.877333,869.536669 431.738001,869.752 431.586,869.752 C430.420661,869.853334 429.496003,870.081332 428.812,870.436 C428.127997,870.790668 427.786,871.347996 427.786,872.108 C427.786,872.665336 427.874666,873.171998 428.052,873.628 C428.229334,874.084002 428.419332,874.539998 428.622,874.996 L434.702,887.84 L440.402,874.996 C440.604668,874.489331 440.744,874.109335 440.82,873.856 C440.896,873.602665 440.934,873.248002 440.934,872.792 C440.934,871.981329 440.655336,871.322669 440.098,870.816 C439.540664,870.309331 438.527341,869.954668 437.058,869.752 C436.905999,869.701333 436.766667,869.498668 436.64,869.144 C436.513333,868.789332 436.45,868.434668 436.45,868.08 C436.45,867.725332 436.513333,867.358002 436.64,866.978 C436.766667,866.597998 436.905999,866.408 437.058,866.408 C438.628675,866.408 440.009327,866.483999 441.2,866.636 C442.390673,866.788001 443.720659,866.864 445.19,866.864 C446.051338,866.864 447.089994,866.788001 448.306,866.636 C449.522006,866.483999 450.763327,866.408 452.03,866.408 C452.182001,866.408 452.321333,866.597998 452.448,866.978 C452.574667,867.358002 452.638,867.725332 452.638,868.08 Z M479.69,869.448 C479.69,870.005336 479.601334,870.600663 479.424,871.234 C479.246666,871.867336 479.006002,872.184 478.702,872.184 L467.378,871.88 L467.378,891.564 C467.378,892.982674 467.66933,894.033997 468.252,894.718 C468.83467,895.402003 469.835326,895.744 471.254,895.744 C472.368672,895.744 473.419995,895.45267 474.408,894.87 C475.396005,894.28733 476.244663,893.565338 476.954,892.704 C477.156668,892.399998 477.409998,892.298666 477.714,892.4 C478.018002,892.501334 478.296665,892.678665 478.55,892.932 C478.752668,893.185335 478.942666,893.501998 479.12,893.882 C479.297334,894.262002 479.386,894.578665 479.386,894.832 L479.386,895.136 C479.386,895.237334 479.335334,895.313333 479.234,895.364 C478.169995,896.732007 476.548678,898.03666 474.37,899.278 C472.191322,900.51934 469.632681,901.14 466.694,901.14 C462.539313,901.14 459.398011,900.038011 457.27,897.834 C455.141989,895.629989 454.103333,892.045358 454.154,887.08 L454.306,872.792 C454.306,872.487998 454.230001,872.234668 454.078,872.032 C453.925999,871.829332 453.698002,871.728 453.394,871.728 L448.682,871.728 C448.479332,871.728 448.302001,871.500002 448.15,871.044 C447.997999,870.587998 447.922,870.258668 447.922,870.056 C447.922,869.853332 447.997999,869.536669 448.15,869.106 C448.302001,868.675331 448.453999,868.409334 448.606,868.308 C451.443348,866.787992 454.293319,865.00201 457.156,862.95 C460.018681,860.89799 462.43799,858.858677 464.414,856.832 C464.515334,856.679999 464.755998,856.540667 465.136,856.414 C465.516002,856.287333 465.832665,856.224 466.086,856.224 C466.440668,856.224 466.807998,856.287333 467.188,856.414 C467.568002,856.540667 467.758,856.679999 467.758,856.832 L467.454,866.788 L478.702,866.788 C479.006002,866.788 479.246666,867.11733 479.424,867.776 C479.601334,868.43467 479.69,868.991998 479.69,869.448 Z M525.21,898.708 C525.21,899.012002 525.146667,899.366665 525.02,899.772 C524.893333,900.177335 524.754001,900.38 524.602,900.38 C523.031325,900.38 521.22001,900.316667 519.168,900.19 C517.11599,900.063333 515.203342,900 513.43,900 C511.707325,900 510.010008,900.063333 508.338,900.19 C506.665992,900.316667 505.070008,900.38 503.55,900.38 C503.397999,900.38 503.258667,900.177335 503.132,899.772 C503.005333,899.366665 502.942,899.012002 502.942,898.708 C502.942,898.454665 503.005333,898.125335 503.132,897.72 C503.258667,897.314665 503.397999,897.086667 503.55,897.036 C504.563338,896.883999 505.323331,896.390004 505.83,895.554 C506.336669,894.717996 506.59,893.084012 506.59,890.652 L506.59,878.644 C506.59,876.110654 506.286003,874.299339 505.678,873.21 C505.069997,872.120661 503.904675,871.576 502.182,871.576 C500.712659,871.576 499.522005,872.069995 498.61,873.058 C497.697995,874.046005 496.786005,875.629322 495.874,877.808 L495.874,890.652 C495.874,892.881344 496.114664,894.477329 496.596,895.44 C497.077336,896.402671 497.824662,896.934666 498.838,897.036 C498.990001,897.036 499.129333,897.251331 499.256,897.682 C499.382667,898.112669 499.446,898.454665 499.446,898.708 C499.446,899.062668 499.382667,899.429998 499.256,899.81 C499.129333,900.190002 498.990001,900.38 498.838,900.38 C497.267325,900.38 495.671341,900.316667 494.05,900.19 C492.428659,900.063333 490.731342,900 488.958,900 C487.184658,900 485.27201,900.063333 483.22,900.19 C481.16799,900.316667 479.382008,900.38 477.862,900.38 C477.709999,900.38 477.570667,900.190002 477.444,899.81 C477.317333,899.429998 477.254,899.062668 477.254,898.708 C477.254,898.454665 477.317333,898.125335 477.444,897.72 C477.570667,897.314665 477.709999,897.086667 477.862,897.036 C480.091344,896.782665 481.49733,896.28867 482.08,895.554 C482.66267,894.81933 482.954,893.185346 482.954,890.652 L482.954,859.264 C482.954,857.28799 482.574004,855.983336 481.814,855.35 C481.053996,854.716663 479.736676,854.298668 477.862,854.096 C477.709999,854.045333 477.570667,853.830002 477.444,853.45 C477.317333,853.069998 477.254,852.753335 477.254,852.5 C477.254,852.246665 477.317333,851.917335 477.444,851.512 C477.570667,851.106665 477.709999,850.904 477.862,850.904 C480.243345,850.397331 482.991984,849.561339 486.108,848.396 C489.224016,847.230661 491.541992,846.268004 493.062,845.508 C493.214001,845.406666 493.467332,845.280001 493.822,845.128 C494.176668,844.975999 494.480665,844.9 494.734,844.9 C495.39267,844.9 495.848665,845.001332 496.102,845.204 C496.355335,845.406668 496.482,845.634665 496.482,845.888 C496.329999,847.813343 496.190667,850.042654 496.064,852.576 C495.937333,855.109346 495.874,857.161325 495.874,858.732 L495.874,872.26 C496.988672,869.878655 498.635322,868.118006 500.814,866.978 C502.992678,865.837994 505.171322,865.268 507.35,865.268 C511.150019,865.268 514.113989,866.445988 516.242,868.802 C518.370011,871.158012 519.434,873.830652 519.434,876.82 L519.434,890.652 C519.434,893.084012 519.737997,894.705329 520.346,895.516 C520.954003,896.326671 522.372656,896.833332 524.602,897.036 C524.754001,897.036 524.893333,897.251331 525.02,897.682 C525.146667,898.112669 525.21,898.454665 525.21,898.708 Z M563.206,883.66 C563.206,888.473357 561.496017,892.665982 558.076,896.238 C554.655983,899.810018 549.6527,901.596 543.066,901.596 C536.529967,901.596 531.526684,899.822684 528.056,896.276 C524.585316,892.729316 522.85,888.524024 522.85,883.66 C522.85,878.846643 524.572649,874.578019 528.018,870.854 C531.463351,867.129981 536.4793,865.268 543.066,865.268 C549.500699,865.268 554.465983,867.104648 557.962,870.778 C561.458017,874.451352 563.206,878.745309 563.206,883.66 Z M549.374,883.584 C549.374,878.719976 548.968671,875.059346 548.158,872.602 C547.347329,870.144654 545.650013,868.916 543.066,868.916 C540.481987,868.916 538.772004,870.169987 537.936,872.678 C537.099996,875.186013 536.682,878.82131 536.682,883.584 C536.682,888.498691 537.099996,892.121322 537.936,894.452 C538.772004,896.782678 540.481987,897.948 543.066,897.948 C545.599346,897.948 547.283996,896.770012 548.12,894.414 C548.956004,892.057988 549.374,888.448024 549.374,883.584 Z M611.006,898.784 C611.006,899.088002 610.942667,899.442665 610.816,899.848 C610.689333,900.253335 610.550001,900.456 610.398,900.456 C608.827325,900.456 607.01601,900.380001 604.964,900.228 C602.91199,900.075999 600.999342,900 599.226,900 C597.503325,900 595.806008,900.075999 594.134,900.228 C592.461992,900.380001 590.866008,900.456 589.346,900.456 C589.193999,900.456 589.054667,900.253335 588.928,899.848 C588.801333,899.442665 588.738,899.088002 588.738,898.784 C588.738,898.479998 588.801333,898.138002 588.928,897.758 C589.054667,897.377998 589.193999,897.162667 589.346,897.112 C590.359338,896.959999 591.119331,896.466004 591.626,895.63 C592.132669,894.793996 592.386,893.160012 592.386,890.728 L592.386,878.644 C592.386,876.110654 592.09467,874.312005 591.512,873.248 C590.92933,872.183995 589.751342,871.652 587.978,871.652 C586.508659,871.652 585.318005,872.145995 584.406,873.134 C583.493995,874.122005 582.582005,875.705322 581.67,877.884 L581.67,890.728 C581.67,892.957344 581.910664,894.553329 582.392,895.516 C582.873336,896.478671 583.620662,897.010666 584.634,897.112 C584.786001,897.112 584.925333,897.301998 585.052,897.682 C585.178667,898.062002 585.242,898.429332 585.242,898.784 C585.242,899.138668 585.178667,899.505998 585.052,899.886 C584.925333,900.266002 584.786001,900.456 584.634,900.456 C583.063325,900.456 581.467341,900.380001 579.846,900.228 C578.224659,900.075999 576.527342,900 574.754,900 C572.980658,900 571.06801,900.075999 569.016,900.228 C566.96399,900.380001 565.178008,900.456 563.658,900.456 C563.505999,900.456 563.366667,900.266002 563.24,899.886 C563.113333,899.505998 563.05,899.138668 563.05,898.784 C563.05,898.429332 563.113333,898.074668 563.24,897.72 C563.366667,897.365332 563.505999,897.162667 563.658,897.112 C565.887344,896.807998 567.29333,896.28867 567.876,895.554 C568.45867,894.81933 568.75,893.210679 568.75,890.728 L568.75,878.796 C568.75,876.667989 568.522002,875.31267 568.066,874.73 C567.609998,874.14733 566.444676,873.754668 564.57,873.552 C564.417999,873.552 564.278667,873.349335 564.152,872.944 C564.025333,872.538665 563.962,872.209335 563.962,871.956 C563.962,871.702665 564.025333,871.386002 564.152,871.006 C564.278667,870.625998 564.417999,870.436 564.57,870.436 C566.292675,869.979998 568.661318,869.182006 571.676,868.042 C574.690682,866.901994 576.907326,865.977337 578.326,865.268 C578.478001,865.166666 578.731332,865.040001 579.086,864.888 C579.440668,864.735999 579.744665,864.66 579.998,864.66 C580.606003,864.66 581.049332,864.773999 581.328,865.002 C581.606668,865.230001 581.720667,865.445332 581.67,865.648 L581.366,872.944 C582.379338,870.461321 583.987989,868.56134 586.192,867.244 C588.396011,865.92666 590.713988,865.268 593.146,865.268 C596.946019,865.268 599.909989,866.458655 602.038,868.84 C604.166011,871.221345 605.23,873.881319 605.23,876.82 L605.23,890.728 C605.23,893.160012 605.533997,894.768663 606.142,895.554 C606.750003,896.339337 608.168656,896.858665 610.398,897.112 C610.550001,897.112 610.689333,897.327331 610.816,897.758 C610.942667,898.188669 611.006,898.530665 611.006,898.784 Z M674.306,881.76 C674.001998,884.090678 673.634669,886.991316 673.204,890.462 C672.773331,893.932684 672.456668,896.554658 672.254,898.328 C669.973989,898.328 667.14935,898.872661 663.78,899.962 C660.41065,901.051339 656.800686,901.596 652.95,901.596 C647.781974,901.596 643.209353,900.823341 639.232,899.278 C635.254647,897.732659 631.94868,895.693346 629.314,893.16 C626.67932,890.626654 624.716006,887.726016 623.424,884.458 C622.131994,881.189984 621.486,877.782684 621.486,874.236 C621.486,866.889297 624.386638,860.404028 630.188,854.78 C635.989362,849.155972 643.779284,846.344 653.558,846.344 C657.864688,846.344 661.411319,846.723996 664.198,847.484 C666.984681,848.244004 669.543322,848.624 671.874,848.624 C671.975334,851.056012 672.127332,853.791985 672.33,856.832 C672.532668,859.872015 672.735332,862.658654 672.938,865.192 C672.938,865.344001 672.710002,865.483333 672.254,865.61 C671.797998,865.736667 671.392668,865.8 671.038,865.8 C670.784665,865.8 670.493335,865.749334 670.164,865.648 C669.834665,865.546666 669.619334,865.394668 669.518,865.192 C668.85933,861.493315 666.972016,858.035349 663.856,854.818 C660.739984,851.600651 657.20602,849.992 653.254,849.992 C647.275303,849.992 643.095345,852.284644 640.714,856.87 C638.332655,861.455356 637.142,867.243965 637.142,874.236 C637.142,881.076034 638.319988,886.737978 640.676,891.222 C643.032012,895.706022 647.123304,897.948 652.95,897.948 C657.611357,897.948 661.411319,896.326683 664.35,893.084 C667.288681,889.841317 669.492659,886.066688 670.962,881.76 C671.012667,881.557332 671.227998,881.405334 671.608,881.304 C671.988002,881.202666 672.304665,881.152 672.558,881.152 C672.811335,881.152 673.165998,881.215333 673.622,881.342 C674.078002,881.468667 674.306,881.607999 674.306,881.76 Z M753.798,898.708 C753.798,899.012002 753.747334,899.366665 753.646,899.772 C753.544666,900.177335 753.418001,900.38 753.266,900.38 C750.783321,900.38 748.250013,900.316667 745.666,900.19 C743.081987,900.063333 740.624678,900 738.294,900 C735.963322,900 733.569346,900.063333 731.112,900.19 C728.654654,900.316667 726.184679,900.38 723.702,900.38 C723.549999,900.38 723.398001,900.190002 723.246,899.81 C723.093999,899.429998 723.018,899.062668 723.018,898.708 C723.018,898.454665 723.081333,898.125335 723.208,897.72 C723.334667,897.314665 723.473999,897.086667 723.626,897.036 C726.362014,896.731998 728.249328,896.098671 729.288,895.136 C730.326672,894.173329 730.770001,892.678677 730.618,890.652 L729.25,857.82 L712.606,900.988 C712.555333,901.089334 712.302002,901.215999 711.846,901.368 C711.389998,901.520001 710.883336,901.596 710.326,901.596 C709.616663,901.596 709.084668,901.520001 708.73,901.368 C708.375332,901.215999 708.147334,901.089334 708.046,900.988 L691.25,859.492 L689.35,890.652 C689.197999,892.729344 689.641328,894.236662 690.68,895.174 C691.718672,896.111338 693.707319,896.731998 696.646,897.036 C696.798001,897.036 696.912,897.251331 696.988,897.682 C697.064,898.112669 697.102,898.454665 697.102,898.708 C697.102,899.062668 697.026001,899.429998 696.874,899.81 C696.721999,900.190002 696.570001,900.38 696.418,900.38 C694.492657,900.38 692.732008,900.316667 691.136,900.19 C689.539992,900.063333 687.855342,900 686.082,900 C684.257991,900 682.560675,900.063333 680.99,900.19 C679.419325,900.316667 677.772675,900.38 676.05,900.38 C675.897999,900.38 675.771334,900.164669 675.67,899.734 C675.568666,899.303331 675.518,898.961335 675.518,898.708 C675.518,898.353332 675.606666,897.998668 675.784,897.644 C675.961334,897.289332 676.125999,897.086667 676.278,897.036 C679.267348,896.681332 681.331994,896.060671 682.472,895.174 C683.612006,894.287329 684.283332,892.780011 684.486,890.652 L687.602,857.288 C687.754001,855.159989 687.298005,853.652671 686.234,852.766 C685.169995,851.879329 683.168681,851.258668 680.23,850.904 C680.077999,850.853333 679.951334,850.625335 679.85,850.22 C679.748666,849.814665 679.698,849.485335 679.698,849.232 C679.698,848.877332 679.786666,848.510002 679.964,848.13 C680.141334,847.749998 680.305999,847.56 680.458,847.56 C681.724673,847.56 683.421989,847.623333 685.55,847.75 C687.678011,847.876667 689.299328,847.94 690.414,847.94 C691.832674,847.94 693.719988,847.876667 696.076,847.75 C698.432012,847.623333 700.420659,847.56 702.042,847.56 L715.874,881.912 L729.174,847.56 C731.099343,847.56 733.08799,847.623333 735.14,847.75 C737.19201,847.876667 738.87666,847.94 740.194,847.94 C741.714008,847.94 743.512656,847.876667 745.59,847.75 C747.667344,847.623333 749.465992,847.56 750.986,847.56 C751.138001,847.56 751.277333,847.762665 751.404,848.168 C751.530667,848.573335 751.594,848.927998 751.594,849.232 C751.594,849.485335 751.543334,849.827331 751.442,850.258 C751.340666,850.688669 751.214001,850.904 751.062,850.904 C748.275319,851.208002 746.388005,851.841329 745.4,852.804 C744.411995,853.766671 743.968666,855.261323 744.07,857.288 L745.666,890.652 C745.767334,892.678677 746.286662,894.173329 747.224,895.136 C748.161338,896.098671 750.149985,896.731998 753.19,897.036 C753.342001,897.036 753.481333,897.251331 753.608,897.682 C753.734667,898.112669 753.798,898.454665 753.798,898.708 Z M785.942,868.688 C788.931348,870.461342 791.74332,872.576654 794.378,875.034 C797.01268,877.491346 798.33,880.594648 798.33,884.344 C798.33,889.714694 796.392019,893.932651 792.516,896.998 C788.639981,900.063349 783.763363,901.596 777.886,901.596 C774.288649,901.596 771.210679,901.102005 768.652,900.114 C766.093321,899.125995 763.16735,898.328003 759.874,897.72 C759.823333,895.895991 759.798,893.464015 759.798,890.424 C759.798,887.383985 759.722001,884.698678 759.57,882.368 C759.57,882.215999 759.785331,882.076667 760.216,881.95 C760.646669,881.823333 761.013998,881.76 761.318,881.76 C761.672668,881.76 762.014665,881.810666 762.344,881.912 C762.673335,882.013334 762.863333,882.165332 762.914,882.368 C763.876671,886.877356 765.890651,890.601319 768.956,893.54 C772.021349,896.478681 774.997986,897.948 777.886,897.948 C780.824681,897.948 782.939994,897.302006 784.232,896.01 C785.524006,894.717994 786.17,892.957344 786.17,890.728 C786.17,887.991986 784.85268,885.686676 782.218,883.812 C779.58332,881.937324 776.746015,880.113342 773.706,878.34 C770.615318,876.566658 767.75268,874.464012 765.118,872.032 C762.48332,869.599988 761.166,866.610684 761.166,863.064 C761.166,858.351976 762.951982,854.387349 766.524,851.17 C770.096018,847.952651 774.997969,846.344 781.23,846.344 C784.016681,846.344 786.423323,846.685997 788.45,847.37 C790.476677,848.054003 792.655322,848.623998 794.986,849.08 C795.036667,850.904009 795.125333,853.183986 795.252,855.92 C795.378667,858.656014 795.543332,860.910658 795.746,862.684 C795.746,862.836001 795.530669,862.975333 795.1,863.102 C794.669331,863.228667 794.327335,863.292 794.074,863.292 C793.719332,863.292 793.364668,863.241334 793.01,863.14 C792.655332,863.038666 792.427334,862.886668 792.326,862.684 C791.363329,858.73198 789.944676,855.628678 788.07,853.374 C786.195324,851.119322 783.890014,849.992 781.154,849.992 C778.772655,849.992 776.898007,850.625327 775.53,851.892 C774.161993,853.158673 773.478,854.754657 773.478,856.68 C773.478,859.213346 774.757321,861.379324 777.316,863.178 C779.874679,864.976676 782.749984,866.813324 785.942,868.688 Z" id="The-React-Python-CMS" fill="#062E3B"></path>
            <g id="Group-9" transform="translate(175.000000, 107.000000)" fill="#062E3B">
                <g id="Group-4" transform="translate(0.000000, 442.000000)">
                    <g id="Group-3">
                        <path d="M98.38,30.84 C98.2999996,31.240002 98.1200014,31.7799966 97.84,32.46 C97.5599986,33.1400034 97.3000012,33.48 97.06,33.48 C93.6199828,33.7200012 91.0200088,34.7999904 89.26,36.72 C87.4999912,38.6400096 85.7000092,41.5599804 83.86,45.48 L52.06,112.56 C51.8999992,112.800001 51.5400028,113.019999 50.98,113.22 C50.4199972,113.420001 49.5800056,113.52 48.46,113.52 C47.4199948,113.52 46.600003,113.420001 46,113.22 C45.399997,113.019999 45.0200008,112.800001 44.86,112.56 L16.18,45.48 C14.2599904,40.9999776 12.5400076,37.9800078 11.02,36.42 C9.4999924,34.8599922 6.8600188,33.880002 3.1,33.48 C2.8599988,33.3999996 2.6200012,33.0400032 2.38,32.4 C2.1399988,31.7599968 2.02,31.240002 2.02,30.84 C2.02,30.3599976 2.1399988,29.8000032 2.38,29.16 C2.6200012,28.5199968 2.8599988,28.2 3.1,28.2 C6.9400192,28.2 10.6799818,28.299999 14.32,28.5 C17.9600182,28.700001 21.4199836,28.8 24.7,28.8 C28.3800184,28.8 32.2399798,28.700001 36.28,28.5 C40.3200202,28.299999 44.2999804,28.2 48.22,28.2 C48.4600012,28.2 48.6599992,28.5399966 48.82,29.22 C48.9800008,29.9000034 49.06,30.439998 49.06,30.84 C49.06,31.240002 48.9800008,31.7799966 48.82,32.46 C48.6599992,33.1400034 48.4600012,33.48 48.22,33.48 C44.6999824,33.6400008 42.2200072,34.0799964 40.78,34.8 C39.3399928,35.5200036 38.5800004,36.7599912 38.5,38.52 C38.4199996,39.2400036 38.5599982,40.1599944 38.92,41.28 C39.2800018,42.4000056 39.5399992,43.159998 39.7,43.56 L57.46,85.56 L76.06,45 C76.3000012,44.4399972 76.5999982,43.5200064 76.96,42.24 C77.3200018,40.9599936 77.5,39.9600036 77.5,39.24 C77.4199996,37.3999908 76.980004,36.0400044 76.18,35.16 C75.379996,34.2799956 72.7400224,33.7200012 68.26,33.48 C68.0199988,33.3999996 67.8400006,33.0400032 67.72,32.4 C67.5999994,31.7599968 67.54,31.240002 67.54,30.84 C67.4599996,30.2799972 67.519999,29.700003 67.72,29.1 C67.920001,28.499997 68.1399988,28.2 68.38,28.2 C71.8200172,28.2 74.4199912,28.299999 76.18,28.5 C77.9400088,28.700001 80.4599836,28.8 83.74,28.8 C86.3800132,28.8 88.6199908,28.700001 90.46,28.5 C92.3000092,28.299999 94.619986,28.2 97.42,28.2 C97.6600012,28.2 97.879999,28.5199968 98.08,29.16 C98.280001,29.8000032 98.38,30.3599976 98.38,30.84 Z M187.82,70.32 C187.82,82.32006 183.720041,92.519958 175.52,100.92 C167.319959,109.320042 155.740075,113.52 140.78,113.52 C125.819925,113.52 114.220041,109.300042 105.98,100.86 C97.7399588,92.4199578 93.62,82.2400596 93.62,70.32 C93.62,58.3999404 97.7399588,48.0800436 105.98,39.36 C114.220041,30.6399564 125.819925,26.28 140.78,26.28 C155.420073,26.28 166.919958,30.579957 175.28,39.18 C183.640042,47.780043 187.82,58.1599392 187.82,70.32 Z M163.1,70.32 C163.1,59.2799448 161.500016,50.1400362 158.3,42.9 C155.099984,35.6599638 149.260042,32.04 140.78,32.04 C132.219957,32.04 126.360016,35.6999634 123.2,43.02 C120.039984,50.3400366 118.46,59.4399456 118.46,70.32 C118.46,81.4400556 120.039984,90.4599654 123.2,97.38 C126.360016,104.300035 132.219957,107.76 140.78,107.76 C149.260042,107.76 155.099984,104.280035 158.3,97.32 C161.500016,90.3599652 163.1,81.3600552 163.1,70.32 Z M271.98,80.64 C271.419997,85.1200224 270.880003,90.5999676 270.36,97.08 C269.839997,103.560032 269.500001,108.399984 269.34,111.6 C264.299975,111.439999 258.020038,111.300001 250.5,111.18 C242.979962,111.059999 236.860024,111 232.14,111 C227.019974,111 220.42004,111.079999 212.34,111.24 C204.25996,111.400001 198.22002,111.52 194.22,111.6 C193.979999,111.6 193.760001,111.300003 193.56,110.7 C193.359999,110.099997 193.26,109.520003 193.26,108.96 C193.26,108.559998 193.359999,108.040003 193.56,107.4 C193.760001,106.759997 193.979999,106.4 194.22,106.32 C198.860023,105.759997 201.919993,104.760007 203.4,103.32 C204.880007,101.879993 205.62,99.5200164 205.62,96.24 L205.62,43.56 C205.62,40.2799836 204.880007,37.9200072 203.4,36.48 C201.919993,35.0399928 198.860023,34.0400028 194.22,33.48 C193.979999,33.3999996 193.760001,33.0400032 193.56,32.4 C193.359999,31.7599968 193.26,31.240002 193.26,30.84 C193.26,30.2799972 193.359999,29.700003 193.56,29.1 C193.760001,28.499997 193.979999,28.2 194.22,28.2 C198.060019,28.2 201.99998,28.299999 206.04,28.5 C210.08002,28.700001 213.899982,28.8 217.5,28.8 C221.180018,28.8 225.01998,28.700001 229.02,28.5 C233.02002,28.299999 236.97998,28.2 240.9,28.2 C241.140001,28.2 241.359999,28.5199968 241.56,29.16 C241.760001,29.8000032 241.86,30.3599976 241.86,30.84 C241.86,31.240002 241.760001,31.7799966 241.56,32.46 C241.359999,33.1400034 241.140001,33.48 240.9,33.48 C236.259977,33.9600024 233.180008,34.9599924 231.66,36.48 C230.139992,38.0000076 229.38,40.359984 229.38,43.56 L229.38,98.04 C229.38,100.920014 230.159992,102.819995 231.72,103.74 C233.280008,104.660005 234.859992,105.12 236.46,105.12 L243.3,105.12 C248.900028,105.12 253.879978,102.480026 258.24,97.2 C262.600022,91.9199736 265.379994,86.0000328 266.58,79.44 C266.58,79.2799992 266.719999,79.1600004 267,79.08 C267.280001,78.9999996 267.699997,78.96 268.26,78.96 C269.140004,78.96 269.999996,79.1199984 270.84,79.44 C271.680004,79.7600016 272.06,80.1599976 271.98,80.64 Z M354.7,56.28 C354.7,56.680002 354.400003,57.0399984 353.8,57.36 C353.199997,57.6800016 352.500004,57.84 351.7,57.84 C351.379998,57.84 350.940003,57.7800006 350.38,57.66 C349.819997,57.5399994 349.5,57.4000008 349.42,57.24 C348.299994,52.839978 345.640021,47.9800266 341.44,42.66 C337.239979,37.3399734 333.300018,34.68 329.62,34.68 L327.82,34.68 C325.979991,34.68 324.660004,35.0599962 323.86,35.82 C323.059996,36.5800038 322.66,37.759992 322.66,39.36 L322.66,96.24 C322.66,99.440016 323.419992,101.799992 324.94,103.32 C326.460008,104.840008 329.539977,105.839998 334.18,106.32 C334.420001,106.32 334.639999,106.659997 334.84,107.34 C335.040001,108.020003 335.14,108.559998 335.14,108.96 C335.14,109.440002 335.040001,109.999997 334.84,110.64 C334.639999,111.280003 334.420001,111.6 334.18,111.6 C330.339981,111.6 326.40002,111.500001 322.36,111.3 C318.31998,111.099999 314.500018,111 310.9,111 C307.219982,111 303.38002,111.099999 299.38,111.3 C295.37998,111.500001 291.42002,111.6 287.5,111.6 C287.259999,111.6 287.040001,111.280003 286.84,110.64 C286.639999,109.999997 286.54,109.440002 286.54,108.96 C286.54,108.559998 286.639999,108.040003 286.84,107.4 C287.040001,106.759997 287.259999,106.4 287.5,106.32 C292.220024,105.759997 295.319993,104.760007 296.8,103.32 C298.280007,101.879993 299.02,99.5200164 299.02,96.24 L299.02,39.36 C299.02,37.5999912 298.660004,36.3800034 297.94,35.7 C297.219996,35.0199966 295.86001,34.68 293.86,34.68 L292.9,34.68 C289.619984,34.68 285.580024,37.1399754 280.78,42.06 C275.979976,46.9800246 272.58001,52.039974 270.58,57.24 C270.5,57.4800012 270.200003,57.6399996 269.68,57.72 C269.159997,57.8000004 268.740002,57.84 268.42,57.84 C267.699996,57.84 267.000003,57.6800016 266.32,57.36 C265.639997,57.0399984 265.3,56.680002 265.3,56.28 C266.100004,52.27998 266.959995,47.380029 267.88,41.58 C268.800005,35.779971 269.459998,30.9600192 269.86,27.12 C272.660014,27.6000024 277.01997,27.9999984 282.94,28.32 C288.86003,28.6400016 298.179936,28.8 310.9,28.8 C321.780054,28.8 330.839964,28.6400016 338.08,28.32 C345.320036,27.9999984 350.099988,27.6000024 352.42,27.12 C352.660001,30.9600192 352.979998,35.5199736 353.38,40.8 C353.780002,46.0800264 354.219998,51.2399748 354.7,56.28 Z M450.74,70.32 C450.74,82.32006 446.640041,92.519958 438.44,100.92 C430.239959,109.320042 418.660075,113.52 403.7,113.52 C388.739925,113.52 377.140041,109.300042 368.9,100.86 C360.659959,92.4199578 356.54,82.2400596 356.54,70.32 C356.54,58.3999404 360.659959,48.0800436 368.9,39.36 C377.140041,30.6399564 388.739925,26.28 403.7,26.28 C418.340073,26.28 429.839958,30.579957 438.2,39.18 C446.560042,47.780043 450.74,58.1599392 450.74,70.32 Z M426.02,70.32 C426.02,59.2799448 424.420016,50.1400362 421.22,42.9 C418.019984,35.6599638 412.180042,32.04 403.7,32.04 C395.139957,32.04 389.280016,35.6999634 386.12,43.02 C382.959984,50.3400366 381.38,59.4399456 381.38,70.32 C381.38,81.4400556 382.959984,90.4599654 386.12,97.38 C389.280016,104.300035 395.139957,107.76 403.7,107.76 C412.180042,107.76 418.019984,104.280035 421.22,97.32 C424.420016,90.3599652 426.02,81.3600552 426.02,70.32 Z" id="VOLTO"></path>
                    </g>
                </g>
                <path d="M356.581739,179.442 C363.415739,160.722 367.144739,140.507 367.144739,119.422 C367.144739,96.3429999 362.677739,74.3079999 354.559739,54.1329999 C353.090739,50.4829999 357.774739,47.5309999 360.450739,50.4149999 C389.428739,81.6409999 407.144739,123.463 407.144739,169.422 C407.144739,191.713 402.977739,213.032 395.378739,232.639 C401.966739,228.523 408.160739,221.516 413.959739,211.618 C414.921739,209.974 417.441739,210.772 417.258739,212.668 C411.835739,268.823 403.414739,309.219 391.997739,333.857 C390.696739,336.664 393.119739,331.137 391.997739,333.857 C374.959739,375.124 337.289739,414.002 291.729739,414.002 C271.586739,414.002 252.832739,408.046 237.136739,397.797 C227.782739,391.691 215.678739,391.691 206.324739,397.797 C190.627739,408.046 171.874739,414.002 151.730739,414.002 C110.723739,414.002 70.7697387,376.529 52.7937387,335.024 C52.1437387,333.521 53.5017387,336.552 52.7937387,335.024 C41.2827387,310.183 34.3527387,275.462 32.0027387,230.859 C31.9137387,229.168 34.0157387,228.302 35.1257387,229.58 C46.7747387,242.986 62.2297387,244.11 81.4907387,232.952 C99.1027387,222.748 116.946739,216.895 135.021739,215.391 C140.455739,214.477 146.037739,214.002 151.730739,214.002 C170.511739,214.002 188.082739,219.179 203.096739,228.184 C209.275739,231.891 217.294739,230.426 221.636739,224.675 C243.752739,195.372 256.867739,158.892 256.867739,119.35 C256.867739,78.6299999 242.959739,41.1589999 219.636739,11.4269999 C215.430739,6.06599994 220.542739,-1.49800006 227.125739,0.258999936 C301.837739,20.2059999 356.867739,88.3509999 356.867739,169.35 C356.867739,172.738 356.770739,176.102 356.581739,179.442 M247.729739,344.731 C268.782739,274.206 307.991739,261.311 365.358739,306.046 C347.380739,348.621 308.170739,361.516 247.729739,344.731 M195.358739,344.731 C174.306739,274.206 135.096739,261.311 77.7307387,306.046 C95.7087387,348.621 134.918739,361.516 195.358739,344.731" id="Fill-1"></path>
            </g>
        </g>
    </g>
</svg>