<svg width="97" height="24" viewBox="0 0 97 24" fill="none" xmlns="http://www.w3.org/2000/svg">
<path fill-rule="evenodd" clip-rule="evenodd" d="M44.8376 11.6612C44.8376 8.39154 42.0085 5.64706 38.6541 5.64706C35.2998 5.64706 32.4706 8.39154 32.4706 11.6612C32.4706 14.9308 35.2998 17.6922 38.6541 17.6922C40.0094 17.6922 41.28 17.2348 42.3134 16.4894L43.4654 17.4889L44.736 16.0151L43.6856 15.1002C44.4141 14.1177 44.8376 12.9318 44.8376 11.6612ZM38.6541 15.4221C36.7059 15.4221 35.0456 13.6941 35.0456 11.6612C35.0456 9.64518 36.7059 7.91718 38.6541 7.91718C40.6193 7.91718 42.2626 9.64518 42.2626 11.6612C42.2626 12.3049 42.0932 12.9318 41.8052 13.4739L40.3482 12.2033L39.0776 13.6772L40.4668 14.8969C39.9416 15.2188 39.3148 15.4221 38.6541 15.4221ZM51.1508 17.6922C54.2341 17.6922 56.4195 15.5238 56.4195 12.4574V5.85034H53.9122V12.3558C53.9122 14.1515 52.7772 15.4221 51.1508 15.4221C49.5245 15.4221 48.3894 14.1515 48.3894 12.3558V5.85034H45.8821V12.4574C45.8821 15.5238 48.0675 17.6922 51.1508 17.6922ZM96.5018 17.4889H93.7066L92.8934 15.4899H87.8449L87.0317 17.4889H84.2364L88.963 5.85034H91.7753L96.5018 17.4889ZM90.3691 9.30634L88.6411 13.5416H92.0971L90.3691 9.30634ZM65.287 17.4889H68.0822L63.3557 5.85034H60.5434L55.8168 17.4889H58.6121L59.4253 15.4899H64.4738L65.287 17.4889ZM60.2215 13.5416L61.9495 9.30634L63.6775 13.5416H60.2215ZM83.2764 17.4889H80.7861L80.7861 8.10352V5.85034H85.7686V8.10352H83.2764V17.4889ZM76.8883 17.4889H76.9009H79.3786H79.3913V5.85034H79.3786H76.9009H74.3918V8.10352H76.8883V13.3554L71.2764 5.85034H68.7861V17.4889H71.2764V9.96705L76.8883 17.4721V17.4889Z" fill="#021322"/>
<path fill-rule="evenodd" clip-rule="evenodd" d="M24 0H0V24H24V0ZM20.4706 12L14.1177 15.6679V8.33211L20.4706 12ZM7.76468 8.4706C9.71392 8.4706 11.2941 10.0508 11.2941 12C11.2941 13.9492 9.71392 15.5294 7.76468 15.5294C5.81544 15.5294 4.23527 13.9492 4.23527 12C4.23527 10.0508 5.81544 8.4706 7.76468 8.4706Z" fill="#F54E38"/>
</svg>
