<svg xmlns="http://www.w3.org/2000/svg" width="36" height="36" viewBox="0 0 36 36">
  <path fill-rule="evenodd" d="M11,25 L18.293,25 L17.419,26.503 C17.141,26.98 17,27.484 17,28 C17,29.654 18.346,31 20,31 C21.654,31 23,29.654 23,28 C23,27.484 22.859,26.98 22.581,26.503 L21.707,25 L27,25 L27,22.896 C26.672,22.965 26.338,23 26,23 C23.243,23 21,20.757 21,18 C21,15.243 23.243,13 26,13 C26.338,13 26.672,13.035 27,13.104 L27,11 L21.707,11 L22.581,9.497 C22.859,9.02 23,8.516 23,8 C23,6.346 21.654,5 20,5 C18.346,5 17,6.346 17,8 C17,8.516 17.141,9.02 17.419,9.497 L18.293,11 L11,11 L11,16.294 L9.497,15.419 C9.02,15.141 8.516,15 8,15 C6.346,15 5,16.346 5,18 C5,19.654 6.346,21 8,21 C8.516,21 9.02,20.859 9.497,20.581 L11,19.706 L11,25 Z M20,33 C17.243,33 15,30.757 15,28 C15,27.661 15.035,27.328 15.104,27 L9,27 L9,22.896 C8.672,22.965 8.338,23 8,23 C5.243,23 3,20.757 3,18 C3,15.243 5.243,13 8,13 C8.338,13 8.672,13.035 9,13.104 L9,9 L15.104,9 C15.035,8.672 15,8.339 15,8 C15,5.243 17.243,3 20,3 C22.757,3 25,5.243 25,8 C25,8.339 24.965,8.672 24.896,9 L29,9 L29,16.294 L27.497,15.419 C27.02,15.141 26.516,15 26,15 C24.346,15 23,16.346 23,18 C23,19.654 24.346,21 26,21 C26.516,21 27.02,20.859 27.497,20.581 L29,19.706 L29,27 L24.896,27 C24.965,27.328 25,27.661 25,28 C25,30.757 22.757,33 20,33 L20,33 Z"/>
</svg>
