<svg xmlns="http://www.w3.org/2000/svg" width="36" height="36" viewBox="0 0 36 36">
  <g fill-rule="evenodd">
    <path d="M18 30C17.263 30 16.625 29.595 16.278 29L19.722 29C19.375 29.595 18.737 30 18 30L18 30zM11 22L11 14C11 10.14 14.14 7 18 7 21.859 7 25 10.14 25 14L25 22C25 23.723 25.616 25.465 26.735 27L9.265 27C10.384 25.465 11 23.723 11 22L11 22zM31.649 29L29.661 27.25C27.97 25.761 27 23.848 27 22L27 14C27 9.376 23.493 5.558 19 5.059L19 3 17 3 17 5.059C12.507 5.559 9 9.376 9 14L9 22C9 23.848 8.03 25.761 6.339 27.25L4.351 29 14.142 29C14.589 30.72 16.141 32 18 32 19.859 32 21.411 30.72 21.858 29L31.649 29zM10.2217 6.2217L8.8077 4.8077C6.3517 7.2637 4.9997 10.5277 4.9997 13.9997L6.9997 13.9997C6.9997 11.0617 8.1437 8.2997 10.2217 6.2217M31 14C31 10.527 29.647 7.263 27.192 4.808L25.778 6.222C27.855 8.299 29 11.062 29 14L31 14z"/>
  </g>
</svg>
