<svg xmlns="http://www.w3.org/2000/svg" width="36" height="36" viewBox="0 0 36 36">
  <g fill-rule="evenodd">
    <path d="M6,11 C5.449,11 5,11.448 5,12 L5,26 C5,26.552 5.449,27 6,27 L30,27 C30.551,27 31,26.552 31,26 L31,12 C31,11.448 30.551,11 30,11 L25.382,11 L23.382,7 L12.618,7 L10.618,11 L6,11 Z M30,29 L6,29 C4.346,29 3,27.654 3,26 L3,12 C3,10.346 4.346,9 6,9 L9.382,9 L11.382,5 L24.618,5 L26.618,9 L30,9 C31.654,9 33,10.346 33,12 L33,26 C33,27.654 31.654,29 30,29 L30,29 Z"/>
    <path d="M18 13C15.243 13 13 15.243 13 18 13 20.757 15.243 23 18 23 20.757 23 23 20.757 23 18 23 15.243 20.757 13 18 13M18 25C14.14 25 11 21.859 11 18 11 14.141 14.14 11 18 11 21.86 11 25 14.141 25 18 25 21.859 21.86 25 18 25M29.5 14C29.5 14.828 28.828 15.5 28 15.5 27.172 15.5 26.5 14.828 26.5 14 26.5 13.172 27.172 12.5 28 12.5 28.828 12.5 29.5 13.172 29.5 14"/>
  </g>
</svg>
