<svg xmlns="http://www.w3.org/2000/svg" width="36" height="36" viewBox="0 0 36 36">
  <g fill-rule="evenodd">
    <polygon points="19 11 17 11 17 18.414 24.293 25.707 25.707 24.293 19 17.586"/>
    <path d="M25.3427,28.7175 L24.3657,27.0265 L22.6337,28.0265 L23.6067,29.7105 C22.1917,30.3915 20.6397,30.8235 18.9997,30.9495 L18.9997,29.0005 L16.9997,29.0005 L16.9997,30.9495 C15.3597,30.8235 13.8077,30.3915 12.3937,29.7105 L13.3657,28.0265 L11.6337,27.0265 L10.6577,28.7175 C9.3357,27.8095 8.1907,26.6645 7.2827,25.3425 L8.9737,24.3665 L7.9737,22.6335 L6.2887,23.6065 C5.6087,22.1915 5.1767,20.6405 5.0507,19.0005 L6.9997,19.0005 L6.9997,17.0005 L5.0507,17.0005 C5.1767,15.3595 5.6087,13.8085 6.2887,12.3935 L7.9737,13.3665 L8.9737,11.6335 L7.2827,10.6575 C8.1907,9.3365 9.3357,8.1905 10.6577,7.2825 L11.6337,8.9735 L13.3657,7.9735 L12.3937,6.2895 C13.8077,5.6085 15.3597,5.1765 16.9997,5.0505 L16.9997,7.0005 L18.9997,7.0005 L18.9997,5.0505 C20.6397,5.1765 22.1917,5.6085 23.6067,6.2895 L22.6337,7.9735 L24.3657,8.9735 L25.3427,7.2825 C26.6637,8.1905 27.8097,9.3365 28.7177,10.6575 L27.0267,11.6335 L28.0267,13.3665 L29.7107,12.3935 C30.3907,13.8085 30.8237,15.3595 30.9497,17.0005 L28.9997,17.0005 L28.9997,19.0005 L30.9497,19.0005 C30.8237,20.6405 30.3907,22.1915 29.7107,23.6065 L28.0267,22.6335 L27.0267,24.3665 L28.7177,25.3425 C27.8097,26.6645 26.6637,27.8095 25.3427,28.7175 M17.9997,3.0005 C9.7287,3.0005 2.9997,9.7285 2.9997,18.0005 C2.9997,26.2715 9.7287,33.0005 17.9997,33.0005 C26.2707,33.0005 32.9997,26.2715 32.9997,18.0005 C32.9997,9.7285 26.2707,3.0005 17.9997,3.0005"/>
  </g>
</svg>
