<svg xmlns="http://www.w3.org/2000/svg" width="36" height="36" viewBox="0 0 36 36">
  <g fill-rule="evenodd">
    <polygon points="5 31 7 31 7 29 5 29"/>
    <polygon points="5 11 7 11 7 9 5 9"/>
    <polygon points="5 27 7 27 7 25 5 25"/>
    <polygon points="5 7 7 7 7 5 5 5"/>
    <polygon points="25 7 27 7 27 5 25 5"/>
    <polygon points="9 7 11 7 11 5 9 5"/>
    <polygon points="29 7 31 7 31 5 29 5"/>
    <polygon points="29 11 31 11 31 9 29 9"/>
    <polygon points="29 27 31 27 31 25 29 25"/>
    <polygon points="29 31 31 31 31 29 29 29"/>
    <polygon points="9 31 11 31 11 29 9 29"/>
    <polygon points="25 31 27 31 27 29 25 29"/>
    <polygon points="5 23 7 23 7 21 5 21"/>
    <polygon points="5 19 7 19 7 17 5 17"/>
    <polygon points="5 15 7 15 7 13 5 13"/>
    <polygon points="9 15 11 15 11 13 9 13"/>
    <polygon points="9 23 11 23 11 21 9 21"/>
    <polygon points="25 15 27 15 27 13 25 13"/>
    <polygon points="29 15 31 15 31 13 29 13"/>
    <polygon points="29 19 31 19 31 17 29 17"/>
    <polygon points="29 23 31 23 31 21 29 21"/>
    <polygon points="25 23 27 23 27 21 25 21"/>
    <path d="M19,29 L17,29 L15,29 L15,23 L15,21 L15,19 L15,17 L15,15 L15,13 L15,7 L17,7 L19,7 L21,7 L21,13 L21,15 L21,17 L21,19 L21,21 L21,23 L21,29 L19,29 Z M23,23 L23,21 L23,19 L23,17 L23,15 L23,13 L23,7 L23,5 L21,5 L19,5 L17,5 L15,5 L13,5 L13,7 L13,13 L13,15 L13,17 L13,19 L13,21 L13,23 L13,29 L13,31 L15,31 L17,31 L19,31 L21,31 L23,31 L23,29 L23,23 Z"/>
  </g>
</svg>
