<svg xmlns="http://www.w3.org/2000/svg" width="36" height="36" viewBox="0 0 36 36">
  <path fill-rule="evenodd" d="M12,10 C10.897,10 10,10.897 10,12 C10,13.103 10.897,14 12,14 L14,14 L14,12 C14,10.897 13.103,10 12,10 L12,10 Z M22,14 L24,14 C25.103,14 26,13.103 26,12 C26,10.897 25.103,10 24,10 C22.897,10 22,10.897 22,12 L22,14 Z M16,20 L20,20 L20,16 L16,16 L16,20 Z M12,22 C10.897,22 10,22.897 10,24 C10,25.103 10.897,26 12,26 C13.103,26 14,25.103 14,24 L14,22 L12,22 Z M22,22 L22,24 C22,25.103 22.897,26 24,26 C25.103,26 26,25.103 26,24 C26,22.897 25.103,22 24,22 L22,22 Z M24,28 C21.794,28 20,26.206 20,24 L20,22 L16,22 L16,24 C16,26.206 14.206,28 12,28 C9.794,28 8,26.206 8,24 C8,21.794 9.794,20 12,20 L14,20 L14,16 L12,16 C9.794,16 8,14.206 8,12 C8,9.794 9.794,8 12,8 C14.206,8 16,9.794 16,12 L16,14 L20,14 L20,12 C20,9.794 21.794,8 24,8 C26.206,8 28,9.794 28,12 C28,14.206 26.206,16 24,16 L22,16 L22,20 L24,20 C26.206,20 28,21.794 28,24 C28,26.206 26.206,28 24,28 L24,28 Z"/>
</svg>
