<svg xmlns="http://www.w3.org/2000/svg" width="36" height="36" viewBox="0 0 36 36">
  <path fill-rule="evenodd" d="M30,25 L22.618,25 L13.382,25 L6,25 C5.449,25 5,24.551 5,24 L5,23 L31,23 L31,24 C31,24.551 30.551,25 30,25 L30,25 Z M22.382,29 L13.618,29 L14.618,27 L21.382,27 L22.382,29 Z M6,7 L30,7 C30.551,7 31,7.449 31,8 L31,21 L5,21 L5,8 C5,7.449 5.449,7 6,7 L6,7 Z M30,5 L6,5 C4.346,5 3,6.346 3,8 L3,24 C3,25.654 4.346,27 6,27 L12.382,27 L10.382,31 L25.618,31 L23.618,27 L30,27 C31.654,27 33,25.654 33,24 L33,8 C33,6.346 31.654,5 30,5 L30,5 Z"/>
</svg>
