<svg xmlns="http://www.w3.org/2000/svg" width="36" height="36" viewBox="0 0 36 36">
  <g fill-rule="evenodd">
    <path d="M18,21 C16.346,21 15,19.654 15,18 C15,16.346 16.346,15 18,15 C19.654,15 21,16.346 21,18 C21,19.654 19.654,21 18,21 M18,13 C15.243,13 13,15.243 13,18 C13,20.757 15.243,23 18,23 C20.757,23 23,20.757 23,18 C23,15.243 20.757,13 18,13"/>
    <path d="M27.3276,27.0566 L27.0566,27.3276 L23.5896,25.0836 L23.0406,25.4556 C22.0356,26.1366 20.9146,26.6006 19.7076,26.8316 L19.0576,26.9566 L18.1916,30.9996 L17.8086,30.9996 L16.9416,26.9566 L16.2916,26.8316 C15.0846,26.6006 13.9636,26.1366 12.9586,25.4556 L12.4106,25.0836 L8.9426,27.3276 L8.6726,27.0566 L10.9156,23.5896 L10.5436,23.0406 C9.8626,22.0356 9.3986,20.9136 9.1666,19.7076 L9.0416,19.0576 L4.9996,18.1916 L4.9996,17.8086 L9.0416,16.9426 L9.1666,16.2916 C9.3986,15.0856 9.8626,13.9646 10.5436,12.9586 L10.9156,12.4106 L8.6726,8.9436 L8.9426,8.6716 L12.4106,10.9156 L12.9586,10.5436 C13.9636,9.8636 15.0846,9.3996 16.2916,9.1676 L16.9416,9.0426 L17.8086,4.9996 L18.1916,4.9996 L19.0576,9.0426 L19.7076,9.1676 C20.9146,9.3996 22.0356,9.8636 23.0406,10.5436 L23.5896,10.9156 L27.0566,8.6716 L27.3276,8.9436 L25.0846,12.4106 L25.4556,12.9586 C26.1376,13.9646 26.6006,15.0856 26.8326,16.2916 L26.9576,16.9426 L30.9996,17.8086 L30.9996,18.1916 L26.9576,19.0576 L26.8326,19.7076 C26.6006,20.9136 26.1376,22.0356 25.4556,23.0406 L25.0846,23.5896 L27.3276,27.0566 Z M32.9996,19.8086 L32.9996,16.1916 L28.6506,15.2596 C28.3936,14.2506 27.9986,13.2936 27.4716,12.4036 L29.8856,8.6716 L27.3276,6.1156 L23.5966,8.5296 C22.7066,8.0016 21.7496,7.6076 20.7406,7.3496 L19.8086,2.9996 L16.1916,2.9996 L15.2596,7.3496 C14.2496,7.6076 13.2936,8.0016 12.4036,8.5296 L8.6726,6.1156 L6.1146,8.6716 L8.5286,12.4036 C8.0016,13.2936 7.6066,14.2506 7.3486,15.2596 L2.9996,16.1916 L2.9996,19.8086 L7.3486,20.7406 C7.6066,21.7486 8.0016,22.7056 8.5286,23.5966 L6.1146,27.3276 L8.6726,29.8846 L12.4036,27.4706 C13.2936,27.9976 14.2496,28.3926 15.2596,28.6506 L16.1916,32.9996 L19.8086,32.9996 L20.7406,28.6506 C21.7496,28.3926 22.7066,27.9976 23.5966,27.4706 L27.3276,29.8846 L29.8856,27.3276 L27.4716,23.5966 C27.9986,22.7056 28.3936,21.7486 28.6506,20.7406 L32.9996,19.8086 Z"/>
  </g>
</svg>
