<svg xmlns="http://www.w3.org/2000/svg" width="36" height="36" viewBox="0 0 36 36">
  <g fill-rule="evenodd">
    <path d="M14.9997,3.0003 L14.9997,7.0003 L17.0007,7.0003 L17.0007,5.0003 L24.9997,5.0003 L24.9997,11.0003 L30.9997,11.0003 L30.9997,25.0003 L24.9997,25.0003 L24.9997,26.9993 L32.9997,26.9993 L32.9997,9.5853 L26.4147,3.0003 L14.9997,3.0003 Z M27.0007,6.4143 L29.5857,8.9993 L27.0007,8.9993 L27.0007,6.4143 Z"/>
    <path d="M4.9998,8.9997 L4.9998,32.9997 L22.9998,32.9997 L22.9998,15.5857 L16.4148,8.9997 L4.9998,8.9997 Z M6.9998,11.0007 L14.9998,11.0007 L14.9998,16.9997 L20.9998,16.9997 L20.9998,31.0007 L6.9998,31.0007 L6.9998,11.0007 Z M17.0008,12.4147 L19.5858,14.9997 L17.0008,14.9997 L17.0008,12.4147 Z"/>
  </g>
</svg>
