<svg xmlns="http://www.w3.org/2000/svg" width="36" height="36" viewBox="0 0 36 36">
  <path fill-rule="evenodd" d="M26,29 C24.346,29 23,27.654 23,26 C23,24.346 24.346,23 26,23 C27.654,23 29,24.346 29,26 C29,27.654 27.654,29 26,29 M10,29 C8.346,29 7,27.654 7,26 C7,24.346 8.346,23 10,23 C11.654,23 13,24.346 13,26 C13,27.654 11.654,29 10,29 M26,21 C24.983,21 24.038,21.309 23.247,21.833 L19.414,18 L29.707,7.707 L28.293,6.293 L18,16.586 L7.707,6.293 L6.293,7.707 L16.586,18 L12.753,21.833 C11.962,21.309 11.017,21 10,21 C7.243,21 5,23.243 5,26 C5,28.757 7.243,31 10,31 C12.757,31 15,28.757 15,26 C15,24.983 14.691,24.038 14.167,23.247 L18,19.414 L21.833,23.247 C21.309,24.038 21,24.983 21,26 C21,28.757 23.243,31 26,31 C28.757,31 31,28.757 31,26 C31,23.243 28.757,21 26,21"/>
</svg>
