<svg xmlns="http://www.w3.org/2000/svg" width="36" height="36" viewBox="0 0 36 36">
  <path fill-rule="evenodd" d="M20,9 C20,7.897 19.103,7 18,7 C16.897,7 16,7.897 16,9 C16,10.103 16.897,11 18,11 C19.103,11 20,10.103 20,9 Z M14,9 C14,6.794 15.794,5 18,5 C20.206,5 22,6.794 22,9 C22,11.206 20.206,13 18,13 C15.794,13 14,11.206 14,9 Z M14,27 C14,24.794 15.794,23 18,23 C20.206,23 22,24.794 22,27 C22,29.206 20.206,31 18,31 C15.794,31 14,29.206 14,27 Z M20,27 C20,25.897 19.103,25 18,25 C16.897,25 16,25.897 16,27 C16,28.103 16.897,29 18,29 C19.103,29 20,28.103 20,27 Z M7,17 L29,17 L29,19 L7,19 L7,17 Z"/>
</svg>
