<svg xmlns="http://www.w3.org/2000/svg" width="36" height="36" viewBox="0 0 36 36">
  <g fill-rule="evenodd">
    <path d="M8 16C6.897 16 6 16.897 6 18 6 19.103 6.897 20 8 20 9.103 20 10 19.103 10 18 10 16.897 9.103 16 8 16M8 22C5.794 22 4 20.206 4 18 4 15.794 5.794 14 8 14 10.206 14 12 15.794 12 18 12 20.206 10.206 22 8 22M18 16C16.897 16 16 16.897 16 18 16 19.103 16.897 20 18 20 19.103 20 20 19.103 20 18 20 16.897 19.103 16 18 16M18 22C15.794 22 14 20.206 14 18 14 15.794 15.794 14 18 14 20.206 14 22 15.794 22 18 22 20.206 20.206 22 18 22M28 16C26.897 16 26 16.897 26 18 26 19.103 26.897 20 28 20 29.103 20 30 19.103 30 18 30 16.897 29.103 16 28 16M28 22C25.794 22 24 20.206 24 18 24 15.794 25.794 14 28 14 30.206 14 32 15.794 32 18 32 20.206 30.206 22 28 22M8 26C6.897 26 6 26.897 6 28 6 29.103 6.897 30 8 30 9.103 30 10 29.103 10 28 10 26.897 9.103 26 8 26M8 32C5.794 32 4 30.206 4 28 4 25.794 5.794 24 8 24 10.206 24 12 25.794 12 28 12 30.206 10.206 32 8 32M18 26C16.897 26 16 26.897 16 28 16 29.103 16.897 30 18 30 19.103 30 20 29.103 20 28 20 26.897 19.103 26 18 26M18 32C15.794 32 14 30.206 14 28 14 25.794 15.794 24 18 24 20.206 24 22 25.794 22 28 22 30.206 20.206 32 18 32M28 26C26.897 26 26 26.897 26 28 26 29.103 26.897 30 28 30 29.103 30 30 29.103 30 28 30 26.897 29.103 26 28 26M28 32C25.794 32 24 30.206 24 28 24 25.794 25.794 24 28 24 30.206 24 32 25.794 32 28 32 30.206 30.206 32 28 32M8 6C6.897 6 6 6.897 6 8 6 9.103 6.897 10 8 10 9.103 10 10 9.103 10 8 10 6.897 9.103 6 8 6M8 12C5.794 12 4 10.206 4 8 4 5.794 5.794 4 8 4 10.206 4 12 5.794 12 8 12 10.206 10.206 12 8 12M18 6C16.897 6 16 6.897 16 8 16 9.103 16.897 10 18 10 19.103 10 20 9.103 20 8 20 6.897 19.103 6 18 6M18 12C15.794 12 14 10.206 14 8 14 5.794 15.794 4 18 4 20.206 4 22 5.794 22 8 22 10.206 20.206 12 18 12M28 6C26.897 6 26 6.897 26 8 26 9.103 26.897 10 28 10 29.103 10 30 9.103 30 8 30 6.897 29.103 6 28 6M28 12C25.794 12 24 10.206 24 8 24 5.794 25.794 4 28 4 30.206 4 32 5.794 32 8 32 10.206 30.206 12 28 12"/>
  </g>
</svg>
