<svg xmlns="http://www.w3.org/2000/svg" width="36" height="36" viewBox="0 0 36 36">
  <g fill-rule="evenodd">
    <path d="M24,31 C20.14,31 17,27.859 17,24 C17,20.141 20.14,17 24,17 C27.86,17 31,20.141 31,24 C31,27.859 27.86,31 24,31 L24,31 Z M7,31 L7,5 L17,5 L17,13 L25,13 L25,15.059 C24.671,15.022 24.338,15 24,15 C19.038,15 15,19.037 15,24 C15,26.826 16.312,29.349 18.356,31 L7,31 Z M19,6.414 L23.586,11 L19,11 L19,6.414 Z M33,24 C33,20.09 30.49,16.764 27,15.525 L27,11.586 L18.414,3 L5,3 L5,33 L25,33 L25,32.941 C29.493,32.442 33,28.625 33,24 L33,24 Z"/>
    <polygon points="25 23 22 23 22 25 23 25 23 27 22 27 22 29 26 29 26 27 25 27"/>
    <path d="M24,21.5 C24.828,21.5 25.5,20.828 25.5,20 C25.5,19.172 24.828,18.5 24,18.5 C23.172,18.5 22.5,19.172 22.5,20 C22.5,20.828 23.172,21.5 24,21.5"/>
  </g>
</svg>
