<svg xmlns="http://www.w3.org/2000/svg" width="36" height="36" viewBox="0 0 36 36">
  <path fill-rule="evenodd" d="M25.3994,28.1992 C24.8354,27.4482 23.9384,27.0002 23.0004,27.0002 L13.0004,27.0002 C12.0614,27.0002 11.1644,27.4482 10.6004,28.2002 L9.0004,30.3332 L9.0004,6.8482 L10.5774,11.0532 C11.0144,12.2182 12.1434,13.0002 13.3864,13.0002 L17.0004,13.0002 L17.0004,14.8892 C16.6954,15.1642 16.5004,15.5572 16.5004,16.0002 C16.5004,16.8282 17.1714,17.5002 18.0004,17.5002 C18.8284,17.5002 19.5004,16.8282 19.5004,16.0002 C19.5004,15.5572 19.3044,15.1642 19.0004,14.8892 L19.0004,13.0002 L22.6134,13.0002 C23.8574,13.0002 24.9854,12.2182 25.4234,11.0532 L27.0004,6.8482 L27.0004,30.3332 L25.3994,28.1992 Z M11.0004,31.0002 L12.1994,29.4002 C12.3874,29.1492 12.6874,29.0002 13.0004,29.0002 L23.0004,29.0002 C23.3134,29.0002 23.6124,29.1492 23.8004,29.3992 L25.0004,31.0002 L11.0004,31.0002 Z M25.5574,5.0002 L23.5504,10.3502 C23.4044,10.7392 23.0284,11.0002 22.6134,11.0002 L19.0004,11.0002 L19.0004,9.1102 C19.3044,8.8362 19.5004,8.4422 19.5004,8.0002 C19.5004,7.1712 18.8284,6.5002 18.0004,6.5002 C17.1714,6.5002 16.5004,7.1712 16.5004,8.0002 C16.5004,8.4422 16.6954,8.8362 17.0004,9.1102 L17.0004,11.0002 L13.3864,11.0002 C12.9714,11.0002 12.5954,10.7392 12.4494,10.3502 L10.4424,5.0002 L25.5574,5.0002 Z M28.4424,3.0002 L7.5574,3.0002 L7.0004,3.0002 L7.0004,33.0002 L29.0004,33.0002 L29.0004,3.0002 L28.4424,3.0002 Z"/>
</svg>
