<svg xmlns="http://www.w3.org/2000/svg" width="36" height="36" viewBox="0 0 36 36">
  <g fill-rule="evenodd">
    <path d="M32.707 31.293L24.448 23.034C26.04 21.126 27 18.673 27 16 27 13.397 26.102 10.949 24.478 9L28 9 28 7 21 7 21 14 23 14 23 10.361C24.285 11.942 25 13.908 25 16 25 20.962 20.962 25 16 25 15.397 25 14.791 24.939 14.198 24.819L13.802 26.779C14.524 26.926 15.264 27 16 27 18.673 27 21.125 26.04 23.034 24.448L31.293 32.707 32.707 31.293zM9 21.6395C7.715 20.0585 7 18.0915 7 15.9995 7 11.0375 11.038 6.9995 16 6.9995 16.603 6.9995 17.209 7.0615 17.802 7.1805L18.198 5.2205C17.476 5.0745 16.736 4.9995 16 4.9995 9.935 4.9995 5 9.9345 5 15.9995 5 18.6035 5.898 21.0515 7.521 22.9995L4 22.9995 4 24.9995 11 24.9995 11 17.9995 9 17.9995 9 21.6395z"/>
  </g>
</svg>
