<svg xmlns="http://www.w3.org/2000/svg" width="36" height="36" viewBox="0 0 36 36">
  <g fill-rule="evenodd">
    <path d="M18,31 C10.832,31 5,25.168 5,18 C5,10.832 10.832,5 18,5 C25.168,5 31,10.832 31,18 C31,25.168 25.168,31 18,31 M18,3 C9.729,3 3,9.729 3,18 C3,26.271 9.729,33 18,33 C26.271,33 33,26.271 33,18 C33,9.729 26.271,3 18,3"/>
    <path d="M10.5 14C10.5 14.828 11.172 15.5 12 15.5 12.789 15.5 13.428 14.889 13.488 14.116L14.4 14.8 15.6 13.2 11.6 10.2 10.4 11.8 11.469 12.602C10.904 12.816 10.5 13.359 10.5 14M21.4443 19.6851C19.2223 18.7651 16.7763 18.7651 14.5553 19.6851 12.3353 20.6051 10.6053 22.3351 9.6853 24.5561L11.5323 25.3211C13.0103 21.7551 17.1123 20.0541 20.6783 21.5331 22.4063 22.2481 23.7513 23.5941 24.4673 25.3211L26.3153 24.5561C25.3953 22.3351 23.6653 20.6051 21.4443 19.6851M22.5117 14.1161C22.5717 14.8891 23.2117 15.5001 23.9997 15.5001 24.8287 15.5001 25.4997 14.8281 25.4997 14.0001 25.4997 13.3591 25.0967 12.8161 24.5307 12.6011L25.5997 11.8001 24.3997 10.2001 20.3997 13.2001 21.5997 14.8001 22.5117 14.1161z"/>
  </g>
</svg>
