<svg xmlns="http://www.w3.org/2000/svg" width="36" height="36" viewBox="0 0 36 36">
  <path fill-rule="evenodd" d="M31,22 C31,22.552 30.551,23 30,23 L29,23 L29,24 C29,24.552 28.551,25 28,25 C27.449,25 27,24.552 27,24 L27,16 C27,15.448 27.449,15 28,15 C28.551,15 29,15.448 29,16 L29,17 L30,17 C30.551,17 31,17.448 31,18 L31,22 Z M8,15 C8.551,15 9,15.448 9,16 L9,24 C9,24.552 8.551,25 8,25 C7.449,25 7,24.552 7,24 L7,23 L6,23 C5.449,23 5,22.552 5,22 L5,18 C5,17.448 5.449,17 6,17 L7,17 L7,16 C7,15.448 7.449,15 8,15 L8,15 Z M16,29 L20,29 C20.551,29 21,29.448 21,30 C21,30.552 20.551,31 20,31 L16,31 C15.449,31 15,30.552 15,30 C15,29.448 15.449,29 16,29 L16,29 Z M30.958,15.163 C30.523,8.385 24.886,3 18,3 C11.114,3 5.477,8.385 5.042,15.163 C3.857,15.564 3,16.681 3,18 L3,22 C3,23.352 3.898,24.497 5.129,24.871 C5.438,25.887 6.276,26.667 7.318,26.912 C8.118,29.285 10.36,31 13,31 L13.184,31 C13.598,32.161 14.698,33 16,33 L20,33 C21.654,33 23,31.654 23,30 C23,28.346 21.654,27 20,27 L16,27 C14.698,27 13.598,27.839 13.184,29 L13,29 C11.386,29 10,28.034 9.368,26.654 C10.333,26.155 11,25.159 11,24 L11,16 C11,14.346 9.654,13 8,13 C7.797,13 7.601,13.026 7.41,13.065 C8.699,8.422 12.952,5 18,5 C23.048,5 27.301,8.422 28.59,13.065 C28.399,13.026 28.203,13 28,13 C26.346,13 25,14.346 25,16 L25,24 C25,25.654 26.346,27 28,27 C29.352,27 30.497,26.102 30.871,24.871 C32.102,24.497 33,23.352 33,22 L33,18 C33,16.681 32.143,15.564 30.958,15.163 L30.958,15.163 Z"/>
</svg>
