<svg xmlns="http://www.w3.org/2000/svg" width="36" height="36" viewBox="0 0 36 36">
  <g fill-rule="evenodd">
    <path d="M18,13.5 C18.828,13.5 19.5,12.828 19.5,12 C19.5,11.172 18.828,10.5 18,10.5 C17.172,10.5 16.5,11.172 16.5,12 C16.5,12.828 17.172,13.5 18,13.5"/>
    <path d="M18,31 C10.832,31 5,25.168 5,18 C5,10.832 10.832,5 18,5 C25.168,5 31,10.832 31,18 C31,25.168 25.168,31 18,31 M18,3 C9.729,3 3,9.729 3,18 C3,26.271 9.729,33 18,33 C26.271,33 33,26.271 33,18 C33,9.729 26.271,3 18,3"/>
    <polygon points="19 15 15 15 15 17 17 17 17 25 15 25 15 27 21 27 21 25 19 25"/>
  </g>
</svg>
