<svg xmlns="http://www.w3.org/2000/svg" width="36" height="36" viewBox="0 0 36 36">
  <g fill-rule="evenodd">
    <path d="M18,31 C10.832,31 5,25.168 5,18 C5,10.832 10.832,5 18,5 C25.168,5 31,10.832 31,18 C31,25.168 25.168,31 18,31 M18,3 C9.729,3 3,9.729 3,18 C3,26.271 9.729,33 18,33 C26.271,33 33,26.271 33,18 C33,9.729 26.271,3 18,3"/>
    <path d="M19,11 L17,11 L17,13 L11,13 L11,15 L21.019,15 C20.951,16.355 20.437,19.122 17.782,21.903 C16.268,20.501 15.662,19.221 15.343,17.783 L13.39,18.217 C13.82,20.152 14.704,21.74 16.308,23.264 C15.515,23.902 14.596,24.529 13.517,25.125 L14.483,26.875 C15.812,26.142 16.93,25.364 17.881,24.569 C18.897,25.321 20.103,26.078 21.548,26.875 L22.515,25.125 C21.253,24.428 20.221,23.786 19.365,23.177 C22.399,19.954 22.963,16.678 23.026,15 L25,15 L25,13 L19,13 L19,11 Z"/>
  </g>
</svg>
