<svg xmlns="http://www.w3.org/2000/svg" width="36" height="36" viewBox="0 0 36 36">
  <g fill-rule="evenodd">
    <path d="M28.1631,13.7905 C27.0391,11.0755 24.9251,8.9615 22.2101,7.8375 L21.4441,9.6855 C23.6651,10.6045 25.3951,12.3345 26.3151,14.5555 C27.2351,16.7765 27.2351,19.2235 26.3151,21.4435 C24.4161,26.0285 19.1381,28.2145 14.5561,26.3145 C12.3351,25.3945 10.6041,23.6655 9.6841,21.4445 C8.7651,19.2235 8.7651,16.7765 9.6841,14.5565 C10.6051,12.3345 12.3351,10.6045 14.5561,9.6855 L13.7901,7.8375 C11.0761,8.9615 8.9621,11.0755 7.8371,13.7905 C6.7131,16.5045 6.7131,19.4955 7.8371,22.2095 C8.9611,24.9245 11.0751,27.0385 13.7901,28.1625 C15.1621,28.7305 16.5851,28.9995 17.9851,28.9995 C22.3041,28.9995 26.4101,26.4405 28.1631,22.2095 C29.2871,19.4955 29.2871,16.5045 28.1631,13.7905"/>
    <polygon points="17 18 19 18 19 5 17 5"/>
  </g>
</svg>
