<svg xmlns="http://www.w3.org/2000/svg" width="36" height="36" viewBox="0 0 36 36">
  <g fill-rule="evenodd">
    <path d="M6 7C5.448 7 5 7.448 5 8 5 8.552 5.448 9 6 9L30 9C30.552 9 31 8.552 31 8 31 7.448 30.552 7 30 7L6 7zM30 11L6 11C4.346 11 3 9.654 3 8 3 6.346 4.346 5 6 5L30 5C31.654 5 33 6.346 33 8 33 9.654 31.654 11 30 11L30 11zM6 17C5.448 17 5 17.448 5 18 5 18.552 5.448 19 6 19L30 19C30.552 19 31 18.552 31 18 31 17.448 30.552 17 30 17L6 17zM30 21L6 21C4.346 21 3 19.654 3 18 3 16.346 4.346 15 6 15L30 15C31.654 15 33 16.346 33 18 33 19.654 31.654 21 30 21L30 21zM6 27C5.448 27 5 27.448 5 28 5 28.552 5.448 29 6 29L30 29C30.552 29 31 28.552 31 28 31 27.448 30.552 27 30 27L6 27zM30 31L6 31C4.346 31 3 29.654 3 28 3 26.346 4.346 25 6 25L30 25C31.654 25 33 26.346 33 28 33 29.654 31.654 31 30 31L30 31z"/>
  </g>
</svg>
