<svg xmlns="http://www.w3.org/2000/svg" width="36" height="36" viewBox="0 0 36 36">
  <g fill-rule="evenodd">
    <path d="M15,8 C15,6.346 16.346,5 18,5 C19.654,5 21,6.346 21,8 L21,20 C21,21.654 19.654,23 18,23 C16.346,23 15,21.654 15,20 L15,8 Z M18,25 C20.757,25 23,22.757 23,20 L23,8 C23,5.243 20.757,3 18,3 C15.243,3 13,5.243 13,8 L13,20 C13,22.757 15.243,25 18,25 L18,25 Z"/>
    <path d="M25,17 L25,20 C25,23.859 21.86,27 18,27 C14.14,27 11,23.859 11,20 L11,17 L9,17 L9,20 C9,24.625 12.507,28.442 17,28.941 L17,31 L13,31 L13,33 L17,33 L19,33 L23,33 L23,31 L19,31 L19,28.941 C23.493,28.442 27,24.625 27,20 L27,17 L25,17 Z"/>
  </g>
</svg>
