<svg xmlns="http://www.w3.org/2000/svg" width="36" height="36" viewBox="0 0 36 36">
  <polygon fill-rule="evenodd" points="12.343 9.272 13.757 10.686 17.001 7.443 17.001 16.999 7.443 16.999 10.687 13.757 9.272 12.343 3.616 17.999 9.272 23.657 10.687 22.243 7.443 18.999 17.001 18.999 17.001 28.556 13.757 25.313 12.343 26.728 18 32.384 23.657 26.728 22.243 25.313 19 28.556 19 18.999 28.557 18.999 25.314 22.243 26.728 23.657 32.385 17.999 26.728 12.343 25.314 13.757 28.557 16.999 19 16.999 19 7.443 22.243 10.686 23.657 9.272 18 3.615"/>
</svg>
