<svg xmlns="http://www.w3.org/2000/svg" width="36" height="36" viewBox="0 0 36 36">
  <g fill-rule="evenodd">
    <path d="M7,29 L29,29 L29,7 L7,7 L7,29 Z M5,31 L31,31 L31,5 L5,5 L5,31 Z"/>
    <path d="M16,23 C15,23 13,20.838 13,18 C13,15.243 15.243,13 18,13 C20.757,13 23,15.243 23,18 C23,20.838 21,23 20,23 L20,25 L26,25 L26,23 L23.311,23 C24.297,21.731 25,19.963 25,18 C25,14.14 21.86,11 18,11 C14.14,11 11,14.14 11,18 C11,19.963 11.703,21.731 12.689,23 L10,23 L10,25 L16,25 L16,23 Z"/>
  </g>
</svg>
