<svg xmlns="http://www.w3.org/2000/svg" width="36" height="36" viewBox="0 0 36 36">
  <g fill-rule="evenodd">
    <path d="M21 30.1533C21 30.7053 20.551 31.1533 20 31.1533L12 31.1533C11.449 31.1533 11 30.7053 11 30.1533L11 15.1533 21 15.1533 21 30.1533zM16 9.1533C18.414 9.1533 20.434 10.8743 20.899 13.1533L11.101 13.1533C11.566 10.8743 13.586 9.1533 16 9.1533L16 9.1533zM15 7.1533L17 7.1533 17 5.1533 15 5.1533 15 7.1533zM19 7.8383L19 3.1533 13 3.1533 13 7.8383C10.928 8.8273 9.419 10.8013 9.08 13.1533L9 13.1533 9 30.1533C9 31.8073 10.346 33.1533 12 33.1533L20 33.1533C21.654 33.1533 23 31.8073 23 30.1533L23 13.1533 22.92 13.1533C22.581 10.8013 21.072 8.8273 19 7.8383L19 7.8383zM29 7L24 6.286 24 6.021 29 5.307 29 7zM22 4.286L22 8.021 31 9.307 31 3 22 4.286z"/>
  </g>
</svg>
