<svg xmlns="http://www.w3.org/2000/svg" width="36" height="36" viewBox="0 0 36 36">
  <path fill-rule="evenodd" d="M19,26.941 L19,23 L17,23 L17,26.941 C12.836,26.478 9.522,23.165 9.059,19 L13,19 L13,17 L9.059,17 C9.522,12.835 12.836,9.522 17,9.059 L17,13 L19,13 L19,9.059 C23.164,9.522 26.478,12.835 26.941,17 L23,17 L23,19 L26.941,19 C26.478,23.165 23.164,26.478 19,26.941 L19,26.941 Z M33,17 L28.949,17 C28.472,11.732 24.268,7.528 19,7.051 L19,3 L17,3 L17,7.051 C11.732,7.528 7.528,11.732 7.051,17 L3,17 L3,19 L7.051,19 C7.528,24.268 11.732,28.472 17,28.949 L17,33 L19,33 L19,28.949 C24.268,28.472 28.472,24.268 28.949,19 L33,19 L33,17 Z"/>
</svg>
