<svg xmlns="http://www.w3.org/2000/svg" width="36" height="36" viewBox="0 0 36 36">
  <g fill-rule="evenodd">
    <path d="M8.1807 29C7.6297 29 7.1807 28.552 7.1807 28 7.1807 27.448 7.6297 27 8.1807 27 8.7317 27 9.1807 27.448 9.1807 28 9.1807 28.552 8.7317 29 8.1807 29M8.1807 25C6.5267 25 5.1807 26.346 5.1807 28 5.1807 29.654 6.5267 31 8.1807 31 9.8347 31 11.1807 29.654 11.1807 28 11.1807 26.346 9.8347 25 8.1807 25M22.1807 29C21.6297 29 21.1807 28.552 21.1807 28 21.1807 27.448 21.6297 27 22.1807 27 22.7317 27 23.1807 27.448 23.1807 28 23.1807 28.552 22.7317 29 22.1807 29M22.1807 25C20.5267 25 19.1807 26.346 19.1807 28 19.1807 29.654 20.5267 31 22.1807 31 23.8347 31 25.1807 29.654 25.1807 28 25.1807 26.346 23.8347 25 22.1807 25M7.0278 21L6.0278 15 24.3338 15 23.3338 21 7.0278 21zM24.9998 11L24.6668 13 5.6948 13 5.3608 11 24.9998 11zM26.3998 5L25.3998 9 2.9998 9 5.3338 23 25.0278 23 27.1608 10.201 27.9618 7 32.1808 7 32.1808 5 26.3998 5z"/>
  </g>
</svg>
