<svg xmlns="http://www.w3.org/2000/svg" width="36" height="36" viewBox="0 0 36 36">
  <g fill-rule="evenodd">
    <path d="M27,30 C27,30.551 26.552,31 26,31 L10,31 C9.448,31 9,30.551 9,30 L9,18 C9,17.449 9.448,17 10,17 L26,17 C26.552,17 27,17.449 27,18 L27,30 Z M27,15.184 L27,12 C27,7.038 22.963,3 18,3 C13.037,3 9,7.038 9,12 L11,12 C11,8.14 14.141,5 18,5 C21.859,5 25,8.14 25,12 L25,15 L10,15 C8.346,15 7,16.346 7,18 L7,30 C7,31.654 8.346,33 10,33 L26,33 C27.654,33 29,31.654 29,30 L29,18 C29,16.698 28.161,15.598 27,15.184 L27,15.184 Z"/>
    <path d="M18,20.5 C17.172,20.5 16.5,21.172 16.5,22 C16.5,22.443 16.695,22.836 17,23.111 L17,27 L19,27 L19,23.111 C19.305,22.836 19.5,22.443 19.5,22 C19.5,21.172 18.828,20.5 18,20.5"/>
  </g>
</svg>
