<svg xmlns="http://www.w3.org/2000/svg" width="36" height="36" viewBox="0 0 36 36">
  <path fill-rule="evenodd" d="M6.1489,31 L29.8659,31 C28.9469,28.423 24.7499,26.945 24.7019,26.93 C20.1909,25.863 20.0059,23.309 19.9999,23.021 L19.9999,19.343 L20.5549,19.067 C21.9049,18.396 21.9389,17.185 21.9379,17.049 L21.9349,16.378 L22.5539,16.105 C22.7179,15.989 23.0089,15.3 23.1659,14.93 L23.3109,14.592 C23.2749,14.575 23.0639,14.35 22.9479,14.268 L22.3489,13.841 L23.0479,11.696 C23.4589,10.035 23.2839,8.605 22.5499,7.666 C22.1689,7.179 21.6629,7 21.1619,7 L20.6129,7 L20.3179,6.437 C20.3129,6.429 19.4429,5.078 18.0419,5.078 C17.4239,5.082 15.5859,5.212 14.5679,5.877 C13.3689,6.661 12.1199,8.31 12.9809,11.778 L13.6699,13.873 L13.0319,14.29 C12.8809,14.396 12.7099,14.61 12.7319,14.674 C13.1429,15.896 13.4309,16.093 13.4619,16.111 L14.1019,16.377 L14.0669,17.065 C14.0659,17.188 14.0969,18.398 15.4449,19.067 L15.9999,19.343 L15.9999,23 C15.9949,23.306 15.8159,25.862 11.2159,26.954 C10.0019,27.369 6.9249,28.854 6.1489,31 L6.1489,31 Z M31.9999,33 L3.9999,33 L3.9999,32 C3.9999,27.334 10.4089,25.125 10.6829,25.033 C13.8199,24.284 14.0089,22.949 14.0099,22.936 L14.0039,20.538 C12.6399,19.628 12.2339,18.339 12.1169,17.592 C11.4859,17.034 11.1059,16.11 10.8369,15.312 C10.5399,14.429 10.8879,13.668 11.3329,13.151 L11.0599,12.317 C9.8349,7.397 12.0479,5.109 13.4739,4.178 C15.1699,3.069 17.7509,3.029 18.0389,3.028 C19.8919,3.028 21.1359,4.191 21.6859,4.841 C22.6139,4.985 23.4829,5.512 24.1249,6.334 C24.7809,7.172 25.7619,9.056 24.9699,12.248 L24.6739,13.158 C25.1509,13.711 25.5249,14.519 25.1429,15.393 L25.0079,15.708 C24.7259,16.375 24.4159,17.109 23.8899,17.587 C23.7719,18.333 23.3679,19.625 21.9999,20.538 L21.9999,22.999 L21.9999,22.998 C22.0079,22.998 22.2369,24.298 25.2299,25.009 C25.5909,25.125 31.9999,27.334 31.9999,32 L31.9999,33 Z"/>
</svg>
