<svg xmlns="http://www.w3.org/2000/svg" width="36" height="36" viewBox="0 0 36 36">
  <g fill-rule="evenodd">
    <path d="M19 26.7959L13 21.5459 13.01 14.4459 19 9.2039 19 26.7959zM7 20.9999L11 20.9999 11 14.9999 7 14.9999 7 20.9999zM7 12.9999C5.897 12.9999 5 13.8979 5 14.9999L5 20.9999C5 22.1029 5.897 22.9999 7 22.9999L11.624 22.9999 21 31.2039 21 4.7959 11.624 12.9999 7 12.9999zM27 18C27 15.794 25.206 14 23 14L23 16C24.103 16 25 16.897 25 18 25 19.103 24.103 20 23 20L23 22C25.206 22 27 20.206 27 18"/>
    <path d="M23,10 L23,12 C26.309,12 29,14.691 29,18 C29,21.309 26.309,24 23,24 L23,26 C27.411,26 31,22.411 31,18 C31,13.589 27.411,10 23,10"/>
  </g>
</svg>
