<svg xmlns="http://www.w3.org/2000/svg" width="36" height="36" viewBox="0 0 36 36">
  <path fill-rule="evenodd" d="M22.7875,30.075 C24.0565,28.319 25.0255,25.873 25.5515,23 L29.9975,23 C28.6495,26.222 26.0375,28.782 22.7875,30.075 L22.7875,30.075 Z M6.0035,23 L10.4485,23 C10.9745,25.873 11.9435,28.319 13.2125,30.075 C9.9625,28.782 7.3505,26.222 6.0035,23 L6.0035,23 Z M13.2125,5.925 C11.9435,7.681 10.9745,10.127 10.4485,13 L6.0025,13 C7.3505,9.778 9.9625,7.218 13.2125,5.925 L13.2125,5.925 Z M19.0005,21 L19.0005,15 L23.8345,15 C23.9395,15.951 24.0005,16.95 24.0005,18 C24.0005,19.05 23.9395,20.049 23.8345,21 L19.0005,21 Z M19.0005,30.79 L19.0005,23 L23.5275,23 C22.6995,27.191 20.8895,30.032 19.0005,30.79 L19.0005,30.79 Z M17.0005,23 L17.0005,30.79 C15.1105,30.032 13.3005,27.191 12.4725,23 L17.0005,23 Z M17.0005,5.21 L17.0005,13 L12.4725,13 C13.3005,8.81 15.1105,5.968 17.0005,5.21 L17.0005,5.21 Z M23.5275,13 L19.0005,13 L19.0005,5.21 C20.8895,5.968 22.6995,8.81 23.5275,13 L23.5275,13 Z M12.0005,18 C12.0005,16.95 12.0605,15.951 12.1655,15 L17.0005,15 L17.0005,21 L12.1655,21 C12.0605,20.049 12.0005,19.05 12.0005,18 L12.0005,18 Z M5.0005,18 C5.0005,16.966 5.1345,15.965 5.3635,15 L10.1555,15 C10.0545,15.967 10.0005,16.969 10.0005,18 C10.0005,19.031 10.0545,20.033 10.1555,21 L5.3635,21 C5.1345,20.035 5.0005,19.034 5.0005,18 L5.0005,18 Z M31.0005,18 C31.0005,19.034 30.8655,20.035 30.6365,21 L25.8445,21 C25.9455,20.033 26.0005,19.031 26.0005,18 C26.0005,16.969 25.9455,15.967 25.8445,15 L30.6365,15 C30.8655,15.965 31.0005,16.966 31.0005,18 L31.0005,18 Z M29.9975,13 L25.5515,13 C25.0255,10.127 24.0565,7.681 22.7875,5.925 C26.0375,7.218 28.6495,9.778 29.9975,13 L29.9975,13 Z M18.0005,3 C9.7285,3 3.0005,9.729 3.0005,18 C3.0005,26.272 9.7285,33 18.0005,33 C26.2715,33 33.0005,26.272 33.0005,18 C33.0005,9.729 26.2715,3 18.0005,3 L18.0005,3 Z"/>
</svg>
