<?xml version="1.0" encoding="UTF-8"?>
<svg width="800px" height="800px" viewBox="0 0 800 800" version="1.1" xmlns="http://www.w3.org/2000/svg" xmlns:xlink="http://www.w3.org/1999/xlink">
    <!-- Generator: Sketch 50.2 (55047) - http://www.bohemiancoding.com/sketch -->
    <title>Artboard</title>
    <desc>Created with Sketch.</desc>
    <defs></defs>
    <g id="Artboard" stroke="none" stroke-width="1" fill="none" fill-rule="evenodd">
        <g id="Group" transform="translate(175.000000, 107.000000)" fill="#062E3B">
            <g id="Group-9">
                <g id="Group-4" transform="translate(0.000000, 442.000000)">
                    <g id="Group-3">
                        <path d="M98.38,30.84 C98.2999996,31.240002 98.1200014,31.7799966 97.84,32.46 C97.5599986,33.1400034 97.3000012,33.48 97.06,33.48 C93.6199828,33.7200012 91.0200088,34.7999904 89.26,36.72 C87.4999912,38.6400096 85.7000092,41.5599804 83.86,45.48 L52.06,112.56 C51.8999992,112.800001 51.5400028,113.019999 50.98,113.22 C50.4199972,113.420001 49.5800056,113.52 48.46,113.52 C47.4199948,113.52 46.600003,113.420001 46,113.22 C45.399997,113.019999 45.0200008,112.800001 44.86,112.56 L16.18,45.48 C14.2599904,40.9999776 12.5400076,37.9800078 11.02,36.42 C9.4999924,34.8599922 6.8600188,33.880002 3.1,33.48 C2.8599988,33.3999996 2.6200012,33.0400032 2.38,32.4 C2.1399988,31.7599968 2.02,31.240002 2.02,30.84 C2.02,30.3599976 2.1399988,29.8000032 2.38,29.16 C2.6200012,28.5199968 2.8599988,28.2 3.1,28.2 C6.9400192,28.2 10.6799818,28.299999 14.32,28.5 C17.9600182,28.700001 21.4199836,28.8 24.7,28.8 C28.3800184,28.8 32.2399798,28.700001 36.28,28.5 C40.3200202,28.299999 44.2999804,28.2 48.22,28.2 C48.4600012,28.2 48.6599992,28.5399966 48.82,29.22 C48.9800008,29.9000034 49.06,30.439998 49.06,30.84 C49.06,31.240002 48.9800008,31.7799966 48.82,32.46 C48.6599992,33.1400034 48.4600012,33.48 48.22,33.48 C44.6999824,33.6400008 42.2200072,34.0799964 40.78,34.8 C39.3399928,35.5200036 38.5800004,36.7599912 38.5,38.52 C38.4199996,39.2400036 38.5599982,40.1599944 38.92,41.28 C39.2800018,42.4000056 39.5399992,43.159998 39.7,43.56 L57.46,85.56 L76.06,45 C76.3000012,44.4399972 76.5999982,43.5200064 76.96,42.24 C77.3200018,40.9599936 77.5,39.9600036 77.5,39.24 C77.4199996,37.3999908 76.980004,36.0400044 76.18,35.16 C75.379996,34.2799956 72.7400224,33.7200012 68.26,33.48 C68.0199988,33.3999996 67.8400006,33.0400032 67.72,32.4 C67.5999994,31.7599968 67.54,31.240002 67.54,30.84 C67.4599996,30.2799972 67.519999,29.700003 67.72,29.1 C67.920001,28.499997 68.1399988,28.2 68.38,28.2 C71.8200172,28.2 74.4199912,28.299999 76.18,28.5 C77.9400088,28.700001 80.4599836,28.8 83.74,28.8 C86.3800132,28.8 88.6199908,28.700001 90.46,28.5 C92.3000092,28.299999 94.619986,28.2 97.42,28.2 C97.6600012,28.2 97.879999,28.5199968 98.08,29.16 C98.280001,29.8000032 98.38,30.3599976 98.38,30.84 Z M187.82,70.32 C187.82,82.32006 183.720041,92.519958 175.52,100.92 C167.319959,109.320042 155.740075,113.52 140.78,113.52 C125.819925,113.52 114.220041,109.300042 105.98,100.86 C97.7399588,92.4199578 93.62,82.2400596 93.62,70.32 C93.62,58.3999404 97.7399588,48.0800436 105.98,39.36 C114.220041,30.6399564 125.819925,26.28 140.78,26.28 C155.420073,26.28 166.919958,30.579957 175.28,39.18 C183.640042,47.780043 187.82,58.1599392 187.82,70.32 Z M163.1,70.32 C163.1,59.2799448 161.500016,50.1400362 158.3,42.9 C155.099984,35.6599638 149.260042,32.04 140.78,32.04 C132.219957,32.04 126.360016,35.6999634 123.2,43.02 C120.039984,50.3400366 118.46,59.4399456 118.46,70.32 C118.46,81.4400556 120.039984,90.4599654 123.2,97.38 C126.360016,104.300035 132.219957,107.76 140.78,107.76 C149.260042,107.76 155.099984,104.280035 158.3,97.32 C161.500016,90.3599652 163.1,81.3600552 163.1,70.32 Z M271.98,80.64 C271.419997,85.1200224 270.880003,90.5999676 270.36,97.08 C269.839997,103.560032 269.500001,108.399984 269.34,111.6 C264.299975,111.439999 258.020038,111.300001 250.5,111.18 C242.979962,111.059999 236.860024,111 232.14,111 C227.019974,111 220.42004,111.079999 212.34,111.24 C204.25996,111.400001 198.22002,111.52 194.22,111.6 C193.979999,111.6 193.760001,111.300003 193.56,110.7 C193.359999,110.099997 193.26,109.520003 193.26,108.96 C193.26,108.559998 193.359999,108.040003 193.56,107.4 C193.760001,106.759997 193.979999,106.4 194.22,106.32 C198.860023,105.759997 201.919993,104.760007 203.4,103.32 C204.880007,101.879993 205.62,99.5200164 205.62,96.24 L205.62,43.56 C205.62,40.2799836 204.880007,37.9200072 203.4,36.48 C201.919993,35.0399928 198.860023,34.0400028 194.22,33.48 C193.979999,33.3999996 193.760001,33.0400032 193.56,32.4 C193.359999,31.7599968 193.26,31.240002 193.26,30.84 C193.26,30.2799972 193.359999,29.700003 193.56,29.1 C193.760001,28.499997 193.979999,28.2 194.22,28.2 C198.060019,28.2 201.99998,28.299999 206.04,28.5 C210.08002,28.700001 213.899982,28.8 217.5,28.8 C221.180018,28.8 225.01998,28.700001 229.02,28.5 C233.02002,28.299999 236.97998,28.2 240.9,28.2 C241.140001,28.2 241.359999,28.5199968 241.56,29.16 C241.760001,29.8000032 241.86,30.3599976 241.86,30.84 C241.86,31.240002 241.760001,31.7799966 241.56,32.46 C241.359999,33.1400034 241.140001,33.48 240.9,33.48 C236.259977,33.9600024 233.180008,34.9599924 231.66,36.48 C230.139992,38.0000076 229.38,40.359984 229.38,43.56 L229.38,98.04 C229.38,100.920014 230.159992,102.819995 231.72,103.74 C233.280008,104.660005 234.859992,105.12 236.46,105.12 L243.3,105.12 C248.900028,105.12 253.879978,102.480026 258.24,97.2 C262.600022,91.9199736 265.379994,86.0000328 266.58,79.44 C266.58,79.2799992 266.719999,79.1600004 267,79.08 C267.280001,78.9999996 267.699997,78.96 268.26,78.96 C269.140004,78.96 269.999996,79.1199984 270.84,79.44 C271.680004,79.7600016 272.06,80.1599976 271.98,80.64 Z M354.7,56.28 C354.7,56.680002 354.400003,57.0399984 353.8,57.36 C353.199997,57.6800016 352.500004,57.84 351.7,57.84 C351.379998,57.84 350.940003,57.7800006 350.38,57.66 C349.819997,57.5399994 349.5,57.4000008 349.42,57.24 C348.299994,52.839978 345.640021,47.9800266 341.44,42.66 C337.239979,37.3399734 333.300018,34.68 329.62,34.68 L327.82,34.68 C325.979991,34.68 324.660004,35.0599962 323.86,35.82 C323.059996,36.5800038 322.66,37.759992 322.66,39.36 L322.66,96.24 C322.66,99.440016 323.419992,101.799992 324.94,103.32 C326.460008,104.840008 329.539977,105.839998 334.18,106.32 C334.420001,106.32 334.639999,106.659997 334.84,107.34 C335.040001,108.020003 335.14,108.559998 335.14,108.96 C335.14,109.440002 335.040001,109.999997 334.84,110.64 C334.639999,111.280003 334.420001,111.6 334.18,111.6 C330.339981,111.6 326.40002,111.500001 322.36,111.3 C318.31998,111.099999 314.500018,111 310.9,111 C307.219982,111 303.38002,111.099999 299.38,111.3 C295.37998,111.500001 291.42002,111.6 287.5,111.6 C287.259999,111.6 287.040001,111.280003 286.84,110.64 C286.639999,109.999997 286.54,109.440002 286.54,108.96 C286.54,108.559998 286.639999,108.040003 286.84,107.4 C287.040001,106.759997 287.259999,106.4 287.5,106.32 C292.220024,105.759997 295.319993,104.760007 296.8,103.32 C298.280007,101.879993 299.02,99.5200164 299.02,96.24 L299.02,39.36 C299.02,37.5999912 298.660004,36.3800034 297.94,35.7 C297.219996,35.0199966 295.86001,34.68 293.86,34.68 L292.9,34.68 C289.619984,34.68 285.580024,37.1399754 280.78,42.06 C275.979976,46.9800246 272.58001,52.039974 270.58,57.24 C270.5,57.4800012 270.200003,57.6399996 269.68,57.72 C269.159997,57.8000004 268.740002,57.84 268.42,57.84 C267.699996,57.84 267.000003,57.6800016 266.32,57.36 C265.639997,57.0399984 265.3,56.680002 265.3,56.28 C266.100004,52.27998 266.959995,47.380029 267.88,41.58 C268.800005,35.779971 269.459998,30.9600192 269.86,27.12 C272.660014,27.6000024 277.01997,27.9999984 282.94,28.32 C288.86003,28.6400016 298.179936,28.8 310.9,28.8 C321.780054,28.8 330.839964,28.6400016 338.08,28.32 C345.320036,27.9999984 350.099988,27.6000024 352.42,27.12 C352.660001,30.9600192 352.979998,35.5199736 353.38,40.8 C353.780002,46.0800264 354.219998,51.2399748 354.7,56.28 Z M450.74,70.32 C450.74,82.32006 446.640041,92.519958 438.44,100.92 C430.239959,109.320042 418.660075,113.52 403.7,113.52 C388.739925,113.52 377.140041,109.300042 368.9,100.86 C360.659959,92.4199578 356.54,82.2400596 356.54,70.32 C356.54,58.3999404 360.659959,48.0800436 368.9,39.36 C377.140041,30.6399564 388.739925,26.28 403.7,26.28 C418.340073,26.28 429.839958,30.579957 438.2,39.18 C446.560042,47.780043 450.74,58.1599392 450.74,70.32 Z M426.02,70.32 C426.02,59.2799448 424.420016,50.1400362 421.22,42.9 C418.019984,35.6599638 412.180042,32.04 403.7,32.04 C395.139957,32.04 389.280016,35.6999634 386.12,43.02 C382.959984,50.3400366 381.38,59.4399456 381.38,70.32 C381.38,81.4400556 382.959984,90.4599654 386.12,97.38 C389.280016,104.300035 395.139957,107.76 403.7,107.76 C412.180042,107.76 418.019984,104.280035 421.22,97.32 C424.420016,90.3599652 426.02,81.3600552 426.02,70.32 Z" id="VOLTO"></path>
                    </g>
                </g>
                <path d="M356.581739,179.442 C363.415739,160.722 367.144739,140.507 367.144739,119.422 C367.144739,96.3429999 362.677739,74.3079999 354.559739,54.1329999 C353.090739,50.4829999 357.774739,47.5309999 360.450739,50.4149999 C389.428739,81.6409999 407.144739,123.463 407.144739,169.422 C407.144739,191.713 402.977739,213.032 395.378739,232.639 C401.966739,228.523 408.160739,221.516 413.959739,211.618 C414.921739,209.974 417.441739,210.772 417.258739,212.668 C411.835739,268.823 403.414739,309.219 391.997739,333.857 C390.696739,336.664 393.119739,331.137 391.997739,333.857 C374.959739,375.124 337.289739,414.002 291.729739,414.002 C271.586739,414.002 252.832739,408.046 237.136739,397.797 C227.782739,391.691 215.678739,391.691 206.324739,397.797 C190.627739,408.046 171.874739,414.002 151.730739,414.002 C110.723739,414.002 70.7697387,376.529 52.7937387,335.024 C52.1437387,333.521 53.5017387,336.552 52.7937387,335.024 C41.2827387,310.183 34.3527387,275.462 32.0027387,230.859 C31.9137387,229.168 34.0157387,228.302 35.1257387,229.58 C46.7747387,242.986 62.2297387,244.11 81.4907387,232.952 C99.1027387,222.748 116.946739,216.895 135.021739,215.391 C140.455739,214.477 146.037739,214.002 151.730739,214.002 C170.511739,214.002 188.082739,219.179 203.096739,228.184 C209.275739,231.891 217.294739,230.426 221.636739,224.675 C243.752739,195.372 256.867739,158.892 256.867739,119.35 C256.867739,78.6299999 242.959739,41.1589999 219.636739,11.4269999 C215.430739,6.06599994 220.542739,-1.49800006 227.125739,0.258999936 C301.837739,20.2059999 356.867739,88.3509999 356.867739,169.35 C356.867739,172.738 356.770739,176.102 356.581739,179.442 M247.729739,344.731 C268.782739,274.206 307.991739,261.311 365.358739,306.046 C347.380739,348.621 308.170739,361.516 247.729739,344.731 M195.358739,344.731 C174.306739,274.206 135.096739,261.311 77.7307387,306.046 C95.7087387,348.621 134.918739,361.516 195.358739,344.731" id="Fill-1"></path>
            </g>
        </g>
    </g>
</svg>