<svg xmlns="http://www.w3.org/2000/svg" width="701" height="207" viewBox="0 0 701 207">
  <g fill="#062E3B" fill-rule="evenodd">
    <path d="M96.38,4.84 C96.2999996,5.240002 96.1200014,5.7799966 95.84,6.46 C95.5599986,7.1400034 95.3000012,7.48 95.06,7.48 C91.6199828,7.7200012 89.0200088,8.7999904 87.26,10.72 C85.4999912,12.6400096 83.7000092,15.5599804 81.86,19.48 L50.06,86.56 C49.8999992,86.8000012 49.5400028,87.019999 48.98,87.22 C48.4199972,87.420001 47.5800056,87.52 46.46,87.52 C45.4199948,87.52 44.600003,87.420001 44,87.22 C43.399997,87.019999 43.0200008,86.8000012 42.86,86.56 L14.18,19.48 C12.2599904,14.9999776 10.5400076,11.9800078 9.02,10.42 C7.4999924,8.8599922 4.8600188,7.880002 1.1,7.48 C0.8599988,7.3999996 0.6200012,7.0400032 0.38,6.4 C0.1399988,5.7599968 0.02,5.240002 0.02,4.84 C0.02,4.3599976 0.1399988,3.8000032 0.38,3.16 C0.6200012,2.5199968 0.8599988,2.2 1.1,2.2 C4.9400192,2.2 8.6799818,2.299999 12.32,2.5 C15.9600182,2.700001 19.4199836,2.8 22.7,2.8 C26.3800184,2.8 30.2399798,2.700001 34.28,2.5 C38.3200202,2.299999 42.2999804,2.2 46.22,2.2 C46.4600012,2.2 46.6599992,2.5399966 46.82,3.22 C46.9800008,3.9000034 47.06,4.439998 47.06,4.84 C47.06,5.240002 46.9800008,5.7799966 46.82,6.46 C46.6599992,7.1400034 46.4600012,7.48 46.22,7.48 C42.6999824,7.6400008 40.2200072,8.0799964 38.78,8.8 C37.3399928,9.5200036 36.5800004,10.7599912 36.5,12.52 C36.4199996,13.2400036 36.5599982,14.1599944 36.92,15.28 C37.2800018,16.4000056 37.5399992,17.159998 37.7,17.56 L55.46,59.56 L74.06,19 C74.3000012,18.4399972 74.5999982,17.5200064 74.96,16.24 C75.3200018,14.9599936 75.5,13.9600036 75.5,13.24 C75.4199996,11.3999908 74.980004,10.0400044 74.18,9.16 C73.379996,8.2799956 70.7400224,7.7200012 66.26,7.48 C66.0199988,7.3999996 65.8400006,7.0400032 65.72,6.4 C65.5999994,5.7599968 65.54,5.240002 65.54,4.84 C65.4599996,4.2799972 65.519999,3.700003 65.72,3.1 C65.920001,2.499997 66.1399988,2.2 66.38,2.2 C69.8200172,2.2 72.4199912,2.299999 74.18,2.5 C75.9400088,2.700001 78.4599836,2.8 81.74,2.8 C84.3800132,2.8 86.6199908,2.700001 88.46,2.5 C90.3000092,2.299999 92.619986,2.2 95.42,2.2 C95.6600012,2.2 95.879999,2.5199968 96.08,3.16 C96.280001,3.8000032 96.38,4.3599976 96.38,4.84 Z M185.82,44.32 C185.82,56.32006 181.720041,66.519958 173.52,74.92 C165.319959,83.320042 153.740075,87.52 138.78,87.52 C123.819925,87.52 112.220041,83.3000422 103.98,74.86 C95.7399588,66.4199578 91.62,56.2400596 91.62,44.32 C91.62,32.3999404 95.7399588,22.0800436 103.98,13.36 C112.220041,4.6399564 123.819925,0.28 138.78,0.28 C153.420073,0.28 164.919958,4.579957 173.28,13.18 C181.640042,21.780043 185.82,32.1599392 185.82,44.32 Z M161.1,44.32 C161.1,33.2799448 159.500016,24.1400362 156.3,16.9 C153.099984,9.6599638 147.260042,6.04 138.78,6.04 C130.219957,6.04 124.360016,9.6999634 121.2,17.02 C118.039984,24.3400366 116.46,33.4399456 116.46,44.32 C116.46,55.4400556 118.039984,64.4599654 121.2,71.38 C124.360016,78.3000346 130.219957,81.76 138.78,81.76 C147.260042,81.76 153.099984,78.2800348 156.3,71.32 C159.500016,64.3599652 161.1,55.3600552 161.1,44.32 Z M269.98,54.64 C269.419997,59.1200224 268.880003,64.5999676 268.36,71.08 C267.839997,77.5600324 267.500001,82.399984 267.34,85.6 C262.299975,85.4399992 256.020038,85.3000006 248.5,85.18 C240.979962,85.0599994 234.860024,85 230.14,85 C225.019974,85 218.42004,85.0799992 210.34,85.24 C202.25996,85.4000008 196.22002,85.5199996 192.22,85.6 C191.979999,85.6 191.760001,85.300003 191.56,84.7 C191.359999,84.099997 191.26,83.5200028 191.26,82.96 C191.26,82.559998 191.359999,82.0400032 191.56,81.4 C191.760001,80.7599968 191.979999,80.4000004 192.22,80.32 C196.860023,79.7599972 199.919993,78.7600072 201.4,77.32 C202.880007,75.8799928 203.62,73.5200164 203.62,70.24 L203.62,17.56 C203.62,14.2799836 202.880007,11.9200072 201.4,10.48 C199.919993,9.0399928 196.860023,8.0400028 192.22,7.48 C191.979999,7.3999996 191.760001,7.0400032 191.56,6.4 C191.359999,5.7599968 191.26,5.240002 191.26,4.84 C191.26,4.2799972 191.359999,3.700003 191.56,3.1 C191.760001,2.499997 191.979999,2.2 192.22,2.2 C196.060019,2.2 199.99998,2.299999 204.04,2.5 C208.08002,2.700001 211.899982,2.8 215.5,2.8 C219.180018,2.8 223.01998,2.700001 227.02,2.5 C231.02002,2.299999 234.97998,2.2 238.9,2.2 C239.140001,2.2 239.359999,2.5199968 239.56,3.16 C239.760001,3.8000032 239.86,4.3599976 239.86,4.84 C239.86,5.240002 239.760001,5.7799966 239.56,6.46 C239.359999,7.1400034 239.140001,7.48 238.9,7.48 C234.259977,7.9600024 231.180008,8.9599924 229.66,10.48 C228.139992,12.0000076 227.38,14.359984 227.38,17.56 L227.38,72.04 C227.38,74.9200144 228.159992,76.8199954 229.72,77.74 C231.280008,78.6600046 232.859992,79.12 234.46,79.12 L241.3,79.12 C246.900028,79.12 251.879978,76.4800264 256.24,71.2 C260.600022,65.9199736 263.379994,60.0000328 264.58,53.44 C264.58,53.2799992 264.719999,53.1600004 265,53.08 C265.280001,52.9999996 265.699997,52.96 266.26,52.96 C267.140004,52.96 267.999996,53.1199984 268.84,53.44 C269.680004,53.7600016 270.06,54.1599976 269.98,54.64 Z M352.7,30.28 C352.7,30.680002 352.400003,31.0399984 351.8,31.36 C351.199997,31.6800016 350.500004,31.84 349.7,31.84 C349.379998,31.84 348.940003,31.7800006 348.38,31.66 C347.819997,31.5399994 347.5,31.4000008 347.42,31.24 C346.299994,26.839978 343.640021,21.9800266 339.44,16.66 C335.239979,11.3399734 331.300018,8.68 327.62,8.68 L325.82,8.68 C323.979991,8.68 322.660004,9.0599962 321.86,9.82 C321.059996,10.5800038 320.66,11.759992 320.66,13.36 L320.66,70.24 C320.66,73.440016 321.419992,75.7999924 322.94,77.32 C324.460008,78.8400076 327.539977,79.8399976 332.18,80.32 C332.420001,80.32 332.639999,80.6599966 332.84,81.34 C333.040001,82.0200034 333.14,82.559998 333.14,82.96 C333.14,83.4400024 333.040001,83.9999968 332.84,84.64 C332.639999,85.2800032 332.420001,85.6 332.18,85.6 C328.339981,85.6 324.40002,85.500001 320.36,85.3 C316.31998,85.099999 312.500018,85 308.9,85 C305.219982,85 301.38002,85.099999 297.38,85.3 C293.37998,85.500001 289.42002,85.6 285.5,85.6 C285.259999,85.6 285.040001,85.2800032 284.84,84.64 C284.639999,83.9999968 284.54,83.4400024 284.54,82.96 C284.54,82.559998 284.639999,82.0400032 284.84,81.4 C285.040001,80.7599968 285.259999,80.4000004 285.5,80.32 C290.220024,79.7599972 293.319993,78.7600072 294.8,77.32 C296.280007,75.8799928 297.02,73.5200164 297.02,70.24 L297.02,13.36 C297.02,11.5999912 296.660004,10.3800034 295.94,9.7 C295.219996,9.0199966 293.86001,8.68 291.86,8.68 L290.9,8.68 C287.619984,8.68 283.580024,11.1399754 278.78,16.06 C273.979976,20.9800246 270.58001,26.039974 268.58,31.24 C268.5,31.4800012 268.200003,31.6399996 267.68,31.72 C267.159997,31.8000004 266.740002,31.84 266.42,31.84 C265.699996,31.84 265.000003,31.6800016 264.32,31.36 C263.639997,31.0399984 263.3,30.680002 263.3,30.28 C264.100004,26.27998 264.959995,21.380029 265.88,15.58 C266.800005,9.779971 267.459998,4.9600192 267.86,1.12 C270.660014,1.6000024 275.01997,1.9999984 280.94,2.32 C286.86003,2.6400016 296.179936,2.8 308.9,2.8 C319.780054,2.8 328.839964,2.6400016 336.08,2.32 C343.320036,1.9999984 348.099988,1.6000024 350.42,1.12 C350.660001,4.9600192 350.979998,9.5199736 351.38,14.8 C351.780002,20.0800264 352.219998,25.2399748 352.7,30.28 Z M448.74,44.32 C448.74,56.32006 444.640041,66.519958 436.44,74.92 C428.239959,83.320042 416.660075,87.52 401.7,87.52 C386.739925,87.52 375.140041,83.3000422 366.9,74.86 C358.659959,66.4199578 354.54,56.2400596 354.54,44.32 C354.54,32.3999404 358.659959,22.0800436 366.9,13.36 C375.140041,4.6399564 386.739925,0.28 401.7,0.28 C416.340073,0.28 427.839958,4.579957 436.2,13.18 C444.560042,21.780043 448.74,32.1599392 448.74,44.32 Z M424.02,44.32 C424.02,33.2799448 422.420016,24.1400362 419.22,16.9 C416.019984,9.6599638 410.180042,6.04 401.7,6.04 C393.139957,6.04 387.280016,9.6999634 384.12,17.02 C380.959984,24.3400366 379.38,33.4399456 379.38,44.32 C379.38,55.4400556 380.959984,64.4599654 384.12,71.38 C387.280016,78.3000346 393.139957,81.76 401.7,81.76 C410.180042,81.76 416.019984,78.2800348 419.22,71.32 C422.420016,64.3599652 424.02,55.3600552 424.02,44.32 Z" transform="translate(252 106)"/>
    <path d="M162.599132,89.7205665 C166.022623,80.3606118 167.890664,70.2531606 167.890664,59.7107115 C167.890664,48.1712673 165.652922,37.1538205 161.586212,27.0663692 C160.850317,25.241378 163.196765,23.7653852 164.537307,25.2073782 C179.053828,40.8203028 187.928653,61.7312018 187.928653,84.7105908 C187.928653,95.8560369 185.841196,106.515485 182.034479,116.318938 C185.334736,114.260948 188.437618,110.757465 191.342626,105.808489 C191.824539,104.986493 193.086933,105.385491 192.995259,106.333486 C190.278608,134.410851 186.060111,154.608753 180.340768,166.927694 C179.689032,168.331187 180.902833,165.5677 180.340768,166.927694 C171.805586,187.561094 152.93481,207 130.111541,207 C120.020911,207 110.626099,204.022014 102.763193,198.897539 C98.0773089,195.844554 92.0138134,195.844554 87.3279297,198.897539 C79.4645219,204.022014 70.0702117,207 59.9790805,207 C39.4366352,207 19.4216899,188.263591 10.4166177,167.511191 C10.0910003,166.759694 10.7712901,168.275187 10.4166177,167.511191 C4.65018539,155.090751 1.17860381,137.730335 0.00137195565,115.428942 C-0.0432125698,114.583446 1.00978375,114.150449 1.56583794,114.789445 C7.40140128,121.492413 15.1435793,122.05441 24.7923719,116.475437 C33.6150984,111.373462 42.5540453,108.446976 51.6087116,107.69498 C54.3308724,107.237982 57.1271737,107.000483 59.9790805,107.000483 C69.3874173,107.000483 78.1896049,109.588971 85.710864,114.091449 C88.8062324,115.94494 92.8233482,115.212443 94.9984719,112.336957 C106.077476,97.6855281 112.647432,79.4456162 112.647432,59.6747117 C112.647432,39.31481 105.680223,20.5794006 93.9965724,5.71347237 C91.8895779,3.03298532 94.4504329,-0.748996414 97.7481849,0.129499343 C135.175141,10.1029512 162.742404,44.1752866 162.742404,84.6745909 C162.742404,86.3685827 162.693812,88.0505746 162.599132,89.7205665 M108.069753,172.364667 C118.616248,137.102338 138.257985,130.654869 166.995968,153.022261 C157.989894,174.309658 138.347655,180.757127 108.069753,172.364667 M81.8345151,172.364667 C71.2885215,137.102338 51.6462828,130.654869 22.9088009,153.022261 C31.9148751,174.309658 51.5571137,180.757127 81.8345151,172.364667"/>
  </g>
</svg>
