<svg width="800" height="800" xmlns="http://www.w3.org/2000/svg">
  <g fill="#062E3B" fill-rule="evenodd">
    <path d="M273.38 579.84c-.08.4-.26.94-.54 1.62-.28.68-.54 1.02-.78 1.02-3.44.24-6.04 1.32-7.8 3.24-1.76 1.92-3.56 4.84-5.4 8.76l-31.8 67.08c-.16.24-.52.46-1.08.66s-1.4.3-2.52.3c-1.04 0-1.86-.1-2.46-.3-.6-.2-.98-.42-1.14-.66l-28.68-67.08c-1.92-4.48-3.64-7.5-5.16-9.06-1.52-1.56-4.16-2.54-7.92-2.94-.24-.08-.48-.44-.72-1.08-.24-.64-.36-1.16-.36-1.56 0-.48.12-1.04.36-1.68.24-.64.48-.96.72-.96 3.84 0 7.58.1 11.22.3 3.64.2 7.1.3 10.38.3 3.68 0 7.54-.1 11.58-.3 4.04-.2 8.02-.3 11.94-.3.24 0 .44.34.6 1.02.16.68.24 1.22.24 1.62 0 .4-.08.94-.24 1.62-.16.68-.36 1.02-.6 1.02-3.52.16-6 .6-7.44 1.32-1.44.72-2.2 1.96-2.28 3.72-.08.72.06 1.64.42 2.76.36 1.12.62 1.88.78 2.28l17.76 42 18.6-40.56c.24-.56.54-1.48.9-2.76.36-1.28.54-2.28.54-3-.08-1.84-.52-3.2-1.32-4.08-.8-.88-3.44-1.44-7.92-1.68-.24-.08-.42-.44-.54-1.08-.12-.64-.18-1.16-.18-1.56-.08-.56-.02-1.14.18-1.74.2-.6.42-.9.66-.9 3.44 0 6.04.1 7.8.3 1.76.2 4.28.3 7.56.3 2.64 0 4.88-.1 6.72-.3 1.84-.2 4.16-.3 6.96-.3.24 0 .46.32.66.96.2.64.3 1.2.3 1.68zm89.44 39.48c0 12-4.1 22.2-12.3 30.6-8.2 8.4-19.78 12.6-34.74 12.6s-26.56-4.22-34.8-12.66c-8.24-8.44-12.36-18.62-12.36-30.54 0-11.92 4.12-22.24 12.36-30.96 8.24-8.72 19.84-13.08 34.8-13.08 14.64 0 26.14 4.3 34.5 12.9 8.36 8.6 12.54 18.98 12.54 31.14zm-24.72 0c0-11.04-1.6-20.18-4.8-27.42-3.2-7.24-9.04-10.86-17.52-10.86-8.56 0-14.42 3.66-17.58 10.98-3.16 7.32-4.74 16.42-4.74 27.3 0 11.12 1.58 20.14 4.74 27.06 3.16 6.92 9.02 10.38 17.58 10.38 8.48 0 14.32-3.48 17.52-10.44 3.2-6.96 4.8-15.96 4.8-27zm108.88 10.32c-.56 4.48-1.1 9.96-1.62 16.44s-.86 11.32-1.02 14.52c-5.04-.16-11.32-.3-18.84-.42s-13.64-.18-18.36-.18c-5.12 0-11.72.08-19.8.24l-18.12.36c-.24 0-.46-.3-.66-.9-.2-.6-.3-1.18-.3-1.74 0-.4.1-.92.3-1.56.2-.64.42-1 .66-1.08 4.64-.56 7.7-1.56 9.18-3 1.48-1.44 2.22-3.8 2.22-7.08v-52.68c0-3.28-.74-5.64-2.22-7.08-1.48-1.44-4.54-2.44-9.18-3-.24-.08-.46-.44-.66-1.08-.2-.64-.3-1.16-.3-1.56 0-.56.1-1.14.3-1.74.2-.6.42-.9.66-.9 3.84 0 7.78.1 11.82.3 4.04.2 7.86.3 11.46.3 3.68 0 7.52-.1 11.52-.3 4-.2 7.96-.3 11.88-.3.24 0 .46.32.66.96.2.64.3 1.2.3 1.68 0 .4-.1.94-.3 1.62-.2.68-.42 1.02-.66 1.02-4.64.48-7.72 1.48-9.24 3-1.52 1.52-2.28 3.88-2.28 7.08v54.48c0 2.88.78 4.78 2.34 5.7 1.56.92 3.14 1.38 4.74 1.38h6.84c5.6 0 10.58-2.64 14.94-7.92 4.36-5.28 7.14-11.2 8.34-17.76 0-.16.14-.28.42-.36.28-.08.7-.12 1.26-.12.88 0 1.74.16 2.58.48.84.32 1.22.72 1.14 1.2zm82.72-24.36c0 .4-.3.76-.9 1.08-.6.32-1.3.48-2.1.48-.32 0-.76-.06-1.32-.18s-.88-.26-.96-.42c-1.12-4.4-3.78-9.26-7.98-14.58-4.2-5.32-8.14-7.98-11.82-7.98h-1.8c-1.84 0-3.16.38-3.96 1.14-.8.76-1.2 1.94-1.2 3.54v56.88c0 3.2.76 5.56 2.28 7.08 1.52 1.52 4.6 2.52 9.24 3 .24 0 .46.34.66 1.02.2.68.3 1.22.3 1.62 0 .48-.1 1.04-.3 1.68-.2.64-.42.96-.66.96-3.84 0-7.78-.1-11.82-.3-4.04-.2-7.86-.3-11.46-.3-3.68 0-7.52.1-11.52.3-4 .2-7.96.3-11.88.3-.24 0-.46-.32-.66-.96-.2-.64-.3-1.2-.3-1.68 0-.4.1-.92.3-1.56.2-.64.42-1 .66-1.08 4.72-.56 7.82-1.56 9.3-3 1.48-1.44 2.22-3.8 2.22-7.08v-56.88c0-1.76-.36-2.98-1.08-3.66-.72-.68-2.08-1.02-4.08-1.02h-.96c-3.28 0-7.32 2.46-12.12 7.38-4.8 4.92-8.2 9.98-10.2 15.18-.08.24-.38.4-.9.48-.52.08-.94.12-1.26.12-.72 0-1.42-.16-2.1-.48-.68-.32-1.02-.68-1.02-1.08.8-4 1.66-8.9 2.58-14.7.92-5.8 1.58-10.62 1.98-14.46 2.8.48 7.16.88 13.08 1.2 5.92.32 15.24.48 27.96.48 10.88 0 19.94-.16 27.18-.48 7.24-.32 12.02-.72 14.34-1.2.24 3.84.56 8.4.96 13.68.4 5.28.84 10.44 1.32 15.48zm96.04 14.04c0 12-4.1 22.2-12.3 30.6-8.2 8.4-19.78 12.6-34.74 12.6s-26.56-4.22-34.8-12.66c-8.24-8.44-12.36-18.62-12.36-30.54 0-11.92 4.12-22.24 12.36-30.96 8.24-8.72 19.84-13.08 34.8-13.08 14.64 0 26.14 4.3 34.5 12.9 8.36 8.6 12.54 18.98 12.54 31.14zm-24.72 0c0-11.04-1.6-20.18-4.8-27.42-3.2-7.24-9.04-10.86-17.52-10.86-8.56 0-14.42 3.66-17.58 10.98-3.16 7.32-4.74 16.42-4.74 27.3 0 11.12 1.58 20.14 4.74 27.06 3.16 6.92 9.02 10.38 17.58 10.38 8.48 0 14.32-3.48 17.52-10.44 3.2-6.96 4.8-15.96 4.8-27zM531.582 286.442c6.834-18.72 10.563-38.935 10.563-60.02 0-23.079-4.467-45.114-12.585-65.289-1.47-3.65 3.215-6.602 5.89-3.718 28.979 31.226 46.695 73.048 46.695 119.007 0 22.291-4.167 43.61-11.766 63.217 6.588-4.116 12.782-11.123 18.58-21.021.963-1.644 3.483-.846 3.3 1.05-5.423 56.155-13.844 96.551-25.261 121.189-1.301 2.807 1.122-2.72 0 0-17.038 41.267-54.708 80.145-100.268 80.145-20.143 0-38.897-5.956-54.593-16.205a28.204 28.204 0 0 0-30.812 0c-15.697 10.249-34.45 16.205-54.594 16.205-41.007 0-80.961-37.473-98.937-78.978-.65-1.503.708 1.528 0 0-11.511-24.841-18.441-59.562-20.791-104.165-.09-1.691 2.013-2.557 3.123-1.279 11.649 13.406 27.104 14.53 46.365 3.372 17.612-10.204 35.456-16.057 53.53-17.561a100.678 100.678 0 0 1 16.71-1.389c18.78 0 36.352 5.177 51.366 14.182 6.179 3.707 14.198 2.242 18.54-3.509 22.116-29.303 35.23-65.783 35.23-105.325 0-40.72-13.907-78.191-37.23-107.923-4.206-5.361.906-12.925 7.489-11.168 74.712 19.947 129.742 88.092 129.742 169.091 0 3.388-.097 6.752-.286 10.092M422.73 451.731c21.053-70.525 60.262-83.42 117.629-38.685-17.978 42.575-57.188 55.47-117.63 38.685m-52.37 0c-21.052-70.525-60.262-83.42-117.628-38.685 17.978 42.575 57.188 55.47 117.628 38.685"/>
  </g>
</svg>
