<?xml version="1.0" encoding="utf-8"?>
<!-- Generator: Adobe Illustrator 15.0.0, SVG Export Plug-In . SVG Version: 6.00 Build 0)  -->
<!DOCTYPE svg PUBLIC "-//W3C//DTD SVG 1.1//EN" "http://www.w3.org/Graphics/SVG/1.1/DTD/svg11.dtd">
<svg version="1.1" id="Layer_1" xmlns="http://www.w3.org/2000/svg" xmlns:xlink="http://www.w3.org/1999/xlink" x="0px" y="0px"
	 width="24px" height="24px" viewBox="0 0 40.784 40.686" enable-background="new 0 0 40.784 40.686" xml:space="preserve">
<g>
	<circle fill="white" cx="17.815" cy="11.516" r="4.402"/>
	<path fill="white" d="M31.167,20.311c0,2.434-1.969,4.401-4.403,4.401c-2.427,0-4.401-1.97-4.401-4.401
		c0-2.433,1.975-4.4,4.401-4.4C29.2,15.909,31.167,17.879,31.167,20.311z"/>
	<circle fill="white" cx="17.801" cy="29.131" r="4.402"/>
	<g>
		<path fill="white" d="M20.441-0.045C9.207-0.044,0.1,9.063,0.099,20.298C0.1,31.532,9.207,40.639,20.441,40.641
			c11.235-0.002,20.341-9.106,20.343-20.343C40.783,9.063,31.677-0.044,20.441-0.045z M31.891,31.747
			c-2.937,2.934-6.972,4.742-11.45,4.743c-4.478-0.001-8.513-1.812-11.45-4.743C6.058,28.81,4.25,24.775,4.249,20.298
			c0.001-4.479,1.809-8.513,4.743-11.45c2.937-2.934,6.972-4.742,11.45-4.743c4.478,0.001,8.513,1.811,11.45,4.743
			c2.934,2.938,4.742,6.973,4.743,11.45C36.633,24.775,34.825,28.81,31.891,31.747z"/>
	</g>
</g>
</svg>
