<svg xmlns="http://www.w3.org/2000/svg" width="36" height="36" viewBox="0 0 36 36">
  <g fill-rule="evenodd">
    <path d="M6.9996,3.0003 L6.9996,33.0003 L29.0006,33.0003 L29.0006,11.5863 L20.4136,3.0003 L6.9996,3.0003 Z M9.0006,5.0003 L19.0006,5.0003 L19.0006,13.0003 L27.0006,13.0003 L27.0006,31.0003 L9.0006,31.0003 L9.0006,5.0003 Z M20.9996,6.4143 L25.5856,11.0003 L20.9996,11.0003 L20.9996,6.4143 Z"/>
    <polygon points="19 16 17 16 17 20 13 20 13 22 17 22 17 26 19 26 19 22 23 22 23 20 19 20"/>
  </g>
</svg>
