<svg xmlns="http://www.w3.org/2000/svg" width="36" height="36" viewBox="0 0 36 36">
  <path fill-rule="evenodd" d="M11.9341,27 L9.0001,27 L9.0001,24.277 L19.9311,13.398 L22.7861,16.174 L11.9341,27 Z M26.3841,6.999 L29.2121,9.827 L24.2271,14.813 L21.3981,11.984 L26.3841,6.999 Z M28.9351,12.932 L30.6261,11.241 C31.4061,10.461 31.4061,9.193 30.6261,8.413 L27.7971,5.584 C27.0421,4.829 25.6721,4.828 24.9161,5.584 L7.0001,23.449 L7.0001,27.48 L5.2401,29.293 L6.6811,30.654 L8.3091,29 L12.7621,29 L27.5211,14.294 L29.0011,15.801 L24.4141,20.401 L25.8281,21.822 L30.4151,17.238 C30.7921,16.861 31.0001,16.361 31.0001,15.826 C31.0001,15.29 30.7921,14.789 30.4151,14.412 L28.9351,12.932 Z"/>
</svg>
