<svg width="24" height="24" viewBox="0 0 24 24" fill="none" xmlns="http://www.w3.org/2000/svg">
<path d="M20 8C18.8954 8 18 7.10457 18 6C18 4.89543 18.8954 4 20 4C21.1046 4 22 4.89543 22 6C22 7.10457 21.1046 8 20 8Z" fill="#021322"/>
<path d="M18 12C18 13.1046 18.8954 14 20 14C21.1046 14 22 13.1046 22 12C22 10.8954 21.1046 10 20 10C18.8954 10 18 10.8954 18 12Z" fill="#021322"/>
<path d="M18 18C18 19.1046 18.8954 20 20 20C21.1046 20 22 19.1046 22 18C22 16.8954 21.1046 16 20 16C18.8954 16 18 16.8954 18 18Z" fill="#021322"/>
<path d="M16 5L10 5V19H16V17H12V13L16 13V11L12 11V7H16V5Z" fill="#021322"/>
<path d="M5.5 8.5L2 12L5.5 15.5L9 12L5.5 8.5Z" fill="#021322"/>
</svg>
