<svg width="24" height="24" viewBox="0 0 24 24" fill="none" xmlns="http://www.w3.org/2000/svg">
<path d="M3 11L3 13H5L5 11H3Z" fill="black"/>
<path fill-rule="evenodd" clip-rule="evenodd" d="M21 21H11V3L21 3V21ZM13 19V5H19V19H13Z" fill="black"/>
<path d="M3 9L3 7H5V9H3Z" fill="black"/>
<path d="M3 19L3 21H5V19H3Z" fill="black"/>
<path d="M3 17L3 15H5V17H3Z" fill="black"/>
<path d="M3 3L3 5H5V3L3 3Z" fill="black"/>
<path d="M7 5V3L9 3V5H7Z" fill="black"/>
<path d="M7 19V21H9V19H7Z" fill="black"/>
</svg>
