<svg width="24" height="24" viewBox="0 0 24 24" fill="none" xmlns="http://www.w3.org/2000/svg">
<path fill-rule="evenodd" clip-rule="evenodd" d="M13 21H3L3 3L13 3V21ZM5 19L5 5H11V19H5Z" fill="black"/>
<path d="M19 11V13H21V11H19Z" fill="black"/>
<path d="M19 9V7H21V9H19Z" fill="black"/>
<path d="M19 19V21H21V19H19Z" fill="black"/>
<path d="M19 17V15H21V17H19Z" fill="black"/>
<path d="M19 3V5H21V3L19 3Z" fill="black"/>
<path d="M15 5V3L17 3V5H15Z" fill="black"/>
<path d="M15 19V21H17V19H15Z" fill="black"/>
</svg>
