<svg width="24" height="24" viewBox="0 0 24 24" fill="none" xmlns="http://www.w3.org/2000/svg">
<path fill-rule="evenodd" clip-rule="evenodd" d="M13.4143 12.0001L14.9681 13.5539C15.5636 13.202 16.2582 13.0001 17 13.0001C19.2091 13.0001 21 14.791 21 17.0001C21 19.2092 19.2091 21.0001 17 21.0001C14.7909 21.0001 13 19.2092 13 17.0001C13 16.2583 13.2019 15.5636 13.5539 14.9681L12.0001 13.4143L10.4462 14.9682C10.7981 15.5637 11 16.2583 11 17.0001C11 19.2092 9.20914 21.0001 7 21.0001C4.79086 21.0001 3 19.2092 3 17.0001C3 14.791 4.79086 13.0001 7 13.0001C7.74183 13.0001 8.4365 13.202 9.03202 13.5539L10.5859 12.0001L3.79297 5.20718L5.20718 3.79297L12.0001 10.5859L18.793 3.793L20.2072 5.20721L13.4143 12.0001ZM5 17.0001C5 15.8955 5.89543 15.0001 7 15.0001C8.10457 15.0001 9 15.8955 9 17.0001C9 18.1047 8.10457 19.0001 7 19.0001C5.89543 19.0001 5 18.1047 5 17.0001ZM15 17.0001C15 15.8955 15.8954 15.0001 17 15.0001C18.1046 15.0001 19 15.8955 19 17.0001C19 18.1047 18.1046 19.0001 17 19.0001C15.8954 19.0001 15 18.1047 15 17.0001Z" fill="black"/>
</svg>
