<svg width="24" height="24" viewBox="0 0 24 24" fill="none" xmlns="http://www.w3.org/2000/svg">
<path d="M2 6C2 4.89542 2.89545 4 4 4C5.10455 4 6 4.89542 6 6C6 7.10455 5.10455 8 4 8C2.89545 8 2 7.10455 2 6Z" fill="black"/>
<path d="M22 5H8V7H22V5Z" fill="black"/>
<path d="M22 11H8V13H22V11Z" fill="black"/>
<path d="M8 17H22V19H8V17Z" fill="black"/>
<path d="M4 10C2.89545 10 2 10.8954 2 12C2 13.1046 2.89545 14 4 14C5.10455 14 6 13.1046 6 12C6 10.8954 5.10455 10 4 10Z" fill="black"/>
<path d="M4 16C2.89545 16 2 16.8954 2 18C2 19.1046 2.89545 20 4 20C5.10455 20 6 19.1046 6 18C6 16.8954 5.10455 16 4 16Z" fill="black"/>
</svg>
