<svg width="24" height="24" viewBox="0 0 24 24" fill="none" xmlns="http://www.w3.org/2000/svg">
<path d="M4.66674 8.74762L8.70718 4.70718L7.29297 3.29297L4.66674 5.9192L3.70718 4.95964L2.29297 6.37385L4.66674 8.74762Z" fill="black"/>
<path d="M22 5.00006H10V7.00006H22V5.00006Z" fill="black"/>
<path d="M22 11.0001H10V13.0001H22V11.0001Z" fill="black"/>
<path d="M10 17.0001H22V19.0001H10V17.0001Z" fill="black"/>
<path d="M8.70718 10.7072L4.66674 14.7476L2.29297 12.3738L3.70718 10.9596L4.66674 11.9192L7.29297 9.29297L8.70718 10.7072Z" fill="black"/>
<path d="M4.66674 20.7476L8.70718 16.7072L7.29297 15.293L4.66674 17.9192L3.70718 16.9596L2.29297 18.3738L4.66674 20.7476Z" fill="black"/>
</svg>
