<svg width="24" height="24" viewBox="0 0 24 24" fill="none" xmlns="http://www.w3.org/2000/svg">
<path fill-rule="evenodd" clip-rule="evenodd" d="M7 6C9.20914 6 11 7.79086 11 10C11 13.5653 8.81985 16.6682 5.55262 18.8336L4.44775 17.1664C5.87998 16.2172 7.00481 15.1169 7.77807 13.9244C7.52639 13.974 7.26623 14 7 14C4.79086 14 3 12.2091 3 10C3 7.79086 4.79086 6 7 6ZM9 10C9 11.1046 8.10457 12 7 12C5.89543 12 5 11.1046 5 10C5 8.89543 5.89543 8 7 8C8.10457 8 9 8.89543 9 10Z" fill="black"/>
<path fill-rule="evenodd" clip-rule="evenodd" d="M17.7781 13.9244C17.5264 13.974 17.2662 14 17 14C14.7909 14 13 12.2091 13 10C13 7.79086 14.7909 6 17 6C19.2091 6 21 7.79086 21 10C21 13.5653 18.8199 16.6682 15.5526 18.8336L14.4478 17.1664C15.88 16.2172 17.0048 15.1169 17.7781 13.9244ZM19 10C19 11.1046 18.1046 12 17 12C15.8954 12 15 11.1046 15 10C15 8.89543 15.8954 8 17 8C18.1046 8 19 8.89543 19 10Z" fill="black"/>
</svg>
