<svg width="24" height="24" viewBox="0 0 24 24" fill="none" xmlns="http://www.w3.org/2000/svg">
<path d="M12 14.5C13.3807 14.5 14.5 13.3807 14.5 12C14.5 10.6193 13.3807 9.5 12 9.5C10.6193 9.5 9.5 10.6193 9.5 12C9.5 13.3807 10.6193 14.5 12 14.5Z" fill="black"/>
<path fill-rule="evenodd" clip-rule="evenodd" d="M5.59047 4.61667L7.73535 5.23024C7.90906 5.12057 8.08729 5.01742 8.26969 4.9211L8.8106 2.75746C8.92189 2.3123 9.32187 2 9.78074 2H14.2192C14.6781 2 15.078 2.3123 15.1893 2.75746L15.7302 4.9211C15.9127 5.01743 16.0909 5.1206 16.2646 5.23028L18.4097 4.61667C18.8509 4.49047 19.3213 4.68071 19.5507 5.07811L21.77 8.92191C21.9994 9.3193 21.9289 9.82185 21.5991 10.1408L19.9942 11.6926C19.998 11.7946 20 11.8971 20 12C20 12.103 19.998 12.2055 19.9942 12.3075L21.5991 13.8593C21.9289 14.1782 21.9994 14.6808 21.77 15.0782L19.5507 18.922C19.3213 19.3194 18.8509 19.5096 18.4097 19.3834L16.2646 18.7698C16.0909 18.8794 15.9126 18.9826 15.7303 19.0789L15.1893 21.2426C15.078 21.6878 14.6781 22.0001 14.2192 22.0001H9.78074C9.32187 22.0001 8.92189 21.6878 8.8106 21.2426L8.26967 19.0789C8.08728 18.9826 7.90907 18.8794 7.73537 18.7698L5.59047 19.3834C5.1493 19.5096 4.67885 19.3193 4.44942 18.9219L2.23019 15.0781C2.00076 14.6807 2.07123 14.1782 2.40111 13.8592L4.00577 12.3076C4.00191 12.2056 3.99996 12.103 3.99996 12C3.99996 11.897 4.00191 11.7944 4.00577 11.6924L2.40111 10.1408C2.07123 9.82185 2.00076 9.31931 2.23019 8.92191L4.44942 5.07811C4.67885 4.68071 5.1493 4.49047 5.59047 4.61667ZM13.4384 4L14.0066 6.27263L14.7963 6.68967C14.933 6.76185 15.0667 6.8392 15.197 6.92148L15.954 7.39936L18.2091 6.75428L19.6475 9.24574L17.9619 10.8756L17.9956 11.7681C17.9985 11.8449 18 11.9222 18 12C18 12.0778 17.9985 12.1551 17.9956 12.232L17.9619 13.1245L19.6475 14.7543L18.2091 17.2458L15.9539 16.6007L15.1969 17.0786C15.0666 17.1608 14.933 17.2382 14.7964 17.3103L14.0066 17.7274L13.4384 20.0001H10.5615L9.99334 17.7274L9.20357 17.3103C9.0669 17.2382 8.93328 17.1608 8.80298 17.0786L8.04599 16.6007L5.79108 17.2457L4.35263 14.7543L6.03809 13.1246L6.00434 12.2321C6.00143 12.1552 5.99996 12.0778 5.99996 12C5.99996 11.9222 6.00143 11.8448 6.00434 11.7679L6.03808 10.8754L4.35263 9.24574L5.79108 6.75428L8.04597 7.39931L8.80297 6.92145C8.93328 6.83918 9.06691 6.76184 9.20358 6.68967L9.99336 6.27263L10.5615 4H13.4384Z" fill="black"/>
</svg>
