<svg width="24" height="24" viewBox="0 0 24 24" fill="none" xmlns="http://www.w3.org/2000/svg">
<path d="M17 4H19V7H22V9H19V12H17V9H14V7H17V4Z" fill="black"/>
<path fill-rule="evenodd" clip-rule="evenodd" d="M13.3819 14.8618C13.3819 14.8618 14.156 15.2587 14.5877 15.5754C15.2779 16.0817 16.0732 16.8818 16.3217 18C16.3504 18.1291 16.3718 18.2624 16.3849 18.4C16.3948 18.5041 16.4 18.6106 16.4 18.7196V20L2 20L2 18.7196C2 18.6106 2.00518 18.5041 2.01509 18.4C2.0282 18.2624 2.0496 18.1291 2.07828 18C2.32658 16.8823 3.12062 16.0826 3.80611 15.5777C4.24345 15.2556 4.68302 15.0177 5.01726 14.859C5.17463 14.7843 5.30866 14.7271 5.4081 14.687L5.58887 14.6179L5.66038 14.5963C6.26182 14.4454 6.49887 14.2588 6.57556 14.1823L6.57415 13.5893C6.09164 13.1281 5.87178 12.5905 5.77247 12.1848C5.46152 11.8317 5.2529 11.4055 5.14173 10.8622C5.07124 10.5178 5.06936 10.1927 5.15098 9.88435C5.18373 9.76058 5.22757 9.64854 5.27799 9.54693L5.25537 9.4743L5.24898 9.44731C4.93626 8.12731 5.04708 7.08466 5.38775 6.27783C5.72576 5.47727 6.26031 4.97981 6.67835 4.69287C7.67082 4.01106 8.78472 4 9.21783 4C10.2301 4 10.9362 4.55189 11.3179 4.95238C11.8459 5.11349 12.3048 5.45723 12.6421 5.91119C12.8847 6.23768 13.1342 6.67044 13.2573 7.26733C13.3791 7.85792 13.3668 8.55847 13.1649 9.41355L13.1586 9.44015L13.1252 9.54806C13.3264 9.93791 13.4457 10.464 13.2053 11.045L13.1459 11.1907L13.1452 11.1924L13.1273 11.2371C13.034 11.4706 12.8856 11.8419 12.6355 12.1619C12.5387 12.569 12.3203 13.1181 11.8286 13.5884V14.2886C11.943 14.3517 12.193 14.4582 12.6989 14.5846L12.7304 14.5924L12.7611 14.6028C12.7732 14.6069 12.7925 14.6136 12.8183 14.623C12.8599 14.6382 12.9185 14.6604 12.991 14.6897C13.0955 14.732 13.3819 14.8618 13.3819 14.8618ZM11.2272 8.91598C11.3674 8.30346 11.3486 7.91438 11.2985 7.67121C11.2493 7.43251 11.1559 7.2643 11.0368 7.10413C10.9252 6.95386 10.8091 6.88818 10.7343 6.86533L10.2322 6.71215L9.87003 6.33214C9.67345 6.12586 9.4557 6 9.21783 6C8.82584 6 8.26127 6.03191 7.81083 6.34135C7.62244 6.47066 7.3837 6.69234 7.23024 7.05578C7.08237 7.40601 6.96718 7.99518 7.18609 8.94759L7.42594 9.71769L7.09053 10.3937C7.09194 10.4086 7.09491 10.4309 7.10113 10.4613C7.15059 10.703 7.21857 10.8007 7.2734 10.863L7.59826 11.2318L7.71513 11.7093C7.75185 11.8593 7.82353 12.0168 7.95612 12.1436L8.57212 12.7324L8.57754 15.0102L7.98805 15.5982C7.6028 15.9825 7.03137 16.3048 6.21349 16.5192C6.19847 16.5249 6.17956 16.5324 6.15712 16.5414C5.93152 16.6325 5.45081 16.8502 4.99227 17.188C4.64396 17.4446 4.37811 17.7178 4.20979 18L14.1898 18C14.0213 17.7182 13.7549 17.4449 13.4046 17.1879C12.9584 16.8605 12.4879 16.6437 12.2403 16.5435C12.2043 16.5289 12.1752 16.5177 12.1541 16.5098C11.5958 16.3671 11.179 16.2142 10.8632 16.0402L9.82857 15.47V12.7339L10.4461 12.1432C10.5814 12.0137 10.6534 11.8522 10.6897 11.6994L10.7907 11.2745L11.0597 10.9304C11.0755 10.9102 11.1061 10.8642 11.1469 10.7815C11.1881 10.6981 11.2226 10.6138 11.27 10.4951L11.2894 10.4467L11.2939 10.4353L11.311 10.3937L10.9727 9.73827L11.2272 8.91598Z" fill="black"/>
</svg>
