<svg width="24" height="24" viewBox="0 0 24 24" fill="none" xmlns="http://www.w3.org/2000/svg">
<path fill-rule="evenodd" clip-rule="evenodd" d="M9.97976 4.51502C9.68686 4.71607 9.31513 5.06166 9.07718 5.62524C8.84412 6.17722 8.70057 7.02849 8.99966 8.31532L9.24544 9.10442L8.88905 9.82264C8.88154 9.83779 8.8762 9.85182 8.87214 9.86716C8.86424 9.89702 8.84715 9.98427 8.88655 10.1768C8.96381 10.5543 9.08395 10.7586 9.21651 10.9091L9.54138 11.278L9.65824 11.7555C9.71979 12.007 9.84643 12.2988 10.0997 12.5409L10.7157 13.1297L10.7214 15.5557L10.1319 16.1438C9.72447 16.5503 9.08883 16.9202 8.1148 17.1719C7.9382 17.2383 7.17938 17.5406 6.44379 18.0824C5.72516 18.6118 5.18275 19.251 5.03817 20L18.9618 20C18.8172 19.2515 18.2747 18.6123 17.5515 18.0818C17.1497 17.787 16.7318 17.5571 16.3916 17.3945C16.2239 17.3143 16.0812 17.2534 15.9771 17.2115C15.9155 17.1867 15.8694 17.1694 15.8417 17.1592C15.1518 16.9843 14.6681 16.804 14.3203 16.6124L13.2857 16.0421L13.2857 13.131L13.9032 12.5403C14.1615 12.2932 14.2881 11.9945 14.3486 11.7399L14.4496 11.315L14.7185 10.9709C14.7656 10.9107 14.8212 10.8214 14.882 10.6983C14.9431 10.5744 14.9927 10.4523 15.0518 10.3043L15.0758 10.2444L15.0804 10.233L15.1586 10.0413C15.1699 10.0141 15.1724 9.99919 15.173 9.99461C15.1737 9.98956 15.174 9.98464 15.1732 9.97724C15.1715 9.95988 15.1629 9.9175 15.1292 9.85229L14.754 9.12528L15.0172 8.27515C15.2095 7.44451 15.1934 6.87882 15.1128 6.48804C15.0328 6.10012 14.877 5.82372 14.6974 5.58192C14.5014 5.31817 14.2706 5.16655 14.0637 5.10343L13.5616 4.95025L13.1995 4.57024C12.9075 4.26384 12.5132 4 12.0223 4C11.522 4 10.6783 4.03512 9.97976 4.51502ZM16.9483 8.80019L16.9065 8.93507C17.158 9.42239 17.3072 10.08 17.0066 10.8062L16.9323 10.9883L16.9315 10.9905L16.9091 11.0464C16.7924 11.3383 16.607 11.8024 16.2944 12.2024C16.1734 12.7113 15.9003 13.3976 15.2857 13.9855L15.2857 14.8608C15.4287 14.9396 15.7412 15.0728 16.3737 15.2307L16.413 15.2405L16.4514 15.2535C16.4665 15.2586 16.4906 15.267 16.5228 15.2787C16.5749 15.2977 16.6481 15.3255 16.7387 15.3621C17.1587 15.5322 17.9513 15.8945 18.7346 16.4692C19.697 17.1753 20.8228 18.338 20.9811 20C20.9935 20.1301 21 20.2632 21 20.3994L21 22L3 22L3 20.3994C3 20.2632 3.00647 20.1301 3.01886 20C3.17716 18.3387 4.30182 17.1762 5.25763 16.4721C6.06171 15.8798 6.87182 15.5155 7.26012 15.3587C7.3793 15.3106 7.45874 15.282 7.48608 15.2723L7.53015 15.2568L7.57547 15.2454C8.32727 15.0568 8.62359 14.8235 8.71945 14.7278L8.71769 13.9866C8.11454 13.4101 7.83972 12.7381 7.71559 12.231C7.3269 11.7896 7.06613 11.2569 6.92716 10.5778C6.83905 10.1472 6.8367 9.74087 6.93871 9.35543C6.97966 9.20073 7.03446 9.06067 7.09749 8.93366L7.06921 8.84287L7.06122 8.80913C6.67033 7.15914 6.80885 5.85582 7.23468 4.84729C7.6572 3.84659 8.32539 3.22476 8.84794 2.86609C10.0885 2.01383 11.4809 2 12.0223 2C13.2876 2 14.1703 2.68986 14.6473 3.19048C15.3074 3.39187 15.8809 3.82154 16.3026 4.38899C16.6059 4.7971 16.9178 5.33805 17.0716 6.08416C17.2238 6.8224 17.2084 7.69809 16.9561 8.76694L16.9483 8.80019Z" fill="black"/>
</svg>
