<?xml version="1.0" encoding="UTF-8"?>
<svg width="181px" height="50px" viewBox="0 0 181 50" version="1.1" xmlns="http://www.w3.org/2000/svg" xmlns:xlink="http://www.w3.org/1999/xlink">
    <title>Volto Logo</title>
    <g id="Page-1" stroke="none" stroke-width="1" fill="none" fill-rule="evenodd">
        <g id="voltologoh" fill="#021322">
            <polygon id="Path" fill-rule="nonzero" points="66.9760795 40 77.1960819 40 90 10 78.6315352 10 72.0860807 27.1759258 65.3684648 10 54 10"></polygon>
            <path d="M101.029101,41 C110.386242,41 118,34.0092521 118,25.4713252 C118,16.9334481 110.386242,10 101.029101,10 C91.6717923,10 84,16.9334481 84,25.4713252 C84,34.0092521 91.6717923,41 101.029101,41 Z M101.029101,31.8316918 C97.4837969,31.8316918 94.5777105,28.9666992 94.5777105,25.4713252 C94.5777105,21.9759512 97.4837969,19.1681755 101.029101,19.1681755 C104.574406,19.1681755 107.422121,21.9759512 107.422121,25.4713252 C107.422121,28.9666992 104.574406,31.8316918 101.029101,31.8316918 Z" id="Shape" fill-rule="nonzero"></path>
            <polygon id="Path" fill-rule="nonzero" points="118 40 129 40 129 1 118 1"></polygon>
            <path d="M148.053587,30.8790066 C147.46379,31.3994183 146.343092,31.7464151 145.281459,31.7464151 C143.747988,31.7464151 142.686355,30.4740932 142.686355,28.6811923 L142.686355,19.1964436 L148.702277,19.1964436 L148.702277,10.4056719 L142.686355,10.4056719 L142.686355,6 L131.833761,6 L131.833761,10.4056719 L128,10.4056719 L128,19.1964436 L131.833761,19.1964436 L131.833761,30.8790066 C131.833761,36.8358701 136.080466,41 142.155453,41 C144.868516,41 148.112481,39.7275107 150,37.9347772 L148.053587,30.8790066 Z" id="Path" fill-rule="nonzero"></path>
            <path d="M164.030027,41 C173.38639,41 181,34.0092521 181,25.4713252 C181,16.9334481 173.38639,10 164.030027,10 C154.671982,10 147,16.9334481 147,25.4713252 C147,34.0092521 154.671982,41 164.030027,41 Z M164.030027,31.8316918 C160.483962,31.8316918 157.577972,28.9666992 157.577972,25.4713252 C157.577972,21.9759512 160.483962,19.1681755 164.030027,19.1681755 C167.57441,19.1681755 170.422364,21.9759512 170.422364,25.4713252 C170.422364,28.9666992 167.57441,31.8316918 164.030027,31.8316918 Z" id="Shape" fill-rule="nonzero"></path>
            <path d="M6.28571429,46.6555 C13.8009143,42.3328333 18.8571429,34.2535 18.8571429,25 C18.8571429,15.7464667 13.8009143,7.66716667 6.28571429,3.34455 C9.98389333,1.21742833 14.2774552,0 18.8571429,0 C32.7432076,0 44,11.1928833 44,25 C44,38.8071667 32.7432076,50 18.8571429,50 C14.2774552,50 9.98389333,48.7825 6.28571429,46.6555 Z M37.7142857,25 C37.7142857,28.4518333 34.9001295,31.25 31.4285714,31.25 C27.9570133,31.25 25.1428571,28.4518333 25.1428571,25 C25.1428571,21.5481667 27.9570133,18.75 31.4285714,18.75 C34.9001295,18.75 37.7142857,21.5481667 37.7142857,25 Z M6.28571429,31.25 C9.7572221,31.25 12.5714286,28.4518333 12.5714286,25 C12.5714286,21.5481667 9.7572221,18.75 6.28571429,18.75 C2.81420648,18.75 0,21.5481667 0,25 C0,28.4518333 2.81420648,31.25 6.28571429,31.25 Z" id="Shape"></path>
        </g>
    </g>
</svg>
